<svg width="598" height="118" viewBox="0 0 598 118" fill="none" xmlns="http://www.w3.org/2000/svg">
<rect x="29" y="1" width="62" height="62" rx="31" stroke="#18181E" stroke-width="2"/>
<circle cx="59.0492" cy="32.475" r="1.85" stroke="#18181E" stroke-width="2"/>
<path d="M43.1367 26.0629C65.4184 16.4211 74.1712 24.1748 78.2867 33.8057M78.2867 33.8057C75.6259 31.4637 71.4001 27.9874 64.6491 27.3372M78.2867 33.8057C68.5587 39.536 60.6049 40.0509 54.4933 38.559M52.2575 29.061C49.6126 29.9595 46.7374 31.2279 43.6117 32.9498C46.1047 35.0272 49.7424 37.3994 54.4933 38.559M52.2575 29.061C51.7404 30.0876 51.4492 31.2475 51.4492 32.4754C51.4492 34.9637 52.645 37.1727 54.4933 38.559M52.2575 29.061C57.126 27.4071 61.2144 27.0064 64.6491 27.3372M64.6491 27.3372C65.8911 28.69 66.6492 30.4942 66.6492 32.4754C66.6492 35.3855 65.0137 37.9135 62.6117 39.1905" stroke="#18181E" stroke-width="2"/>
<circle cx="60" cy="32" r="22" stroke="#18181E" stroke-width="2" stroke-dasharray="4 4"/>
<path d="M21.3494 85.208C22.448 84.1093 23.8454 83.56 25.5414 83.56C27.2374 83.56 28.6347 84.1093 29.7334 85.208C30.832 86.3067 31.3814 87.704 31.3814 89.4C31.3814 91.096 30.832 92.4933 29.7334 93.592C28.6347 94.6907 27.2374 95.24 25.5414 95.24C23.8454 95.24 22.448 94.6907 21.3494 93.592C20.2507 92.4933 19.7014 91.096 19.7014 89.4C19.7014 87.704 20.2507 86.3067 21.3494 85.208ZM28.6134 86.264C27.8134 85.4427 26.7894 85.032 25.5414 85.032C24.2934 85.032 23.2694 85.4427 22.4694 86.264C21.6694 87.0747 21.2694 88.12 21.2694 89.4C21.2694 90.68 21.6694 91.7307 22.4694 92.552C23.2694 93.3627 24.2934 93.768 25.5414 93.768C26.7894 93.768 27.8134 93.3627 28.6134 92.552C29.4134 91.7307 29.8134 90.68 29.8134 89.4C29.8134 88.12 29.4134 87.0747 28.6134 86.264ZM32.0488 87.608H39.0248V88.872H36.5928C36.3794 88.872 36.2301 88.8507 36.1448 88.808L36.1288 88.824C36.1821 88.9307 36.2088 89.0693 36.2088 89.24V95H34.8648V89.24C34.8648 89.0693 34.8914 88.9307 34.9448 88.824L34.9288 88.808C34.8434 88.8507 34.6941 88.872 34.4808 88.872H32.0488V87.608ZM44.0644 87.608H51.0404V88.872H48.6084C48.395 88.872 48.2457 88.8507 48.1604 88.808L48.1444 88.824C48.1977 88.9307 48.2244 89.0693 48.2244 89.24V95H46.8804V89.24C46.8804 89.0693 46.907 88.9307 46.9604 88.824L46.9444 88.808C46.859 88.8507 46.7097 88.872 46.4964 88.872H44.0644V87.608ZM54.9915 87.368C56.0795 87.368 56.9382 87.72 57.5675 88.424C58.1968 89.1173 58.5115 90.0667 58.5115 91.272V91.544H53.4555C53.0182 91.544 52.7248 91.5067 52.5755 91.432L52.5435 91.464L52.6075 91.64C52.6715 92.3653 52.9222 92.9307 53.3595 93.336C53.7968 93.7413 54.3728 93.944 55.0875 93.944C55.5568 93.944 55.9782 93.8533 56.3515 93.672C56.7248 93.4907 57.0982 93.1867 57.4715 92.76L58.3195 93.64C57.4768 94.7067 56.3942 95.24 55.0715 95.24C53.9088 95.24 52.9755 94.8827 52.2715 94.168C51.5675 93.4533 51.2155 92.5093 51.2155 91.336C51.2155 90.1307 51.5568 89.1707 52.2395 88.456C52.9328 87.7307 53.8502 87.368 54.9915 87.368ZM54.9435 88.6C54.2928 88.6 53.7595 88.7813 53.3435 89.144C52.9382 89.5067 52.6982 90.0027 52.6235 90.632L52.6395 90.648C52.8528 90.552 53.1302 90.504 53.4715 90.504H56.0155C56.5595 90.504 56.9115 90.5467 57.0715 90.632L57.0875 90.616C57.0448 89.976 56.8315 89.48 56.4475 89.128C56.0742 88.776 55.5728 88.6 54.9435 88.6ZM63.7755 95.096L62.2715 91.608C62.0048 91 61.8395 90.552 61.7755 90.264H61.7275C61.7062 90.5413 61.5995 90.9947 61.4075 91.624L60.3035 95H58.8475L61.4715 87.512H61.8075L63.5995 91.656C63.7488 92.008 63.8608 92.344 63.9355 92.664H63.9835C64.0262 92.3973 64.1382 92.0613 64.3195 91.656L66.1115 87.512H66.4475L69.0715 95H67.6155L66.5115 91.624C66.3195 91.0587 66.2128 90.6053 66.1915 90.264H66.1275C66.0742 90.5413 65.9142 90.9893 65.6475 91.608L64.1435 95.096H63.7755ZM75.6984 87.608H77.0584V95H75.6984V92.04C75.6984 91.8693 75.725 91.7307 75.7784 91.624L75.7624 91.608C75.677 91.6507 75.5277 91.672 75.3144 91.672H72.0344C71.8317 91.672 71.6877 91.6507 71.6024 91.608L71.5864 91.624C71.6397 91.7307 71.6664 91.8693 71.6664 92.04V95H70.3064V87.608H71.6664V90.04C71.6664 90.2213 71.6397 90.3653 71.5864 90.472L71.6024 90.488C71.6877 90.4453 71.8317 90.424 72.0344 90.424H75.3144C75.5277 90.424 75.677 90.4453 75.7624 90.488L75.7784 90.472C75.725 90.3653 75.6984 90.2213 75.6984 90.04V87.608ZM82.541 90.264C83.3197 90.264 83.9383 90.4773 84.397 90.904C84.8557 91.32 85.085 91.896 85.085 92.632C85.085 93.3467 84.845 93.9227 84.365 94.36C83.8957 94.7867 83.2823 95 82.525 95H79.197V87.608H80.557V89.896C80.557 90.0347 80.5303 90.1733 80.477 90.312L80.493 90.328C80.5783 90.2853 80.7223 90.264 80.925 90.264H82.541ZM85.741 87.608H87.101V95H85.741V87.608ZM82.429 93.736C82.813 93.736 83.1117 93.64 83.325 93.448C83.549 93.256 83.661 92.9893 83.661 92.648C83.661 92.296 83.5543 92.024 83.341 91.832C83.1277 91.6293 82.8237 91.528 82.429 91.528H80.925C80.7223 91.528 80.5783 91.5067 80.493 91.464L80.477 91.48C80.5303 91.6187 80.557 91.7573 80.557 91.896V93.368C80.557 93.5067 80.5303 93.6453 80.477 93.784L80.493 93.8C80.5783 93.7573 80.7277 93.736 80.941 93.736H82.429ZM88.3319 95L90.7959 91.64C91.0305 91.352 91.1745 91.192 91.2279 91.16V91.112C91.1425 91.0587 91.0039 90.904 90.8119 90.648L88.6359 87.608H90.2519L91.4679 89.32C91.8092 89.8213 92.0065 90.2107 92.0599 90.488H92.1239C92.1772 90.2107 92.3745 89.8213 92.7159 89.32L93.9319 87.608H95.5319L93.3719 90.648C93.1799 90.904 93.0359 91.0587 92.9399 91.112V91.16C93.0039 91.192 93.1532 91.352 93.3879 91.64L95.8519 95H94.2359L92.6999 92.92C92.3692 92.4613 92.1772 92.0933 92.1239 91.816H92.0599C91.9959 92.1147 91.8039 92.4827 91.4839 92.92L89.9319 95H88.3319ZM43.2252 114.048C42.4145 114.048 41.9132 113.712 41.7212 113.04L41.3532 111.712C41.2465 111.339 41.1079 111.077 40.9372 110.928C40.7772 110.768 40.5425 110.688 40.2332 110.688H39.4812C39.2572 110.688 39.0919 110.677 38.9852 110.656L38.9692 110.672C39.0225 110.907 39.0492 111.131 39.0492 111.344V114H37.6892V106.608H39.0492V108.976C39.0492 109.168 39.0225 109.381 38.9692 109.616L38.9852 109.632C39.0919 109.611 39.2572 109.6 39.4812 109.6H40.2332C40.5532 109.6 40.7879 109.536 40.9372 109.408C41.0865 109.28 41.2305 109.029 41.3692 108.656L41.9132 107.36C42.1159 106.827 42.5852 106.56 43.3212 106.56H44.0572V107.776H43.6892C43.4545 107.776 43.2785 107.819 43.1612 107.904C43.0439 107.989 42.9372 108.144 42.8412 108.368L42.5532 109.152C42.3185 109.781 41.7905 110.101 40.9692 110.112V110.176C41.4385 110.187 41.7852 110.267 42.0092 110.416C42.2439 110.555 42.4145 110.795 42.5212 111.136L42.8572 112.272C42.9212 112.496 43.0012 112.645 43.0972 112.72C43.2039 112.795 43.3852 112.832 43.6412 112.832H44.0732V114.048H43.2252ZM49.6148 106.368C50.6815 106.368 51.5508 106.736 52.2228 107.472C52.8948 108.208 53.2308 109.152 53.2308 110.304C53.2308 111.456 52.8948 112.4 52.2228 113.136C51.5508 113.872 50.6815 114.24 49.6148 114.24C48.2495 114.24 47.2841 113.627 46.7188 112.4L46.6548 112.416C46.7615 112.779 46.8148 113.301 46.8148 113.984V117.2H45.4548V106.608H46.7668C46.7668 107.355 46.7348 107.888 46.6708 108.208L46.7348 108.224C47.3001 106.987 48.2601 106.368 49.6148 106.368ZM49.3588 107.648C48.5908 107.648 47.9615 107.899 47.4708 108.4C46.9908 108.891 46.7508 109.525 46.7508 110.304C46.7508 111.093 46.9908 111.733 47.4708 112.224C47.9615 112.715 48.5961 112.96 49.3748 112.96C50.1215 112.96 50.7135 112.725 51.1508 112.256C51.5881 111.776 51.8068 111.125 51.8068 110.304C51.8068 109.493 51.5881 108.848 51.1508 108.368C50.7135 107.888 50.1161 107.648 49.3588 107.648ZM61.0148 106.608L56.4868 117.216H55.0788L56.6788 113.504L53.5428 106.608H55.0948L56.9028 110.864C57.1481 111.429 57.2815 111.925 57.3028 112.352H57.3668C57.3775 111.979 57.4841 111.547 57.6868 111.056L59.5428 106.608H61.0148ZM62.0642 114V106.608H66.8322V107.872H63.8082C63.5949 107.872 63.4455 107.851 63.3602 107.808L63.3442 107.824C63.3975 107.931 63.4242 108.069 63.4242 108.24V114H62.0642ZM68.1406 107.488C68.9086 106.741 69.8739 106.368 71.0366 106.368C72.1992 106.368 73.1592 106.741 73.9166 107.488C74.6739 108.224 75.0526 109.163 75.0526 110.304C75.0526 111.445 74.6739 112.389 73.9166 113.136C73.1592 113.872 72.1992 114.24 71.0366 114.24C69.8739 114.24 68.9086 113.872 68.1406 113.136C67.3832 112.389 67.0046 111.445 67.0046 110.304C67.0046 109.163 67.3832 108.224 68.1406 107.488ZM72.9086 108.416C72.4286 107.936 71.8046 107.696 71.0366 107.696C70.2686 107.696 69.6446 107.936 69.1646 108.416C68.6846 108.896 68.4446 109.525 68.4446 110.304C68.4446 111.083 68.6846 111.712 69.1646 112.192C69.6446 112.672 70.2686 112.912 71.0366 112.912C71.8046 112.912 72.4286 112.672 72.9086 112.192C73.3886 111.712 73.6286 111.083 73.6286 110.304C73.6286 109.525 73.3886 108.896 72.9086 108.416ZM81.7456 110.304C82.4816 110.528 82.8496 111.083 82.8496 111.968C82.8496 112.587 82.6309 113.083 82.1936 113.456C81.7562 113.819 81.1856 114 80.4816 114H76.6736V106.608H80.4496C81.1429 106.608 81.6762 106.768 82.0496 107.088C82.4336 107.408 82.6256 107.856 82.6256 108.432C82.6256 109.157 82.3376 109.653 81.7616 109.92C81.5162 110.037 81.2016 110.107 80.8176 110.128V110.192C81.1802 110.203 81.4896 110.24 81.7456 110.304ZM77.9536 107.792C78.0069 107.899 78.0336 108.048 78.0336 108.24V109.312C78.0336 109.461 78.0069 109.605 77.9536 109.744L77.9696 109.76C78.0549 109.717 78.1989 109.696 78.4016 109.696H79.9536C80.3269 109.696 80.6149 109.611 80.8176 109.44C81.0202 109.259 81.1216 109.019 81.1216 108.72C81.1216 108.133 80.7589 107.84 80.0336 107.84H78.4176C78.2042 107.84 78.0549 107.819 77.9696 107.776L77.9536 107.792ZM80.2256 112.768C80.9722 112.768 81.3456 112.432 81.3456 111.76C81.3456 111.088 80.9456 110.752 80.1456 110.752H78.4016C78.1989 110.752 78.0549 110.725 77.9696 110.672L77.9536 110.688C78.0069 110.827 78.0336 110.971 78.0336 111.12V112.4C78.0336 112.539 78.0069 112.677 77.9536 112.816L77.9696 112.832C78.0549 112.789 78.2042 112.768 78.4176 112.768H80.2256Z" fill="#18181E"/>
<rect x="188.333" y="1" width="62" height="62" rx="31" stroke="#18181E" stroke-width="2"/>
<path d="M216.333 29.2502L211.833 25.1254C211.671 25.0071 211.504 24.8944 211.333 24.7876C210.028 23.9716 208.486 23.5 206.833 23.5C202.139 23.5 198.333 27.3056 198.333 32C198.333 36.6944 202.139 40.5 206.833 40.5C208.702 40.5 210.333 40 211.833 38.8746L226.833 25.1254C228.237 24.1031 229.965 23.5 231.833 23.5C236.528 23.5 240.333 27.3056 240.333 32C240.333 36.6944 236.528 40.5 231.833 40.5C229.965 40.5 228.237 39.8969 226.833 38.8746L222.606 35" stroke="#18181E" stroke-width="2"/>
<path d="M189.564 95L194.796 83.56H194.956L200.188 95H198.572L197.18 91.864H192.572L191.18 95H189.564ZM192.972 90.664C193.164 90.6427 193.463 90.632 193.868 90.632H195.884C196.29 90.632 196.588 90.6427 196.78 90.664L196.796 90.648C196.636 90.4453 196.471 90.1413 196.3 89.736L195.308 87.4C195.074 86.792 194.94 86.3547 194.908 86.088H194.844C194.812 86.3547 194.679 86.792 194.444 87.4L193.452 89.736C193.282 90.1413 193.116 90.4453 192.956 90.648L192.972 90.664ZM205.461 87.368C206.325 87.368 206.986 87.6187 207.445 88.12C207.914 88.6213 208.149 89.3307 208.149 90.248V95H206.805V90.6C206.805 89.9707 206.65 89.4907 206.341 89.16C206.042 88.8293 205.61 88.664 205.045 88.664C204.33 88.664 203.776 88.9147 203.381 89.416C202.986 89.9067 202.789 90.6053 202.789 91.512V95H201.429V87.608H202.789C202.789 88.3653 202.736 88.9947 202.629 89.496L202.693 89.512C203.194 88.0827 204.117 87.368 205.461 87.368ZM212.039 83.656V86.936C212.039 87.2773 212.018 87.528 211.975 87.688L212.023 87.72C212.141 87.6453 212.343 87.608 212.631 87.608H213.479V88.888H212.631C212.322 88.888 212.119 88.8507 212.023 88.776L211.975 88.808C212.018 88.968 212.039 89.224 212.039 89.576V95H210.695V89.576C210.695 89.224 210.717 88.968 210.759 88.808L210.727 88.776C210.631 88.8507 210.423 88.888 210.103 88.888H209.335V87.608H210.103C210.402 87.608 210.61 87.6453 210.727 87.72L210.759 87.688C210.717 87.528 210.695 87.2773 210.695 86.936V84.616L211.959 83.656H212.039ZM216.432 83.8V85.896H214.896V83.8H216.432ZM216.336 87.608V95H214.976V87.608H216.336ZM222.811 90.04V91.352H218.171V90.04H222.811ZM227.544 87.368C228.6 87.368 229.373 87.608 229.864 88.088C230.365 88.568 230.616 89.32 230.616 90.344V95H229.24C229.24 94.584 229.304 94.168 229.432 93.752L229.384 93.72C228.829 94.7333 227.965 95.24 226.792 95.24C225.971 95.24 225.309 95 224.808 94.52C224.307 94.04 224.056 93.4107 224.056 92.632C224.056 91.832 224.307 91.1973 224.808 90.728C225.309 90.2587 225.976 90.024 226.808 90.024C228.003 90.024 228.856 90.472 229.368 91.368L229.416 91.336C229.352 91.1227 229.309 90.7547 229.288 90.232C229.245 89.1653 228.632 88.632 227.448 88.632C226.829 88.632 226.088 88.7707 225.224 89.048L224.84 87.816C225.768 87.5173 226.669 87.368 227.544 87.368ZM227.256 91.16C226.733 91.16 226.307 91.2987 225.976 91.576C225.656 91.8533 225.496 92.2107 225.496 92.648C225.496 93.096 225.656 93.4533 225.976 93.72C226.296 93.976 226.723 94.104 227.256 94.104C227.8 94.104 228.253 93.9653 228.616 93.688C228.979 93.4107 229.16 93.0587 229.16 92.632C229.16 92.2053 228.979 91.8533 228.616 91.576C228.253 91.2987 227.8 91.16 227.256 91.16ZM235.751 87.368C237.127 87.368 238.087 87.9813 238.631 89.208L238.695 89.192C238.599 88.904 238.551 88.376 238.551 87.608H239.895V94.744C239.895 97.208 238.562 98.44 235.895 98.44C234.636 98.44 233.554 98.1467 232.647 97.56L233.303 96.344C234.167 96.8773 235.042 97.144 235.927 97.144C236.738 97.144 237.383 96.9413 237.863 96.536C238.343 96.1413 238.583 95.6133 238.583 94.952V94.6C238.583 94.152 238.62 93.7573 238.695 93.416L238.631 93.4C238.076 94.616 237.116 95.224 235.751 95.224C234.684 95.224 233.815 94.8613 233.143 94.136C232.471 93.4107 232.135 92.4667 232.135 91.304C232.135 90.1413 232.471 89.1973 233.143 88.472C233.815 87.736 234.684 87.368 235.751 87.368ZM236.007 88.648C235.26 88.648 234.668 88.888 234.231 89.368C233.794 89.8373 233.575 90.4827 233.575 91.304C233.575 92.1253 233.788 92.776 234.215 93.256C234.652 93.7253 235.244 93.96 235.991 93.96C236.77 93.96 237.404 93.7147 237.895 93.224C238.386 92.7227 238.631 92.0827 238.631 91.304C238.631 90.5253 238.386 89.8907 237.895 89.4C237.404 88.8987 236.775 88.648 236.007 88.648ZM245.208 87.368C246.296 87.368 247.154 87.72 247.784 88.424C248.413 89.1173 248.728 90.0667 248.728 91.272V91.544H243.672C243.234 91.544 242.941 91.5067 242.792 91.432L242.76 91.464L242.824 91.64C242.888 92.3653 243.138 92.9307 243.576 93.336C244.013 93.7413 244.589 93.944 245.304 93.944C245.773 93.944 246.194 93.8533 246.568 93.672C246.941 93.4907 247.314 93.1867 247.688 92.76L248.536 93.64C247.693 94.7067 246.61 95.24 245.288 95.24C244.125 95.24 243.192 94.8827 242.488 94.168C241.784 93.4533 241.432 92.5093 241.432 91.336C241.432 90.1307 241.773 89.1707 242.456 88.456C243.149 87.7307 244.066 87.368 245.208 87.368ZM245.16 88.6C244.509 88.6 243.976 88.7813 243.56 89.144C243.154 89.5067 242.914 90.0027 242.84 90.632L242.856 90.648C243.069 90.552 243.346 90.504 243.688 90.504H246.232C246.776 90.504 247.128 90.5467 247.288 90.632L247.304 90.616C247.261 89.976 247.048 89.48 246.664 89.128C246.29 88.776 245.789 88.6 245.16 88.6Z" fill="#18181E"/>
<rect x="347.667" y="1" width="62" height="62" rx="31" stroke="#18181E" stroke-width="2"/>
<path d="M364.875 24.5357V13M364.875 24.5357L367.965 21.369M364.875 24.5357L361.786 21.369M392.458 24.5357V13M392.458 24.5357L395.547 21.369M392.458 24.5357L389.368 21.369M378.777 39.4643L378.777 51M378.777 39.4643L375.688 42.631M378.777 39.4643L381.866 42.631M355.167 30.6429C355.167 30.6429 360.075 28.381 364.765 28.381C369.455 28.381 374.087 30.651 378.777 30.6429C383.425 30.6347 388.031 28.381 392.678 28.381C397.326 28.381 402.167 30.6429 402.167 30.6429M355.167 35.3929C355.167 35.3929 360.075 33.131 364.765 33.131C369.455 33.131 374.087 35.401 378.777 35.3929C383.425 35.3847 388.031 33.131 392.678 33.131C397.326 33.131 402.167 35.3929 402.167 35.3929" stroke="#18181E" stroke-width="2"/>
<path d="M357.25 83.8V95H355.81V85.528C355.81 85.336 355.826 85.2027 355.858 85.128L355.826 85.096C355.73 85.1387 355.597 85.16 355.426 85.16H350.77C350.599 85.16 350.466 85.1387 350.37 85.096L350.338 85.128C350.37 85.2027 350.386 85.336 350.386 85.528V92.376C350.386 93.304 350.194 93.9867 349.81 94.424C349.437 94.8613 348.85 95.08 348.05 95.08C347.762 95.08 347.442 95.0587 347.09 95.016V93.688C347.538 93.7093 347.815 93.72 347.922 93.72C348.285 93.72 348.546 93.624 348.706 93.432C348.866 93.2293 348.946 92.904 348.946 92.456V83.8H357.25ZM359.559 95.112V87.608H360.919V90.808C360.919 91.512 360.892 92.1307 360.839 92.664L360.887 92.68C361.047 92.3493 361.324 91.976 361.719 91.56L365.639 87.496H366.039V95H364.695V91.8C364.695 91.096 364.721 90.4773 364.775 89.944L364.711 89.928C364.583 90.216 364.311 90.5893 363.895 91.048L359.975 95.112H359.559ZM373.208 98.232V94.904C373.208 94.2853 373.25 93.752 373.336 93.304L373.288 93.288C372.829 94.5893 371.997 95.24 370.792 95.24C369.853 95.24 369.106 94.888 368.552 94.184C367.997 93.4693 367.72 92.5093 367.72 91.304C367.72 90.0987 367.997 89.144 368.552 88.44C369.106 87.7253 369.853 87.368 370.792 87.368C371.997 87.368 372.829 88.0187 373.288 89.32L373.336 89.304C373.25 88.856 373.208 88.3227 373.208 87.704V83.88H374.488V87.704C374.488 88.3973 374.445 88.9307 374.36 89.304L374.408 89.32C374.888 88.0187 375.72 87.368 376.904 87.368C377.842 87.368 378.589 87.7253 379.144 88.44C379.698 89.144 379.976 90.0987 379.976 91.304C379.976 92.5093 379.698 93.4693 379.144 94.184C378.589 94.888 377.842 95.24 376.904 95.24C375.72 95.24 374.888 94.5893 374.408 93.288L374.36 93.304C374.445 93.6773 374.488 94.2107 374.488 94.904V98.232H373.208ZM369.704 93.256C370.056 93.7253 370.552 93.96 371.192 93.96C371.832 93.96 372.338 93.72 372.712 93.24C373.085 92.76 373.272 92.1147 373.272 91.304C373.272 90.4933 373.085 89.848 372.712 89.368C372.338 88.888 371.832 88.648 371.192 88.648C370.552 88.648 370.056 88.8827 369.704 89.352C369.352 89.8213 369.17 90.472 369.16 91.304C369.17 92.136 369.352 92.7867 369.704 93.256ZM375 93.24C375.373 93.72 375.88 93.96 376.52 93.96C377.16 93.96 377.656 93.7253 378.008 93.256C378.36 92.776 378.541 92.1253 378.552 91.304C378.541 90.4827 378.36 89.8373 378.008 89.368C377.656 88.888 377.16 88.648 376.52 88.648C375.88 88.648 375.373 88.888 375 89.368C374.626 89.848 374.44 90.4933 374.44 91.304C374.44 92.1147 374.626 92.76 375 93.24ZM380.145 87.608H387.121V88.872H384.689C384.476 88.872 384.326 88.8507 384.241 88.808L384.225 88.824C384.278 88.9307 384.305 89.0693 384.305 89.24V95H382.961V89.24C382.961 89.0693 382.988 88.9307 383.041 88.824L383.025 88.808C382.94 88.8507 382.79 88.872 382.577 88.872H380.145V87.608ZM388.278 95.112V87.608H389.638V90.808C389.638 91.512 389.611 92.1307 389.558 92.664L389.606 92.68C389.766 92.3493 390.043 91.976 390.438 91.56L394.358 87.496H394.758V95H393.414V91.8C393.414 91.096 393.44 90.4773 393.494 89.944L393.43 89.928C393.302 90.216 393.03 90.5893 392.614 91.048L388.694 95.112H388.278ZM402.295 87.608H403.655V95H402.295V92.04C402.295 91.8693 402.321 91.7307 402.375 91.624L402.359 91.608C402.273 91.6507 402.124 91.672 401.911 91.672H398.631C398.428 91.672 398.284 91.6507 398.199 91.608L398.183 91.624C398.236 91.7307 398.263 91.8693 398.263 92.04V95H396.903V87.608H398.263V90.04C398.263 90.2213 398.236 90.3653 398.183 90.472L398.199 90.488C398.284 90.4453 398.428 90.424 398.631 90.424H401.911C402.124 90.424 402.273 90.4453 402.359 90.488L402.375 90.472C402.321 90.3653 402.295 90.2213 402.295 90.04V87.608ZM405.793 95V87.608H410.561V88.872H407.537C407.324 88.872 407.175 88.8507 407.089 88.808L407.073 88.824C407.127 88.9307 407.153 89.0693 407.153 89.24V95H405.793ZM352.968 114.24C351.923 114.24 351 113.995 350.2 113.504L350.792 112.336C351.496 112.731 352.211 112.928 352.936 112.928C353.491 112.928 353.965 112.779 354.36 112.48C354.765 112.181 355.027 111.797 355.144 111.328C355.208 111.083 355.272 110.917 355.336 110.832L355.32 110.816C355.203 110.869 355.059 110.896 354.888 110.896H352.088V109.712H354.888C355.059 109.712 355.203 109.739 355.32 109.792L355.336 109.776C355.261 109.659 355.197 109.493 355.144 109.28C355.016 108.811 354.749 108.427 354.344 108.128C353.949 107.829 353.48 107.68 352.936 107.68C352.211 107.68 351.496 107.877 350.792 108.272L350.2 107.104C351 106.613 351.923 106.368 352.968 106.368C354.12 106.368 355.037 106.731 355.72 107.456C356.403 108.171 356.744 109.12 356.744 110.304C356.744 111.488 356.403 112.443 355.72 113.168C355.037 113.883 354.12 114.24 352.968 114.24ZM363.442 117.232V113.904C363.442 113.285 363.485 112.752 363.57 112.304L363.522 112.288C363.064 113.589 362.232 114.24 361.026 114.24C360.088 114.24 359.341 113.888 358.786 113.184C358.232 112.469 357.954 111.509 357.954 110.304C357.954 109.099 358.232 108.144 358.786 107.44C359.341 106.725 360.088 106.368 361.026 106.368C362.232 106.368 363.064 107.019 363.522 108.32L363.57 108.304C363.485 107.856 363.442 107.323 363.442 106.704V102.88H364.722V106.704C364.722 107.397 364.68 107.931 364.594 108.304L364.642 108.32C365.122 107.019 365.954 106.368 367.138 106.368C368.077 106.368 368.824 106.725 369.378 107.44C369.933 108.144 370.21 109.099 370.21 110.304C370.21 111.509 369.933 112.469 369.378 113.184C368.824 113.888 368.077 114.24 367.138 114.24C365.954 114.24 365.122 113.589 364.642 112.288L364.594 112.304C364.68 112.677 364.722 113.211 364.722 113.904V117.232H363.442ZM359.938 112.256C360.29 112.725 360.786 112.96 361.426 112.96C362.066 112.96 362.573 112.72 362.946 112.24C363.32 111.76 363.506 111.115 363.506 110.304C363.506 109.493 363.32 108.848 362.946 108.368C362.573 107.888 362.066 107.648 361.426 107.648C360.786 107.648 360.29 107.883 359.938 108.352C359.586 108.821 359.405 109.472 359.394 110.304C359.405 111.136 359.586 111.787 359.938 112.256ZM365.234 112.24C365.608 112.72 366.114 112.96 366.754 112.96C367.394 112.96 367.89 112.725 368.242 112.256C368.594 111.776 368.776 111.125 368.786 110.304C368.776 109.483 368.594 108.837 368.242 108.368C367.89 107.888 367.394 107.648 366.754 107.648C366.114 107.648 365.608 107.888 365.234 108.368C364.861 108.848 364.674 109.493 364.674 110.304C364.674 111.115 364.861 111.76 365.234 112.24ZM376.911 117.232V113.904C376.911 113.285 376.954 112.752 377.039 112.304L376.991 112.288C376.532 113.589 375.7 114.24 374.495 114.24C373.556 114.24 372.81 113.888 372.255 113.184C371.7 112.469 371.423 111.509 371.423 110.304C371.423 109.099 371.7 108.144 372.255 107.44C372.81 106.725 373.556 106.368 374.495 106.368C375.7 106.368 376.532 107.019 376.991 108.32L377.039 108.304C376.954 107.856 376.911 107.323 376.911 106.704V102.88H378.191V106.704C378.191 107.397 378.148 107.931 378.063 108.304L378.111 108.32C378.591 107.019 379.423 106.368 380.607 106.368C381.546 106.368 382.292 106.725 382.847 107.44C383.402 108.144 383.679 109.099 383.679 110.304C383.679 111.509 383.402 112.469 382.847 113.184C382.292 113.888 381.546 114.24 380.607 114.24C379.423 114.24 378.591 113.589 378.111 112.288L378.063 112.304C378.148 112.677 378.191 113.211 378.191 113.904V117.232H376.911ZM373.407 112.256C373.759 112.725 374.255 112.96 374.895 112.96C375.535 112.96 376.042 112.72 376.415 112.24C376.788 111.76 376.975 111.115 376.975 110.304C376.975 109.493 376.788 108.848 376.415 108.368C376.042 107.888 375.535 107.648 374.895 107.648C374.255 107.648 373.759 107.883 373.407 108.352C373.055 108.821 372.874 109.472 372.863 110.304C372.874 111.136 373.055 111.787 373.407 112.256ZM378.703 112.24C379.076 112.72 379.583 112.96 380.223 112.96C380.863 112.96 381.359 112.725 381.711 112.256C382.063 111.776 382.244 111.125 382.255 110.304C382.244 109.483 382.063 108.837 381.711 108.368C381.359 107.888 380.863 107.648 380.223 107.648C379.583 107.648 379.076 107.888 378.703 108.368C378.33 108.848 378.143 109.493 378.143 110.304C378.143 111.115 378.33 111.76 378.703 112.24ZM388.588 106.368C389.676 106.368 390.534 106.72 391.164 107.424C391.793 108.117 392.108 109.067 392.108 110.272V110.544H387.052C386.614 110.544 386.321 110.507 386.172 110.432L386.14 110.464L386.204 110.64C386.268 111.365 386.518 111.931 386.956 112.336C387.393 112.741 387.969 112.944 388.684 112.944C389.153 112.944 389.574 112.853 389.948 112.672C390.321 112.491 390.694 112.187 391.068 111.76L391.916 112.64C391.073 113.707 389.99 114.24 388.668 114.24C387.505 114.24 386.572 113.883 385.868 113.168C385.164 112.453 384.812 111.509 384.812 110.336C384.812 109.131 385.153 108.171 385.836 107.456C386.529 106.731 387.446 106.368 388.588 106.368ZM388.54 107.6C387.889 107.6 387.356 107.781 386.94 108.144C386.534 108.507 386.294 109.003 386.22 109.632L386.236 109.648C386.449 109.552 386.726 109.504 387.068 109.504H389.612C390.156 109.504 390.508 109.547 390.668 109.632L390.684 109.616C390.641 108.976 390.428 108.48 390.044 108.128C389.67 107.776 389.169 107.6 388.54 107.6ZM399.267 114.048C398.456 114.048 397.955 113.712 397.763 113.04L397.395 111.712C397.288 111.339 397.149 111.077 396.979 110.928C396.819 110.768 396.584 110.688 396.275 110.688H395.523C395.299 110.688 395.133 110.677 395.027 110.656L395.011 110.672C395.064 110.907 395.091 111.131 395.091 111.344V114H393.731V106.608H395.091V108.976C395.091 109.168 395.064 109.381 395.011 109.616L395.027 109.632C395.133 109.611 395.299 109.6 395.523 109.6H396.275C396.595 109.6 396.829 109.536 396.979 109.408C397.128 109.28 397.272 109.029 397.411 108.656L397.955 107.36C398.157 106.827 398.627 106.56 399.363 106.56H400.099V107.776H399.731C399.496 107.776 399.32 107.819 399.203 107.904C399.085 107.989 398.979 108.144 398.883 108.368L398.595 109.152C398.36 109.781 397.832 110.101 397.011 110.112V110.176C397.48 110.187 397.827 110.267 398.051 110.416C398.285 110.555 398.456 110.795 398.563 111.136L398.899 112.272C398.963 112.496 399.043 112.645 399.139 112.72C399.245 112.795 399.427 112.832 399.683 112.832H400.115V114.048H399.267ZM400.504 106.608H407.48V107.872H405.048C404.835 107.872 404.686 107.851 404.6 107.808L404.584 107.824C404.638 107.931 404.664 108.069 404.664 108.24V114H403.32V108.24C403.32 108.069 403.347 107.931 403.4 107.824L403.384 107.808C403.299 107.851 403.15 107.872 402.936 107.872H400.504V106.608Z" fill="#18181E"/>
<rect x="507" y="1" width="62" height="62" rx="31" stroke="#18181E" stroke-width="2"/>
<path d="M542.198 39.2875C541.234 36.7115 539.632 34.3195 537.656 32.3429C535.679 30.3663 533.287 28.7642 530.711 27.8C533.287 26.8358 535.679 25.2337 537.656 23.2571C539.632 21.2805 541.234 18.8885 542.198 16.3125C543.163 18.8885 544.765 21.2805 546.741 23.2571C548.718 25.2337 551.11 26.8358 553.686 27.8C551.11 28.7642 548.718 30.3663 546.741 32.3429C544.765 34.3195 543.163 36.7115 542.198 39.2875Z" stroke="#18181E" stroke-width="2" stroke-miterlimit="6.39245" stroke-linecap="round"/>
<path d="M522.184 40.9252C522.321 40.8477 522.456 40.7672 522.589 40.6844C523.759 39.9604 524.961 38.9733 526.043 37.8917C527.125 36.8101 528.112 35.6075 528.836 34.4379C528.919 34.3042 528.999 34.1691 529.077 34.0331C529.154 34.1691 529.235 34.3042 529.317 34.4379C530.041 35.6075 531.028 36.8101 532.11 37.8917C533.192 38.9733 534.394 39.9604 535.564 40.6844C535.698 40.7672 535.833 40.8477 535.969 40.9252C535.833 41.0027 535.698 41.0832 535.564 41.1659C534.394 41.89 533.192 42.8771 532.11 43.9587C531.028 45.0403 530.041 46.2429 529.317 47.4125C529.235 47.5462 529.154 47.6812 529.077 47.8173C528.999 47.6812 528.919 47.5462 528.836 47.4125C528.112 46.2429 527.125 45.0403 526.043 43.9587C524.961 42.8771 523.759 41.89 522.589 41.1659C522.456 41.0832 522.321 41.0027 522.184 40.9252Z" stroke="#18181E" stroke-width="2" stroke-linecap="round"/>
<path d="M506.521 95.24C505.038 95.24 503.785 94.9413 502.761 94.344L503.417 93.016C504.42 93.56 505.476 93.832 506.585 93.832C508.238 93.832 509.065 93.1813 509.065 91.88C509.065 90.4933 508.062 89.8 506.057 89.8H504.505V88.408H506.041C507.78 88.408 508.649 87.7947 508.649 86.568C508.649 85.5013 507.961 84.968 506.585 84.968C505.572 84.968 504.558 85.2133 503.545 85.704L503.017 84.36C504.265 83.8267 505.508 83.56 506.745 83.56C509.049 83.56 510.201 84.4827 510.201 86.328C510.201 87.6187 509.593 88.4507 508.377 88.824C508.068 88.92 507.689 88.984 507.241 89.016V89.064C507.689 89.064 508.073 89.096 508.393 89.16C509.865 89.48 510.601 90.424 510.601 91.992C510.601 93.048 510.254 93.8533 509.561 94.408C508.878 94.9627 507.865 95.24 506.521 95.24ZM511.567 97.24V93.752H512.159C512.33 93.752 512.458 93.7733 512.543 93.816L512.559 93.8C512.548 93.6933 512.58 93.56 512.655 93.4C513.37 92.0667 513.727 90.6427 513.727 89.128V87.608H518.671V93.384C518.671 93.5227 518.644 93.6613 518.591 93.8L518.607 93.816C518.692 93.7733 518.842 93.752 519.055 93.752H519.519V97.24H518.287V95.384C518.287 95.2453 518.314 95.1067 518.367 94.968L518.351 94.952C518.255 94.9947 518.106 95.016 517.903 95.016H513.199C512.996 95.016 512.847 94.9947 512.751 94.952L512.735 94.968C512.788 95.0747 512.815 95.2133 512.815 95.384V97.24H511.567ZM513.855 93.832C513.962 93.7787 514.116 93.752 514.319 93.752H517.007C517.22 93.752 517.37 93.7733 517.455 93.816L517.471 93.8C517.418 93.6613 517.391 93.5227 517.391 93.384V89.192C517.391 89.0533 517.418 88.9147 517.471 88.776L517.455 88.76C517.37 88.8027 517.22 88.824 517.007 88.824H515.391C515.188 88.824 515.039 88.8027 514.943 88.76L514.927 88.776C514.98 88.8827 515.007 89.0213 515.007 89.192V89.64C515.007 90.376 514.89 91.1547 514.655 91.976C514.431 92.7867 514.159 93.3947 513.839 93.8L513.855 93.832ZM521.289 88.488C522.057 87.7413 523.022 87.368 524.185 87.368C525.348 87.368 526.308 87.7413 527.065 88.488C527.822 89.224 528.201 90.1627 528.201 91.304C528.201 92.4453 527.822 93.3893 527.065 94.136C526.308 94.872 525.348 95.24 524.185 95.24C523.022 95.24 522.057 94.872 521.289 94.136C520.532 93.3893 520.153 92.4453 520.153 91.304C520.153 90.1627 520.532 89.224 521.289 88.488ZM526.057 89.416C525.577 88.936 524.953 88.696 524.185 88.696C523.417 88.696 522.793 88.936 522.313 89.416C521.833 89.896 521.593 90.5253 521.593 91.304C521.593 92.0827 521.833 92.712 522.313 93.192C522.793 93.672 523.417 93.912 524.185 93.912C524.953 93.912 525.577 93.672 526.057 93.192C526.537 92.712 526.777 92.0827 526.777 91.304C526.777 90.5253 526.537 89.896 526.057 89.416ZM533.982 87.368C535.049 87.368 535.918 87.736 536.59 88.472C537.262 89.208 537.598 90.152 537.598 91.304C537.598 92.456 537.262 93.4 536.59 94.136C535.918 94.872 535.049 95.24 533.982 95.24C532.617 95.24 531.651 94.6267 531.086 93.4L531.022 93.416C531.129 93.7787 531.182 94.3013 531.182 94.984V98.2H529.822V87.608H531.134C531.134 88.3547 531.102 88.888 531.038 89.208L531.102 89.224C531.667 87.9867 532.627 87.368 533.982 87.368ZM533.726 88.648C532.958 88.648 532.329 88.8987 531.838 89.4C531.358 89.8907 531.118 90.5253 531.118 91.304C531.118 92.0933 531.358 92.7333 531.838 93.224C532.329 93.7147 532.963 93.96 533.742 93.96C534.489 93.96 535.081 93.7253 535.518 93.256C535.955 92.776 536.174 92.1253 536.174 91.304C536.174 90.4933 535.955 89.848 535.518 89.368C535.081 88.888 534.483 88.648 533.726 88.648ZM539.789 88.488C540.557 87.7413 541.522 87.368 542.685 87.368C543.848 87.368 544.808 87.7413 545.565 88.488C546.322 89.224 546.701 90.1627 546.701 91.304C546.701 92.4453 546.322 93.3893 545.565 94.136C544.808 94.872 543.848 95.24 542.685 95.24C541.522 95.24 540.557 94.872 539.789 94.136C539.032 93.3893 538.653 92.4453 538.653 91.304C538.653 90.1627 539.032 89.224 539.789 88.488ZM544.557 89.416C544.077 88.936 543.453 88.696 542.685 88.696C541.917 88.696 541.293 88.936 540.813 89.416C540.333 89.896 540.093 90.5253 540.093 91.304C540.093 92.0827 540.333 92.712 540.813 93.192C541.293 93.672 541.917 93.912 542.685 93.912C543.453 93.912 544.077 93.672 544.557 93.192C545.037 92.712 545.277 92.0827 545.277 91.304C545.277 90.5253 545.037 89.896 544.557 89.416ZM553.394 91.304C554.13 91.528 554.498 92.0827 554.498 92.968C554.498 93.5867 554.279 94.0827 553.842 94.456C553.405 94.8187 552.834 95 552.13 95H548.322V87.608H552.098C552.791 87.608 553.325 87.768 553.698 88.088C554.082 88.408 554.274 88.856 554.274 89.432C554.274 90.1573 553.986 90.6533 553.41 90.92C553.165 91.0373 552.85 91.1067 552.466 91.128V91.192C552.829 91.2027 553.138 91.24 553.394 91.304ZM549.602 88.792C549.655 88.8987 549.682 89.048 549.682 89.24V90.312C549.682 90.4613 549.655 90.6053 549.602 90.744L549.618 90.76C549.703 90.7173 549.847 90.696 550.05 90.696H551.602C551.975 90.696 552.263 90.6107 552.466 90.44C552.669 90.2587 552.77 90.0187 552.77 89.72C552.77 89.1333 552.407 88.84 551.682 88.84H550.066C549.853 88.84 549.703 88.8187 549.618 88.776L549.602 88.792ZM551.874 93.768C552.621 93.768 552.994 93.432 552.994 92.76C552.994 92.088 552.594 91.752 551.794 91.752H550.05C549.847 91.752 549.703 91.7253 549.618 91.672L549.602 91.688C549.655 91.8267 549.682 91.9707 549.682 92.12V93.4C549.682 93.5387 549.655 93.6773 549.602 93.816L549.618 93.832C549.703 93.7893 549.853 93.768 550.066 93.768H551.874ZM559.447 90.264C560.226 90.264 560.845 90.4773 561.303 90.904C561.762 91.32 561.991 91.896 561.991 92.632C561.991 93.3467 561.751 93.9227 561.271 94.36C560.802 94.7867 560.189 95 559.431 95H556.103V87.608H557.463V89.896C557.463 90.0347 557.437 90.1733 557.383 90.312L557.399 90.328C557.485 90.2853 557.629 90.264 557.831 90.264H559.447ZM562.647 87.608H564.007V95H562.647V87.608ZM559.335 93.736C559.719 93.736 560.018 93.64 560.231 93.448C560.455 93.256 560.567 92.9893 560.567 92.648C560.567 92.296 560.461 92.024 560.247 91.832C560.034 91.6293 559.73 91.528 559.335 91.528H557.831C557.629 91.528 557.485 91.5067 557.399 91.464L557.383 91.48C557.437 91.6187 557.463 91.7573 557.463 91.896V93.368C557.463 93.5067 557.437 93.6453 557.383 93.784L557.399 93.8C557.485 93.7573 557.634 93.736 557.847 93.736H559.335ZM571.75 84.52C571.75 85.2453 571.547 85.816 571.142 86.232C570.737 86.6373 570.209 86.84 569.558 86.84C568.897 86.84 568.363 86.6373 567.958 86.232C567.553 85.816 567.35 85.2453 567.35 84.52H568.326C568.358 85.4373 568.769 85.896 569.558 85.896C570.347 85.896 570.758 85.4373 570.79 84.52H571.75ZM566.15 95.112V87.608H567.51V90.808C567.51 91.512 567.483 92.1307 567.43 92.664L567.478 92.68C567.638 92.3493 567.915 91.976 568.31 91.56L572.23 87.496H572.63V95H571.286V91.8C571.286 91.096 571.313 90.4773 571.366 89.944L571.302 89.928C571.174 90.216 570.902 90.5893 570.486 91.048L566.566 95.112H566.15ZM505.463 106.608H512.439V107.872H510.007C509.793 107.872 509.644 107.851 509.559 107.808L509.543 107.824C509.596 107.931 509.623 108.069 509.623 108.24V114H508.279V108.24C508.279 108.069 508.305 107.931 508.359 107.824L508.343 107.808C508.257 107.851 508.108 107.872 507.895 107.872H505.463V106.608ZM513.75 107.488C514.518 106.741 515.483 106.368 516.646 106.368C517.809 106.368 518.769 106.741 519.526 107.488C520.283 108.224 520.662 109.163 520.662 110.304C520.662 111.445 520.283 112.389 519.526 113.136C518.769 113.872 517.809 114.24 516.646 114.24C515.483 114.24 514.518 113.872 513.75 113.136C512.993 112.389 512.614 111.445 512.614 110.304C512.614 109.163 512.993 108.224 513.75 107.488ZM518.518 108.416C518.038 107.936 517.414 107.696 516.646 107.696C515.878 107.696 515.254 107.936 514.774 108.416C514.294 108.896 514.054 109.525 514.054 110.304C514.054 111.083 514.294 111.712 514.774 112.192C515.254 112.672 515.878 112.912 516.646 112.912C517.414 112.912 518.038 112.672 518.518 112.192C518.998 111.712 519.238 111.083 519.238 110.304C519.238 109.525 518.998 108.896 518.518 108.416ZM527.675 106.608H529.035V114H527.675V111.04C527.675 110.869 527.702 110.731 527.755 110.624L527.739 110.608C527.654 110.651 527.504 110.672 527.291 110.672H524.011C523.808 110.672 523.664 110.651 523.579 110.608L523.563 110.624C523.616 110.731 523.643 110.869 523.643 111.04V114H522.283V106.608H523.643V109.04C523.643 109.221 523.616 109.365 523.563 109.472L523.579 109.488C523.664 109.445 523.808 109.424 524.011 109.424H527.291C527.504 109.424 527.654 109.445 527.739 109.488L527.755 109.472C527.702 109.365 527.675 109.221 527.675 109.04V106.608ZM541.585 114.048C540.774 114.048 540.273 113.712 540.081 113.04L539.713 111.712C539.606 111.339 539.467 111.077 539.297 110.928C539.137 110.768 538.902 110.688 538.593 110.688H537.841C537.617 110.688 537.451 110.677 537.345 110.656L537.329 110.672C537.382 110.907 537.409 111.131 537.409 111.344V114H536.049V106.608H537.409V108.976C537.409 109.168 537.382 109.381 537.329 109.616L537.345 109.632C537.451 109.611 537.617 109.6 537.841 109.6H538.593C538.913 109.6 539.147 109.536 539.297 109.408C539.446 109.28 539.59 109.029 539.729 108.656L540.273 107.36C540.475 106.827 540.945 106.56 541.681 106.56H542.417V107.776H542.049C541.814 107.776 541.638 107.819 541.521 107.904C541.403 107.989 541.297 108.144 541.201 108.368L540.913 109.152C540.678 109.781 540.15 110.101 539.329 110.112V110.176C539.798 110.187 540.145 110.267 540.369 110.416C540.603 110.555 540.774 110.795 540.881 111.136L541.217 112.272C541.281 112.496 541.361 112.645 541.457 112.72C541.563 112.795 541.745 112.832 542.001 112.832H542.433V114.048H541.585ZM544.141 107.488C544.909 106.741 545.874 106.368 547.037 106.368C548.199 106.368 549.159 106.741 549.917 107.488C550.674 108.224 551.053 109.163 551.053 110.304C551.053 111.445 550.674 112.389 549.917 113.136C549.159 113.872 548.199 114.24 547.037 114.24C545.874 114.24 544.909 113.872 544.141 113.136C543.383 112.389 543.005 111.445 543.005 110.304C543.005 109.163 543.383 108.224 544.141 107.488ZM548.909 108.416C548.429 107.936 547.805 107.696 547.037 107.696C546.269 107.696 545.645 107.936 545.165 108.416C544.685 108.896 544.445 109.525 544.445 110.304C544.445 111.083 544.685 111.712 545.165 112.192C545.645 112.672 546.269 112.912 547.037 112.912C547.805 112.912 548.429 112.672 548.909 112.192C549.389 111.712 549.629 111.083 549.629 110.304C549.629 109.525 549.389 108.896 548.909 108.416ZM551.359 114.048V112.864H551.791C552.025 112.864 552.201 112.821 552.319 112.736C552.436 112.651 552.527 112.496 552.591 112.272L552.911 111.136C553.081 110.507 553.599 110.187 554.463 110.176V110.112C553.609 110.08 553.087 109.76 552.895 109.152L552.607 108.368C552.511 108.133 552.404 107.973 552.287 107.888C552.169 107.792 551.993 107.744 551.759 107.744H551.375V106.56H552.111C552.815 106.56 553.279 106.827 553.503 107.36L554.031 108.656C554.169 109.029 554.313 109.28 554.463 109.408C554.623 109.536 554.863 109.6 555.183 109.6H555.455C555.657 109.6 555.823 109.611 555.951 109.632L555.967 109.616C555.913 109.445 555.887 109.232 555.887 108.976V106.608H557.167V108.976C557.167 109.232 557.14 109.445 557.087 109.616L557.103 109.632C557.231 109.611 557.396 109.6 557.599 109.6H557.871C558.191 109.6 558.425 109.536 558.575 109.408C558.735 109.28 558.884 109.029 559.023 108.656L559.551 107.36C559.775 106.827 560.239 106.56 560.943 106.56H561.663V107.744H561.295C561.06 107.744 560.884 107.792 560.767 107.888C560.649 107.973 560.543 108.133 560.447 108.368L560.159 109.152C559.967 109.76 559.444 110.08 558.591 110.112V110.176C559.039 110.187 559.38 110.267 559.615 110.416C559.86 110.555 560.036 110.795 560.143 111.136L560.463 112.272C560.527 112.496 560.617 112.651 560.735 112.736C560.852 112.821 561.028 112.864 561.263 112.864H561.695V114.048H560.847C560.057 114.048 559.567 113.712 559.375 113.04L558.991 111.712C558.884 111.339 558.745 111.077 558.575 110.928C558.415 110.768 558.18 110.688 557.871 110.688H557.599C557.396 110.688 557.231 110.677 557.103 110.656L557.087 110.672C557.14 110.843 557.167 111.067 557.167 111.344V114H555.887V111.344C555.887 111.067 555.913 110.843 555.967 110.672L555.951 110.656C555.823 110.677 555.657 110.688 555.455 110.688H555.183C554.873 110.688 554.633 110.768 554.463 110.928C554.303 111.077 554.169 111.339 554.063 111.712L553.679 113.04C553.487 113.712 552.996 114.048 552.207 114.048H551.359ZM563.064 114.112V106.608H564.424V109.808C564.424 110.512 564.398 111.131 564.344 111.664L564.392 111.68C564.552 111.349 564.83 110.976 565.224 110.56L569.144 106.496H569.544V114H568.2V110.8C568.2 110.096 568.227 109.477 568.28 108.944L568.216 108.928C568.088 109.216 567.816 109.589 567.4 110.048L563.48 114.112H563.064Z" fill="#18181E"/>
</svg>
