<svg width="280" height="98" viewBox="0 0 280 98" fill="none" xmlns="http://www.w3.org/2000/svg">
<rect x="0.65625" y="0.65625" width="40.6875" height="40.6875" rx="20.3438" stroke="#18181E" stroke-width="1.3125"/>
<circle cx="20.3762" cy="21.3117" r="1.21406" stroke="#18181E" stroke-width="1.3125"/>
<path d="M9.93359 17.1038C24.556 10.7763 30.3 15.8647 33.0008 22.1849M33.0008 22.1849C31.2546 20.648 28.4814 18.3667 24.0511 17.94M33.0008 22.1849C26.6167 25.9455 21.3971 26.2833 17.3863 25.3043M15.9191 19.0713C14.1834 19.6609 12.2966 20.4933 10.2453 21.6232C11.8813 22.9866 14.2686 24.5433 17.3863 25.3043M15.9191 19.0713C15.5798 19.745 15.3887 20.5062 15.3887 21.312C15.3887 22.9449 16.1734 24.3945 17.3863 25.3043M15.9191 19.0713C19.1141 17.9859 21.7971 17.7229 24.0511 17.94M24.0511 17.94C24.8662 18.8278 25.3637 20.0118 25.3637 21.312C25.3637 23.2217 24.2904 24.8807 22.7141 25.7187" stroke="#18181E" stroke-width="1.3125"/>
<circle cx="21" cy="21" r="14.4375" stroke="#18181E" stroke-width="1.3125" stroke-dasharray="2.62 2.62"/>
<path d="M55.82 9.044C56.7127 8.15133 57.848 7.705 59.226 7.705C60.604 7.705 61.7393 8.15133 62.632 9.044C63.5247 9.93667 63.971 11.072 63.971 12.45C63.971 13.828 63.5247 14.9633 62.632 15.856C61.7393 16.7487 60.604 17.195 59.226 17.195C57.848 17.195 56.7127 16.7487 55.82 15.856C54.9273 14.9633 54.481 13.828 54.481 12.45C54.481 11.072 54.9273 9.93667 55.82 9.044ZM61.722 9.902C61.072 9.23467 60.24 8.901 59.226 8.901C58.212 8.901 57.38 9.23467 56.73 9.902C56.08 10.5607 55.755 11.41 55.755 12.45C55.755 13.49 56.08 14.3437 56.73 15.011C57.38 15.6697 58.212 15.999 59.226 15.999C60.24 15.999 61.072 15.6697 61.722 15.011C62.372 14.3437 62.697 13.49 62.697 12.45C62.697 11.41 62.372 10.5607 61.722 9.902ZM64.5132 10.994H70.1812V12.021H68.2052C68.0319 12.021 67.9106 12.0037 67.8412 11.969L67.8282 11.982C67.8716 12.0687 67.8932 12.1813 67.8932 12.32V17H66.8012V12.32C66.8012 12.1813 66.8229 12.0687 66.8662 11.982L66.8532 11.969C66.7839 12.0037 66.6626 12.021 66.4892 12.021H64.5132V10.994ZM74.2759 10.994H79.9439V12.021H77.9679C77.7946 12.021 77.6733 12.0037 77.6039 11.969L77.5909 11.982C77.6343 12.0687 77.6559 12.1813 77.6559 12.32V17H76.5639V12.32C76.5639 12.1813 76.5856 12.0687 76.6289 11.982L76.6159 11.969C76.5466 12.0037 76.4253 12.021 76.2519 12.021H74.2759V10.994ZM83.1542 10.799C84.0382 10.799 84.7359 11.085 85.2472 11.657C85.7586 12.2203 86.0142 12.9917 86.0142 13.971V14.192H81.9062C81.5509 14.192 81.3126 14.1617 81.1912 14.101L81.1652 14.127L81.2172 14.27C81.2692 14.8593 81.4729 15.3187 81.8282 15.648C82.1836 15.9773 82.6516 16.142 83.2322 16.142C83.6136 16.142 83.9559 16.0683 84.2592 15.921C84.5626 15.7737 84.8659 15.5267 85.1692 15.18L85.8582 15.895C85.1736 16.7617 84.2939 17.195 83.2192 17.195C82.2746 17.195 81.5162 16.9047 80.9442 16.324C80.3722 15.7433 80.0862 14.9763 80.0862 14.023C80.0862 13.0437 80.3636 12.2637 80.9182 11.683C81.4816 11.0937 82.2269 10.799 83.1542 10.799ZM83.1152 11.8C82.5866 11.8 82.1532 11.9473 81.8152 12.242C81.4859 12.5367 81.2909 12.9397 81.2302 13.451L81.2432 13.464C81.4166 13.386 81.6419 13.347 81.9192 13.347H83.9862C84.4282 13.347 84.7142 13.3817 84.8442 13.451L84.8572 13.438C84.8226 12.918 84.6492 12.515 84.3372 12.229C84.0339 11.943 83.6266 11.8 83.1152 11.8ZM90.2912 17.078L89.0692 14.244C88.8526 13.75 88.7182 13.386 88.6662 13.152H88.6272C88.6099 13.3773 88.5232 13.7457 88.3672 14.257L87.4702 17H86.2872L88.4192 10.916H88.6922L90.1482 14.283C90.2696 14.569 90.3606 14.842 90.4212 15.102H90.4602C90.4949 14.8853 90.5859 14.6123 90.7332 14.283L92.1892 10.916H92.4622L94.5942 17H93.4112L92.5142 14.257C92.3582 13.7977 92.2716 13.4293 92.2542 13.152H92.2022C92.1589 13.3773 92.0289 13.7413 91.8122 14.244L90.5902 17.078H90.2912ZM99.9786 10.994H101.084V17H99.9786V14.595C99.9786 14.4563 100 14.3437 100.044 14.257L100.031 14.244C99.9612 14.2787 99.8399 14.296 99.6666 14.296H97.0016C96.8369 14.296 96.7199 14.2787 96.6506 14.244L96.6376 14.257C96.6809 14.3437 96.7026 14.4563 96.7026 14.595V17H95.5976V10.994H96.7026V12.97C96.7026 13.1173 96.6809 13.2343 96.6376 13.321L96.6506 13.334C96.7199 13.2993 96.8369 13.282 97.0016 13.282H99.6666C99.8399 13.282 99.9612 13.2993 100.031 13.334L100.044 13.321C100 13.2343 99.9786 13.1173 99.9786 12.97V10.994ZM105.538 13.152C106.171 13.152 106.674 13.3253 107.046 13.672C107.419 14.01 107.605 14.478 107.605 15.076C107.605 15.6567 107.41 16.1247 107.02 16.48C106.639 16.8267 106.141 17 105.525 17H102.821V10.994H103.926V12.853C103.926 12.9657 103.905 13.0783 103.861 13.191L103.874 13.204C103.944 13.1693 104.061 13.152 104.225 13.152H105.538ZM108.138 10.994H109.243V17H108.138V10.994ZM105.447 15.973C105.759 15.973 106.002 15.895 106.175 15.739C106.357 15.583 106.448 15.3663 106.448 15.089C106.448 14.803 106.362 14.582 106.188 14.426C106.015 14.2613 105.768 14.179 105.447 14.179H104.225C104.061 14.179 103.944 14.1617 103.874 14.127L103.861 14.14C103.905 14.2527 103.926 14.3653 103.926 14.478V15.674C103.926 15.7867 103.905 15.8993 103.861 16.012L103.874 16.025C103.944 15.9903 104.065 15.973 104.238 15.973H105.447ZM110.243 17L112.245 14.27C112.436 14.036 112.553 13.906 112.596 13.88V13.841C112.527 13.7977 112.414 13.672 112.258 13.464L110.49 10.994H111.803L112.791 12.385C113.069 12.7923 113.229 13.1087 113.272 13.334H113.324C113.368 13.1087 113.528 12.7923 113.805 12.385L114.793 10.994H116.093L114.338 13.464C114.182 13.672 114.065 13.7977 113.987 13.841V13.88C114.039 13.906 114.161 14.036 114.351 14.27L116.353 17H115.04L113.792 15.31C113.524 14.9373 113.368 14.6383 113.324 14.413H113.272C113.22 14.6557 113.064 14.9547 112.804 15.31L111.543 17H110.243ZM59.369 33.039C58.7103 33.039 58.303 32.766 58.147 32.22L57.848 31.141C57.7613 30.8377 57.6487 30.6253 57.51 30.504C57.38 30.374 57.1893 30.309 56.938 30.309H56.327C56.145 30.309 56.0107 30.3003 55.924 30.283L55.911 30.296C55.9543 30.4867 55.976 30.6687 55.976 30.842V33H54.871V26.994H55.976V28.918C55.976 29.074 55.9543 29.2473 55.911 29.438L55.924 29.451C56.0107 29.4337 56.145 29.425 56.327 29.425H56.938C57.198 29.425 57.3887 29.373 57.51 29.269C57.6313 29.165 57.7483 28.9613 57.861 28.658L58.303 27.605C58.4677 27.1717 58.849 26.955 59.447 26.955H60.045V27.943H59.746C59.5553 27.943 59.4123 27.9777 59.317 28.047C59.2217 28.1163 59.135 28.242 59.057 28.424L58.823 29.061C58.6323 29.5723 58.2033 29.8323 57.536 29.841V29.893C57.9173 29.9017 58.199 29.9667 58.381 30.088C58.5717 30.2007 58.7103 30.3957 58.797 30.673L59.07 31.596C59.122 31.778 59.187 31.8993 59.265 31.96C59.3517 32.0207 59.499 32.051 59.707 32.051H60.058V33.039H59.369ZM64.5606 26.799C65.4272 26.799 66.1336 27.098 66.6796 27.696C67.2256 28.294 67.4986 29.061 67.4986 29.997C67.4986 30.933 67.2256 31.7 66.6796 32.298C66.1336 32.896 65.4272 33.195 64.5606 33.195C63.4512 33.195 62.6669 32.6967 62.2076 31.7L62.1556 31.713C62.2422 32.0077 62.2856 32.4323 62.2856 32.987V35.6H61.1806V26.994H62.2466C62.2466 27.6007 62.2206 28.034 62.1686 28.294L62.2206 28.307C62.6799 27.3017 63.4599 26.799 64.5606 26.799ZM64.3526 27.839C63.7286 27.839 63.2172 28.0427 62.8186 28.45C62.4286 28.8487 62.2336 29.3643 62.2336 29.997C62.2336 30.6383 62.4286 31.1583 62.8186 31.557C63.2172 31.9557 63.7329 32.155 64.3656 32.155C64.9722 32.155 65.4532 31.9643 65.8086 31.583C66.1639 31.193 66.3416 30.6643 66.3416 29.997C66.3416 29.3383 66.1639 28.814 65.8086 28.424C65.4532 28.034 64.9679 27.839 64.3526 27.839ZM73.8231 26.994L70.1441 35.613H69.0001L70.3001 32.597L67.7521 26.994H69.0131L70.4821 30.452C70.6814 30.9113 70.7897 31.3143 70.8071 31.661H70.8591C70.8677 31.3577 70.9544 31.0067 71.1191 30.608L72.6271 26.994H73.8231ZM74.6757 33V26.994H78.5497V28.021H76.0927C75.9194 28.021 75.798 28.0037 75.7287 27.969L75.7157 27.982C75.759 28.0687 75.7807 28.1813 75.7807 28.32V33H74.6757ZM79.6127 27.709C80.2367 27.1023 81.0211 26.799 81.9657 26.799C82.9104 26.799 83.6904 27.1023 84.3057 27.709C84.9211 28.307 85.2287 29.0697 85.2287 29.997C85.2287 30.9243 84.9211 31.6913 84.3057 32.298C83.6904 32.896 82.9104 33.195 81.9657 33.195C81.0211 33.195 80.2367 32.896 79.6127 32.298C78.9974 31.6913 78.6897 30.9243 78.6897 29.997C78.6897 29.0697 78.9974 28.307 79.6127 27.709ZM83.4867 28.463C83.0967 28.073 82.5897 27.878 81.9657 27.878C81.3417 27.878 80.8347 28.073 80.4447 28.463C80.0547 28.853 79.8597 29.3643 79.8597 29.997C79.8597 30.6297 80.0547 31.141 80.4447 31.531C80.8347 31.921 81.3417 32.116 81.9657 32.116C82.5897 32.116 83.0967 31.921 83.4867 31.531C83.8767 31.141 84.0717 30.6297 84.0717 29.997C84.0717 29.3643 83.8767 28.853 83.4867 28.463ZM90.6668 29.997C91.2648 30.179 91.5638 30.6297 91.5638 31.349C91.5638 31.8517 91.3861 32.2547 91.0308 32.558C90.6755 32.8527 90.2118 33 89.6398 33H86.5458V26.994H89.6138C90.1771 26.994 90.6105 27.124 90.9138 27.384C91.2258 27.644 91.3818 28.008 91.3818 28.476C91.3818 29.0653 91.1478 29.4683 90.6798 29.685C90.4805 29.7803 90.2248 29.8367 89.9128 29.854V29.906C90.2075 29.9147 90.4588 29.945 90.6668 29.997ZM87.5858 27.956C87.6291 28.0427 87.6508 28.164 87.6508 28.32V29.191C87.6508 29.3123 87.6291 29.4293 87.5858 29.542L87.5988 29.555C87.6681 29.5203 87.7851 29.503 87.9498 29.503H89.2108C89.5141 29.503 89.7481 29.4337 89.9128 29.295C90.0775 29.1477 90.1598 28.9527 90.1598 28.71C90.1598 28.2333 89.8651 27.995 89.2758 27.995H87.9628C87.7895 27.995 87.6681 27.9777 87.5988 27.943L87.5858 27.956ZM89.4318 31.999C90.0385 31.999 90.3418 31.726 90.3418 31.18C90.3418 30.634 90.0168 30.361 89.3668 30.361H87.9498C87.7851 30.361 87.6681 30.3393 87.5988 30.296L87.5858 30.309C87.6291 30.4217 87.6508 30.5387 87.6508 30.66V31.7C87.6508 31.8127 87.6291 31.9253 87.5858 32.038L87.5988 32.051C87.6681 32.0163 87.7895 31.999 87.9628 31.999H89.4318Z" fill="#18181E"/>
<rect x="150.656" y="0.65625" width="40.6875" height="40.6875" rx="20.3438" stroke="#18181E" stroke-width="1.3125"/>
<path d="M169.031 19.1954L166.078 16.4885C165.972 16.4109 165.862 16.3369 165.75 16.2668C164.894 15.7314 163.881 15.4219 162.797 15.4219C159.716 15.4219 157.219 17.9193 157.219 21C157.219 24.0807 159.716 26.5781 162.797 26.5781C164.023 26.5781 165.094 26.25 166.078 25.5115L175.922 16.4885C176.843 15.8177 177.977 15.4219 179.203 15.4219C182.284 15.4219 184.781 17.9193 184.781 21C184.781 24.0807 182.284 26.5781 179.203 26.5781C177.977 26.5781 176.843 26.1823 175.922 25.5115L173.148 22.9688" stroke="#18181E" stroke-width="1.3125"/>
<path d="M204.143 25L208.394 15.705H208.524L212.775 25H211.462L210.331 22.452H206.587L205.456 25H204.143ZM206.912 21.477C207.068 21.4597 207.311 21.451 207.64 21.451H209.278C209.607 21.451 209.85 21.4597 210.006 21.477L210.019 21.464C209.889 21.2993 209.755 21.0523 209.616 20.723L208.81 18.825C208.619 18.331 208.511 17.9757 208.485 17.759H208.433C208.407 17.9757 208.299 18.331 208.108 18.825L207.302 20.723C207.163 21.0523 207.029 21.2993 206.899 21.464L206.912 21.477ZM217.059 18.799C217.761 18.799 218.298 19.0027 218.671 19.41C219.052 19.8173 219.243 20.3937 219.243 21.139V25H218.151V21.425C218.151 20.9137 218.025 20.5237 217.774 20.255C217.531 19.9863 217.18 19.852 216.721 19.852C216.14 19.852 215.69 20.0557 215.369 20.463C215.048 20.8617 214.888 21.4293 214.888 22.166V25H213.783V18.994H214.888C214.888 19.6093 214.845 20.1207 214.758 20.528L214.81 20.541C215.217 19.3797 215.967 18.799 217.059 18.799ZM222.404 15.783V18.448C222.404 18.7253 222.387 18.929 222.352 19.059L222.391 19.085C222.486 19.0243 222.651 18.994 222.885 18.994H223.574V20.034H222.885C222.634 20.034 222.469 20.0037 222.391 19.943L222.352 19.969C222.387 20.099 222.404 20.307 222.404 20.593V25H221.312V20.593C221.312 20.307 221.329 20.099 221.364 19.969L221.338 19.943C221.26 20.0037 221.091 20.034 220.831 20.034H220.207V18.994H220.831C221.074 18.994 221.243 19.0243 221.338 19.085L221.364 19.059C221.329 18.929 221.312 18.7253 221.312 18.448V16.563L222.339 15.783H222.404ZM225.973 15.9V17.603H224.725V15.9H225.973ZM225.895 18.994V25H224.79V18.994H225.895ZM231.156 20.97V22.036H227.386V20.97H231.156ZM235.002 18.799C235.86 18.799 236.488 18.994 236.887 19.384C237.294 19.774 237.498 20.385 237.498 21.217V25H236.38C236.38 24.662 236.432 24.324 236.536 23.986L236.497 23.96C236.046 24.7833 235.344 25.195 234.391 25.195C233.723 25.195 233.186 25 232.779 24.61C232.371 24.22 232.168 23.7087 232.168 23.076C232.168 22.426 232.371 21.9103 232.779 21.529C233.186 21.1477 233.728 20.957 234.404 20.957C235.374 20.957 236.068 21.321 236.484 22.049L236.523 22.023C236.471 21.8497 236.436 21.5507 236.419 21.126C236.384 20.2593 235.886 19.826 234.924 19.826C234.421 19.826 233.819 19.9387 233.117 20.164L232.805 19.163C233.559 18.9203 234.291 18.799 235.002 18.799ZM234.768 21.88C234.343 21.88 233.996 21.9927 233.728 22.218C233.468 22.4433 233.338 22.7337 233.338 23.089C233.338 23.453 233.468 23.7433 233.728 23.96C233.988 24.168 234.334 24.272 234.768 24.272C235.21 24.272 235.578 24.1593 235.873 23.934C236.167 23.7087 236.315 23.4227 236.315 23.076C236.315 22.7293 236.167 22.4433 235.873 22.218C235.578 21.9927 235.21 21.88 234.768 21.88ZM241.67 18.799C242.788 18.799 243.568 19.2973 244.01 20.294L244.062 20.281C243.984 20.047 243.945 19.618 243.945 18.994H245.037V24.792C245.037 26.794 243.953 27.795 241.787 27.795C240.764 27.795 239.884 27.5567 239.148 27.08L239.681 26.092C240.383 26.5253 241.093 26.742 241.813 26.742C242.471 26.742 242.996 26.5773 243.386 26.248C243.776 25.9273 243.971 25.4983 243.971 24.961V24.675C243.971 24.311 244.001 23.9903 244.062 23.713L244.01 23.7C243.559 24.688 242.779 25.182 241.67 25.182C240.803 25.182 240.097 24.8873 239.551 24.298C239.005 23.7087 238.732 22.9417 238.732 21.997C238.732 21.0523 239.005 20.2853 239.551 19.696C240.097 19.098 240.803 18.799 241.67 18.799ZM241.878 19.839C241.271 19.839 240.79 20.034 240.435 20.424C240.079 20.8053 239.902 21.3297 239.902 21.997C239.902 22.6643 240.075 23.193 240.422 23.583C240.777 23.9643 241.258 24.155 241.865 24.155C242.497 24.155 243.013 23.9557 243.412 23.557C243.81 23.1497 244.01 22.6297 244.01 21.997C244.01 21.3643 243.81 20.8487 243.412 20.45C243.013 20.0427 242.502 19.839 241.878 19.839ZM249.353 18.799C250.237 18.799 250.935 19.085 251.446 19.657C251.958 20.2203 252.213 20.9917 252.213 21.971V22.192H248.105C247.75 22.192 247.512 22.1617 247.39 22.101L247.364 22.127L247.416 22.27C247.468 22.8593 247.672 23.3187 248.027 23.648C248.383 23.9773 248.851 24.142 249.431 24.142C249.813 24.142 250.155 24.0683 250.458 23.921C250.762 23.7737 251.065 23.5267 251.368 23.18L252.057 23.895C251.373 24.7617 250.493 25.195 249.418 25.195C248.474 25.195 247.715 24.9047 247.143 24.324C246.571 23.7433 246.285 22.9763 246.285 22.023C246.285 21.0437 246.563 20.2637 247.117 19.683C247.681 19.0937 248.426 18.799 249.353 18.799ZM249.314 19.8C248.786 19.8 248.352 19.9473 248.014 20.242C247.685 20.5367 247.49 20.9397 247.429 21.451L247.442 21.464C247.616 21.386 247.841 21.347 248.118 21.347H250.185C250.627 21.347 250.913 21.3817 251.043 21.451L251.056 21.438C251.022 20.918 250.848 20.515 250.536 20.229C250.233 19.943 249.826 19.8 249.314 19.8Z" fill="#18181E"/>
<rect x="0.65625" y="56.6562" width="40.6875" height="40.6875" rx="20.3438" stroke="#18181E" stroke-width="1.3125"/>
<path d="M11.9496 72.1016V64.5312M11.9496 72.1016L13.9769 70.0234M11.9496 72.1016L9.92231 70.0234M30.0504 72.1016V64.5312M30.0504 72.1016L32.0777 70.0234M30.0504 72.1016L28.0231 70.0234M21.0724 81.8984L21.0724 89.4687M21.0724 81.8984L19.0451 83.9766M21.0724 81.8984L23.0997 83.9766M5.57812 76.1094C5.57812 76.1094 8.79936 74.625 11.8772 74.625C14.955 74.625 17.9946 76.1147 21.0724 76.1094C24.1225 76.1041 27.1451 74.625 30.1952 74.625C33.2453 74.625 36.4219 76.1094 36.4219 76.1094M5.57812 79.2266C5.57812 79.2266 8.79936 77.7422 11.8772 77.7422C14.955 77.7422 17.9946 79.2319 21.0724 79.2266C24.1225 79.2212 27.1451 77.7422 30.1952 77.7422C33.2453 77.7422 36.4219 79.2266 36.4219 79.2266" stroke="#18181E" stroke-width="1.3125"/>
<path d="M62.58 63.9V73H61.41V65.304C61.41 65.148 61.423 65.0397 61.449 64.979L61.423 64.953C61.345 64.9877 61.2367 65.005 61.098 65.005H57.315C57.1763 65.005 57.068 64.9877 56.99 64.953L56.964 64.979C56.99 65.0397 57.003 65.148 57.003 65.304V70.868C57.003 71.622 56.847 72.1767 56.535 72.532C56.2317 72.8873 55.755 73.065 55.105 73.065C54.871 73.065 54.611 73.0477 54.325 73.013V71.934C54.689 71.9513 54.9143 71.96 55.001 71.96C55.2957 71.96 55.508 71.882 55.638 71.726C55.768 71.5613 55.833 71.297 55.833 70.933V63.9H62.58ZM64.456 73.091V66.994H65.561V69.594C65.561 70.166 65.5393 70.6687 65.496 71.102L65.535 71.115C65.665 70.8463 65.8903 70.543 66.211 70.205L69.396 66.903H69.721V73H68.629V70.4C68.629 69.828 68.6506 69.3253 68.694 68.892L68.642 68.879C68.538 69.113 68.317 69.4163 67.979 69.789L64.794 73.091H64.456ZM75.5458 75.626V72.922C75.5458 72.4193 75.5804 71.986 75.6498 71.622L75.6108 71.609C75.2381 72.6663 74.5621 73.195 73.5828 73.195C72.8201 73.195 72.2134 72.909 71.7628 72.337C71.3121 71.7563 71.0868 70.9763 71.0868 69.997C71.0868 69.0177 71.3121 68.242 71.7628 67.67C72.2134 67.0893 72.8201 66.799 73.5828 66.799C74.5621 66.799 75.2381 67.3277 75.6108 68.385L75.6498 68.372C75.5804 68.008 75.5458 67.5747 75.5458 67.072V63.965H76.5858V67.072C76.5858 67.6353 76.5511 68.0687 76.4818 68.372L76.5208 68.385C76.9108 67.3277 77.5868 66.799 78.5488 66.799C79.3114 66.799 79.9181 67.0893 80.3688 67.67C80.8194 68.242 81.0448 69.0177 81.0448 69.997C81.0448 70.9763 80.8194 71.7563 80.3688 72.337C79.9181 72.909 79.3114 73.195 78.5488 73.195C77.5868 73.195 76.9108 72.6663 76.5208 71.609L76.4818 71.622C76.5511 71.9253 76.5858 72.3587 76.5858 72.922V75.626H75.5458ZM72.6988 71.583C72.9848 71.9643 73.3878 72.155 73.9078 72.155C74.4278 72.155 74.8394 71.96 75.1428 71.57C75.4461 71.18 75.5978 70.6557 75.5978 69.997C75.5978 69.3383 75.4461 68.814 75.1428 68.424C74.8394 68.034 74.4278 67.839 73.9078 67.839C73.3878 67.839 72.9848 68.0297 72.6988 68.411C72.4128 68.7923 72.2654 69.321 72.2568 69.997C72.2654 70.673 72.4128 71.2017 72.6988 71.583ZM77.0018 71.57C77.3051 71.96 77.7168 72.155 78.2368 72.155C78.7568 72.155 79.1598 71.9643 79.4458 71.583C79.7318 71.193 79.8791 70.6643 79.8878 69.997C79.8791 69.3297 79.7318 68.8053 79.4458 68.424C79.1598 68.034 78.7568 67.839 78.2368 67.839C77.7168 67.839 77.3051 68.034 77.0018 68.424C76.6984 68.814 76.5468 69.3383 76.5468 69.997C76.5468 70.6557 76.6984 71.18 77.0018 71.57ZM81.1822 66.994H86.8502V68.021H84.8742C84.7009 68.021 84.5795 68.0037 84.5102 67.969L84.4972 67.982C84.5405 68.0687 84.5622 68.1813 84.5622 68.32V73H83.4702V68.32C83.4702 68.1813 83.4919 68.0687 83.5352 67.982L83.5222 67.969C83.4529 68.0037 83.3315 68.021 83.1582 68.021H81.1822V66.994ZM87.7899 73.091V66.994H88.8949V69.594C88.8949 70.166 88.8733 70.6687 88.8299 71.102L88.8689 71.115C88.9989 70.8463 89.2243 70.543 89.5449 70.205L92.7299 66.903H93.0549V73H91.9629V70.4C91.9629 69.828 91.9846 69.3253 92.0279 68.892L91.9759 68.879C91.8719 69.113 91.6509 69.4163 91.3129 69.789L88.1279 73.091H87.7899ZM99.1788 66.994H100.284V73H99.1788V70.595C99.1788 70.4563 99.2004 70.3437 99.2438 70.257L99.2308 70.244C99.1614 70.2787 99.0401 70.296 98.8668 70.296H96.2018C96.0371 70.296 95.9201 70.2787 95.8508 70.244L95.8378 70.257C95.8811 70.3437 95.9028 70.4563 95.9028 70.595V73H94.7978V66.994H95.9028V68.97C95.9028 69.1173 95.8811 69.2343 95.8378 69.321L95.8508 69.334C95.9201 69.2993 96.0371 69.282 96.2018 69.282H98.8668C99.0401 69.282 99.1614 69.2993 99.2308 69.334L99.2438 69.321C99.2004 69.2343 99.1788 69.1173 99.1788 68.97V66.994ZM102.021 73V66.994H105.895V68.021H103.438C103.265 68.021 103.144 68.0037 103.074 67.969L103.061 67.982C103.105 68.0687 103.126 68.1813 103.126 68.32V73H102.021ZM56.6 89.195C55.7507 89.195 55.001 88.9957 54.351 88.597L54.832 87.648C55.404 87.9687 55.9847 88.129 56.574 88.129C57.0247 88.129 57.4103 88.0077 57.731 87.765C58.0603 87.5223 58.2727 87.2103 58.368 86.829C58.42 86.6297 58.472 86.4953 58.524 86.426L58.511 86.413C58.4157 86.4563 58.2987 86.478 58.16 86.478H55.885V85.516H58.16C58.2987 85.516 58.4157 85.5377 58.511 85.581L58.524 85.568C58.4633 85.4727 58.4113 85.3383 58.368 85.165C58.264 84.7837 58.0473 84.4717 57.718 84.229C57.3973 83.9863 57.016 83.865 56.574 83.865C55.9847 83.865 55.404 84.0253 54.832 84.346L54.351 83.397C55.001 82.9983 55.7507 82.799 56.6 82.799C57.536 82.799 58.2813 83.0937 58.836 83.683C59.3907 84.2637 59.668 85.035 59.668 85.997C59.668 86.959 59.3907 87.7347 58.836 88.324C58.2813 88.9047 57.536 89.195 56.6 89.195ZM65.1102 91.626V88.922C65.1102 88.4193 65.1449 87.986 65.2142 87.622L65.1752 87.609C64.8026 88.6663 64.1266 89.195 63.1472 89.195C62.3846 89.195 61.7779 88.909 61.3272 88.337C60.8766 87.7563 60.6512 86.9763 60.6512 85.997C60.6512 85.0177 60.8766 84.242 61.3272 83.67C61.7779 83.0893 62.3846 82.799 63.1472 82.799C64.1266 82.799 64.8026 83.3277 65.1752 84.385L65.2142 84.372C65.1449 84.008 65.1102 83.5747 65.1102 83.072V79.965H66.1502V83.072C66.1502 83.6353 66.1156 84.0687 66.0462 84.372L66.0852 84.385C66.4752 83.3277 67.1512 82.799 68.1132 82.799C68.8759 82.799 69.4826 83.0893 69.9332 83.67C70.3839 84.242 70.6092 85.0177 70.6092 85.997C70.6092 86.9763 70.3839 87.7563 69.9332 88.337C69.4826 88.909 68.8759 89.195 68.1132 89.195C67.1512 89.195 66.4752 88.6663 66.0852 87.609L66.0462 87.622C66.1156 87.9253 66.1502 88.3587 66.1502 88.922V91.626H65.1102ZM62.2632 87.583C62.5492 87.9643 62.9522 88.155 63.4722 88.155C63.9922 88.155 64.4039 87.96 64.7072 87.57C65.0106 87.18 65.1622 86.6557 65.1622 85.997C65.1622 85.3383 65.0106 84.814 64.7072 84.424C64.4039 84.034 63.9922 83.839 63.4722 83.839C62.9522 83.839 62.5492 84.0297 62.2632 84.411C61.9772 84.7923 61.8299 85.321 61.8212 85.997C61.8299 86.673 61.9772 87.2017 62.2632 87.583ZM66.5662 87.57C66.8696 87.96 67.2812 88.155 67.8012 88.155C68.3212 88.155 68.7242 87.9643 69.0102 87.583C69.2962 87.193 69.4436 86.6643 69.4522 85.997C69.4436 85.3297 69.2962 84.8053 69.0102 84.424C68.7242 84.034 68.3212 83.839 67.8012 83.839C67.2812 83.839 66.8696 84.034 66.5662 84.424C66.2629 84.814 66.1112 85.3383 66.1112 85.997C66.1112 86.6557 66.2629 87.18 66.5662 87.57ZM76.0536 91.626V88.922C76.0536 88.4193 76.0883 87.986 76.1576 87.622L76.1186 87.609C75.7459 88.6663 75.0699 89.195 74.0906 89.195C73.3279 89.195 72.7213 88.909 72.2706 88.337C71.8199 87.7563 71.5946 86.9763 71.5946 85.997C71.5946 85.0177 71.8199 84.242 72.2706 83.67C72.7213 83.0893 73.3279 82.799 74.0906 82.799C75.0699 82.799 75.7459 83.3277 76.1186 84.385L76.1576 84.372C76.0883 84.008 76.0536 83.5747 76.0536 83.072V79.965H77.0936V83.072C77.0936 83.6353 77.0589 84.0687 76.9896 84.372L77.0286 84.385C77.4186 83.3277 78.0946 82.799 79.0566 82.799C79.8193 82.799 80.4259 83.0893 80.8766 83.67C81.3273 84.242 81.5526 85.0177 81.5526 85.997C81.5526 86.9763 81.3273 87.7563 80.8766 88.337C80.4259 88.909 79.8193 89.195 79.0566 89.195C78.0946 89.195 77.4186 88.6663 77.0286 87.609L76.9896 87.622C77.0589 87.9253 77.0936 88.3587 77.0936 88.922V91.626H76.0536ZM73.2066 87.583C73.4926 87.9643 73.8956 88.155 74.4156 88.155C74.9356 88.155 75.3473 87.96 75.6506 87.57C75.9539 87.18 76.1056 86.6557 76.1056 85.997C76.1056 85.3383 75.9539 84.814 75.6506 84.424C75.3473 84.034 74.9356 83.839 74.4156 83.839C73.8956 83.839 73.4926 84.0297 73.2066 84.411C72.9206 84.7923 72.7733 85.321 72.7646 85.997C72.7733 86.673 72.9206 87.2017 73.2066 87.583ZM77.5096 87.57C77.8129 87.96 78.2246 88.155 78.7446 88.155C79.2646 88.155 79.6676 87.9643 79.9536 87.583C80.2396 87.193 80.3869 86.6643 80.3956 85.997C80.3869 85.3297 80.2396 84.8053 79.9536 84.424C79.6676 84.034 79.2646 83.839 78.7446 83.839C78.2246 83.839 77.8129 84.034 77.5096 84.424C77.2063 84.814 77.0546 85.3383 77.0546 85.997C77.0546 86.6557 77.2063 87.18 77.5096 87.57ZM85.5409 82.799C86.4249 82.799 87.1226 83.085 87.6339 83.657C88.1453 84.2203 88.4009 84.9917 88.4009 85.971V86.192H84.2929C83.9376 86.192 83.6993 86.1617 83.5779 86.101L83.5519 86.127L83.6039 86.27C83.6559 86.8593 83.8596 87.3187 84.2149 87.648C84.5703 87.9773 85.0383 88.142 85.6189 88.142C86.0003 88.142 86.3426 88.0683 86.6459 87.921C86.9493 87.7737 87.2526 87.5267 87.5559 87.18L88.2449 87.895C87.5603 88.7617 86.6806 89.195 85.6059 89.195C84.6613 89.195 83.9029 88.9047 83.3309 88.324C82.7589 87.7433 82.4729 86.9763 82.4729 86.023C82.4729 85.0437 82.7503 84.2637 83.3049 83.683C83.8683 83.0937 84.6136 82.799 85.5409 82.799ZM85.5019 83.8C84.9733 83.8 84.5399 83.9473 84.2019 84.242C83.8726 84.5367 83.6776 84.9397 83.6169 85.451L83.6299 85.464C83.8033 85.386 84.0286 85.347 84.3059 85.347H86.3729C86.8149 85.347 87.1009 85.3817 87.2309 85.451L87.2439 85.438C87.2093 84.918 87.0359 84.515 86.7239 84.229C86.4206 83.943 86.0133 83.8 85.5019 83.8ZM94.2176 89.039C93.559 89.039 93.1516 88.766 92.9956 88.22L92.6966 87.141C92.61 86.8377 92.4973 86.6253 92.3586 86.504C92.2286 86.374 92.038 86.309 91.7866 86.309H91.1756C90.9936 86.309 90.8593 86.3003 90.7726 86.283L90.7596 86.296C90.803 86.4867 90.8246 86.6687 90.8246 86.842V89H89.7196V82.994H90.8246V84.918C90.8246 85.074 90.803 85.2473 90.7596 85.438L90.7726 85.451C90.8593 85.4337 90.9936 85.425 91.1756 85.425H91.7866C92.0466 85.425 92.2373 85.373 92.3586 85.269C92.48 85.165 92.597 84.9613 92.7096 84.658L93.1516 83.605C93.3163 83.1717 93.6976 82.955 94.2956 82.955H94.8936V83.943H94.5946C94.404 83.943 94.261 83.9777 94.1656 84.047C94.0703 84.1163 93.9836 84.242 93.9056 84.424L93.6716 85.061C93.481 85.5723 93.052 85.8323 92.3846 85.841V85.893C92.766 85.9017 93.0476 85.9667 93.2296 86.088C93.4203 86.2007 93.559 86.3957 93.6456 86.673L93.9186 87.596C93.9706 87.778 94.0356 87.8993 94.1136 87.96C94.2003 88.0207 94.3476 88.051 94.5556 88.051H94.9066V89.039H94.2176ZM95.2232 82.994H100.891V84.021H98.9152C98.7419 84.021 98.6205 84.0037 98.5512 83.969L98.5382 83.982C98.5815 84.0687 98.6032 84.1813 98.6032 84.32V89H97.5112V84.32C97.5112 84.1813 97.5329 84.0687 97.5762 83.982L97.5632 83.969C97.4939 84.0037 97.3725 84.021 97.1992 84.021H95.2232V82.994Z" fill="#18181E"/>
<rect x="150.656" y="56.6562" width="40.6875" height="40.6875" rx="20.3438" stroke="#18181E" stroke-width="1.3125"/>
<g clip-path="url(#clip0_2592_481)">
<path d="M173.755 81.7824C173.123 80.0919 172.071 78.5222 170.774 77.225C169.477 75.9279 167.907 74.8765 166.217 74.2438C167.907 73.611 169.477 72.5596 170.774 71.2625C172.071 69.9653 173.123 68.3956 173.755 66.7051C174.388 68.3956 175.44 69.9653 176.737 71.2625C178.034 72.5596 179.604 73.611 181.294 74.2438C179.604 74.8765 178.034 75.9279 176.737 77.225C175.44 78.5222 174.388 80.0919 173.755 81.7824Z" stroke="#18181E" stroke-width="1.3125" stroke-miterlimit="6.39245" stroke-linecap="round"/>
<path d="M160.621 82.8576C160.71 82.8067 160.799 82.7539 160.886 82.6996C161.654 82.2245 162.443 81.5767 163.153 80.8669C163.863 80.1571 164.511 79.3679 164.986 78.6003C165.04 78.5126 165.093 78.424 165.144 78.3347C165.195 78.424 165.247 78.5126 165.302 78.6003C165.777 79.3679 166.425 80.1571 167.134 80.8669C167.844 81.5767 168.634 82.2245 169.401 82.6996C169.489 82.7539 169.577 82.8067 169.667 82.8576C169.577 82.9085 169.489 82.9613 169.401 83.0156C168.634 83.4908 167.844 84.1386 167.134 84.8484C166.425 85.5582 165.777 86.3474 165.302 87.1149C165.247 87.2027 165.195 87.2913 165.144 87.3806C165.093 87.2913 165.04 87.2027 164.986 87.1149C164.511 86.3474 163.863 85.5582 163.153 84.8484C162.443 84.1386 161.654 83.4908 160.886 83.0156C160.799 82.9613 160.71 82.9085 160.621 82.8576Z" stroke="#18181E" stroke-width="1.3125" stroke-linecap="round"/>
</g>
<path d="M207.432 73.195C206.227 73.195 205.209 72.9523 204.377 72.467L204.91 71.388C205.725 71.83 206.583 72.051 207.484 72.051C208.827 72.051 209.499 71.5223 209.499 70.465C209.499 69.3383 208.684 68.775 207.055 68.775H205.794V67.644H207.042C208.455 67.644 209.161 67.1457 209.161 66.149C209.161 65.2823 208.602 64.849 207.484 64.849C206.661 64.849 205.837 65.0483 205.014 65.447L204.585 64.355C205.599 63.9217 206.609 63.705 207.614 63.705C209.486 63.705 210.422 64.4547 210.422 65.954C210.422 67.0027 209.928 67.6787 208.94 67.982C208.689 68.06 208.381 68.112 208.017 68.138V68.177C208.381 68.177 208.693 68.203 208.953 68.255C210.149 68.515 210.747 69.282 210.747 70.556C210.747 71.414 210.465 72.0683 209.902 72.519C209.347 72.9697 208.524 73.195 207.432 73.195ZM211.532 74.82V71.986H212.013C212.152 71.986 212.256 72.0033 212.325 72.038L212.338 72.025C212.329 71.9383 212.355 71.83 212.416 71.7C212.997 70.6167 213.287 69.4597 213.287 68.229V66.994H217.304V71.687C217.304 71.7997 217.282 71.9123 217.239 72.025L217.252 72.038C217.321 72.0033 217.443 71.986 217.616 71.986H217.993V74.82H216.992V73.312C216.992 73.1993 217.014 73.0867 217.057 72.974L217.044 72.961C216.966 72.9957 216.845 73.013 216.68 73.013H212.858C212.693 73.013 212.572 72.9957 212.494 72.961L212.481 72.974C212.524 73.0607 212.546 73.1733 212.546 73.312V74.82H211.532ZM213.391 72.051C213.478 72.0077 213.603 71.986 213.768 71.986H215.952C216.125 71.986 216.247 72.0033 216.316 72.038L216.329 72.025C216.286 71.9123 216.264 71.7997 216.264 71.687V68.281C216.264 68.1683 216.286 68.0557 216.329 67.943L216.316 67.93C216.247 67.9647 216.125 67.982 215.952 67.982H214.639C214.474 67.982 214.353 67.9647 214.275 67.93L214.262 67.943C214.305 68.0297 214.327 68.1423 214.327 68.281V68.645C214.327 69.243 214.232 69.8757 214.041 70.543C213.859 71.2017 213.638 71.6957 213.378 72.025L213.391 72.051ZM219.431 67.709C220.055 67.1023 220.839 66.799 221.784 66.799C222.729 66.799 223.509 67.1023 224.124 67.709C224.739 68.307 225.047 69.0697 225.047 69.997C225.047 70.9243 224.739 71.6913 224.124 72.298C223.509 72.896 222.729 73.195 221.784 73.195C220.839 73.195 220.055 72.896 219.431 72.298C218.816 71.6913 218.508 70.9243 218.508 69.997C218.508 69.0697 218.816 68.307 219.431 67.709ZM223.305 68.463C222.915 68.073 222.408 67.878 221.784 67.878C221.16 67.878 220.653 68.073 220.263 68.463C219.873 68.853 219.678 69.3643 219.678 69.997C219.678 70.6297 219.873 71.141 220.263 71.531C220.653 71.921 221.16 72.116 221.784 72.116C222.408 72.116 222.915 71.921 223.305 71.531C223.695 71.141 223.89 70.6297 223.89 69.997C223.89 69.3643 223.695 68.853 223.305 68.463ZM229.744 66.799C230.611 66.799 231.317 67.098 231.863 67.696C232.409 68.294 232.682 69.061 232.682 69.997C232.682 70.933 232.409 71.7 231.863 72.298C231.317 72.896 230.611 73.195 229.744 73.195C228.635 73.195 227.85 72.6967 227.391 71.7L227.339 71.713C227.426 72.0077 227.469 72.4323 227.469 72.987V75.6H226.364V66.994H227.43C227.43 67.6007 227.404 68.034 227.352 68.294L227.404 68.307C227.863 67.3017 228.643 66.799 229.744 66.799ZM229.536 67.839C228.912 67.839 228.401 68.0427 228.002 68.45C227.612 68.8487 227.417 69.3643 227.417 69.997C227.417 70.6383 227.612 71.1583 228.002 71.557C228.401 71.9557 228.916 72.155 229.549 72.155C230.156 72.155 230.637 71.9643 230.992 71.583C231.347 71.193 231.525 70.6643 231.525 69.997C231.525 69.3383 231.347 68.814 230.992 68.424C230.637 68.034 230.151 67.839 229.536 67.839ZM234.462 67.709C235.086 67.1023 235.871 66.799 236.815 66.799C237.76 66.799 238.54 67.1023 239.155 67.709C239.771 68.307 240.078 69.0697 240.078 69.997C240.078 70.9243 239.771 71.6913 239.155 72.298C238.54 72.896 237.76 73.195 236.815 73.195C235.871 73.195 235.086 72.896 234.462 72.298C233.847 71.6913 233.539 70.9243 233.539 69.997C233.539 69.0697 233.847 68.307 234.462 67.709ZM238.336 68.463C237.946 68.073 237.439 67.878 236.815 67.878C236.191 67.878 235.684 68.073 235.294 68.463C234.904 68.853 234.709 69.3643 234.709 69.997C234.709 70.6297 234.904 71.141 235.294 71.531C235.684 71.921 236.191 72.116 236.815 72.116C237.439 72.116 237.946 71.921 238.336 71.531C238.726 71.141 238.921 70.6297 238.921 69.997C238.921 69.3643 238.726 68.853 238.336 68.463ZM245.516 69.997C246.114 70.179 246.413 70.6297 246.413 71.349C246.413 71.8517 246.236 72.2547 245.88 72.558C245.525 72.8527 245.061 73 244.489 73H241.395V66.994H244.463C245.027 66.994 245.46 67.124 245.763 67.384C246.075 67.644 246.231 68.008 246.231 68.476C246.231 69.0653 245.997 69.4683 245.529 69.685C245.33 69.7803 245.074 69.8367 244.762 69.854V69.906C245.057 69.9147 245.308 69.945 245.516 69.997ZM242.435 67.956C242.479 68.0427 242.5 68.164 242.5 68.32V69.191C242.5 69.3123 242.479 69.4293 242.435 69.542L242.448 69.555C242.518 69.5203 242.635 69.503 242.799 69.503H244.06C244.364 69.503 244.598 69.4337 244.762 69.295C244.927 69.1477 245.009 68.9527 245.009 68.71C245.009 68.2333 244.715 67.995 244.125 67.995H242.812C242.639 67.995 242.518 67.9777 242.448 67.943L242.435 67.956ZM244.281 71.999C244.888 71.999 245.191 71.726 245.191 71.18C245.191 70.634 244.866 70.361 244.216 70.361H242.799C242.635 70.361 242.518 70.3393 242.448 70.296L242.435 70.309C242.479 70.4217 242.5 70.5387 242.5 70.66V71.7C242.5 71.8127 242.479 71.9253 242.435 72.038L242.448 72.051C242.518 72.0163 242.639 71.999 242.812 71.999H244.281ZM250.435 69.152C251.067 69.152 251.57 69.3253 251.943 69.672C252.315 70.01 252.502 70.478 252.502 71.076C252.502 71.6567 252.307 72.1247 251.917 72.48C251.535 72.8267 251.037 73 250.422 73H247.718V66.994H248.823V68.853C248.823 68.9657 248.801 69.0783 248.758 69.191L248.771 69.204C248.84 69.1693 248.957 69.152 249.122 69.152H250.435ZM253.035 66.994H254.14V73H253.035V66.994ZM250.344 71.973C250.656 71.973 250.898 71.895 251.072 71.739C251.254 71.583 251.345 71.3663 251.345 71.089C251.345 70.803 251.258 70.582 251.085 70.426C250.911 70.2613 250.664 70.179 250.344 70.179H249.122C248.957 70.179 248.84 70.1617 248.771 70.127L248.758 70.14C248.801 70.2527 248.823 70.3653 248.823 70.478V71.674C248.823 71.7867 248.801 71.8993 248.758 72.012L248.771 72.025C248.84 71.9903 248.961 71.973 249.135 71.973H250.344ZM260.431 64.485C260.431 65.0743 260.266 65.538 259.937 65.876C259.607 66.2053 259.178 66.37 258.65 66.37C258.112 66.37 257.679 66.2053 257.35 65.876C257.02 65.538 256.856 65.0743 256.856 64.485H257.649C257.675 65.2303 258.008 65.603 258.65 65.603C259.291 65.603 259.625 65.2303 259.651 64.485H260.431ZM255.881 73.091V66.994H256.986V69.594C256.986 70.166 256.964 70.6687 256.921 71.102L256.96 71.115C257.09 70.8463 257.315 70.543 257.636 70.205L260.821 66.903H261.146V73H260.054V70.4C260.054 69.828 260.075 69.3253 260.119 68.892L260.067 68.879C259.963 69.113 259.742 69.4163 259.404 69.789L256.219 73.091H255.881ZM204.065 82.994H209.733V84.021H207.757C207.584 84.021 207.462 84.0037 207.393 83.969L207.38 83.982C207.423 84.0687 207.445 84.1813 207.445 84.32V89H206.353V84.32C206.353 84.1813 206.375 84.0687 206.418 83.982L206.405 83.969C206.336 84.0037 206.214 84.021 206.041 84.021H204.065V82.994ZM210.798 83.709C211.422 83.1023 212.207 82.799 213.151 82.799C214.096 82.799 214.876 83.1023 215.491 83.709C216.107 84.307 216.414 85.0697 216.414 85.997C216.414 86.9243 216.107 87.6913 215.491 88.298C214.876 88.896 214.096 89.195 213.151 89.195C212.207 89.195 211.422 88.896 210.798 88.298C210.183 87.6913 209.875 86.9243 209.875 85.997C209.875 85.0697 210.183 84.307 210.798 83.709ZM214.672 84.463C214.282 84.073 213.775 83.878 213.151 83.878C212.527 83.878 212.02 84.073 211.63 84.463C211.24 84.853 211.045 85.3643 211.045 85.997C211.045 86.6297 211.24 87.141 211.63 87.531C212.02 87.921 212.527 88.116 213.151 88.116C213.775 88.116 214.282 87.921 214.672 87.531C215.062 87.141 215.257 86.6297 215.257 85.997C215.257 85.3643 215.062 84.853 214.672 84.463ZM222.112 82.994H223.217V89H222.112V86.595C222.112 86.4563 222.134 86.3437 222.177 86.257L222.164 86.244C222.095 86.2787 221.974 86.296 221.8 86.296H219.135C218.971 86.296 218.854 86.2787 218.784 86.244L218.771 86.257C218.815 86.3437 218.836 86.4563 218.836 86.595V89H217.731V82.994H218.836V84.97C218.836 85.1173 218.815 85.2343 218.771 85.321L218.784 85.334C218.854 85.2993 218.971 85.282 219.135 85.282H221.8C221.974 85.282 222.095 85.2993 222.164 85.334L222.177 85.321C222.134 85.2343 222.112 85.1173 222.112 84.97V82.994ZM233.414 89.039C232.755 89.039 232.348 88.766 232.192 88.22L231.893 87.141C231.806 86.8377 231.694 86.6253 231.555 86.504C231.425 86.374 231.234 86.309 230.983 86.309H230.372C230.19 86.309 230.056 86.3003 229.969 86.283L229.956 86.296C229.999 86.4867 230.021 86.6687 230.021 86.842V89H228.916V82.994H230.021V84.918C230.021 85.074 229.999 85.2473 229.956 85.438L229.969 85.451C230.056 85.4337 230.19 85.425 230.372 85.425H230.983C231.243 85.425 231.434 85.373 231.555 85.269C231.676 85.165 231.793 84.9613 231.906 84.658L232.348 83.605C232.513 83.1717 232.894 82.955 233.492 82.955H234.09V83.943H233.791C233.6 83.943 233.457 83.9777 233.362 84.047C233.267 84.1163 233.18 84.242 233.102 84.424L232.868 85.061C232.677 85.5723 232.248 85.8323 231.581 85.841V85.893C231.962 85.9017 232.244 85.9667 232.426 86.088C232.617 86.2007 232.755 86.3957 232.842 86.673L233.115 87.596C233.167 87.778 233.232 87.8993 233.31 87.96C233.397 88.0207 233.544 88.051 233.752 88.051H234.103V89.039H233.414ZM235.491 83.709C236.115 83.1023 236.899 82.799 237.844 82.799C238.788 82.799 239.568 83.1023 240.184 83.709C240.799 84.307 241.107 85.0697 241.107 85.997C241.107 86.9243 240.799 87.6913 240.184 88.298C239.568 88.896 238.788 89.195 237.844 89.195C236.899 89.195 236.115 88.896 235.491 88.298C234.875 87.6913 234.568 86.9243 234.568 85.997C234.568 85.0697 234.875 84.307 235.491 83.709ZM239.365 84.463C238.975 84.073 238.468 83.878 237.844 83.878C237.22 83.878 236.713 84.073 236.323 84.463C235.933 84.853 235.738 85.3643 235.738 85.997C235.738 86.6297 235.933 87.141 236.323 87.531C236.713 87.921 237.22 88.116 237.844 88.116C238.468 88.116 238.975 87.921 239.365 87.531C239.755 87.141 239.95 86.6297 239.95 85.997C239.95 85.3643 239.755 84.853 239.365 84.463ZM241.355 89.039V88.077H241.706C241.897 88.077 242.04 88.0423 242.135 87.973C242.231 87.9037 242.304 87.778 242.356 87.596L242.616 86.673C242.755 86.1617 243.175 85.9017 243.877 85.893V85.841C243.184 85.815 242.759 85.555 242.603 85.061L242.369 84.424C242.291 84.2333 242.205 84.1033 242.109 84.034C242.014 83.956 241.871 83.917 241.68 83.917H241.368V82.955H241.966C242.538 82.955 242.915 83.1717 243.097 83.605L243.526 84.658C243.639 84.9613 243.756 85.165 243.877 85.269C244.007 85.373 244.202 85.425 244.462 85.425H244.683C244.848 85.425 244.982 85.4337 245.086 85.451L245.099 85.438C245.056 85.2993 245.034 85.126 245.034 84.918V82.994H246.074V84.918C246.074 85.126 246.053 85.2993 246.009 85.438L246.022 85.451C246.126 85.4337 246.261 85.425 246.425 85.425H246.646C246.906 85.425 247.097 85.373 247.218 85.269C247.348 85.165 247.47 84.9613 247.582 84.658L248.011 83.605C248.193 83.1717 248.57 82.955 249.142 82.955H249.727V83.917H249.428C249.238 83.917 249.095 83.956 248.999 84.034C248.904 84.1033 248.817 84.2333 248.739 84.424L248.505 85.061C248.349 85.555 247.925 85.815 247.231 85.841V85.893C247.595 85.9017 247.873 85.9667 248.063 86.088C248.263 86.2007 248.406 86.3957 248.492 86.673L248.752 87.596C248.804 87.778 248.878 87.9037 248.973 87.973C249.069 88.0423 249.212 88.077 249.402 88.077H249.753V89.039H249.064C248.423 89.039 248.024 88.766 247.868 88.22L247.556 87.141C247.47 86.8377 247.357 86.6253 247.218 86.504C247.088 86.374 246.898 86.309 246.646 86.309H246.425C246.261 86.309 246.126 86.3003 246.022 86.283L246.009 86.296C246.053 86.4347 246.074 86.6167 246.074 86.842V89H245.034V86.842C245.034 86.6167 245.056 86.4347 245.099 86.296L245.086 86.283C244.982 86.3003 244.848 86.309 244.683 86.309H244.462C244.211 86.309 244.016 86.374 243.877 86.504C243.747 86.6253 243.639 86.8377 243.552 87.141L243.24 88.22C243.084 88.766 242.686 89.039 242.044 89.039H241.355ZM250.866 89.091V82.994H251.971V85.594C251.971 86.166 251.949 86.6687 251.906 87.102L251.945 87.115C252.075 86.8463 252.3 86.543 252.621 86.205L255.806 82.903H256.131V89H255.039V86.4C255.039 85.828 255.061 85.3253 255.104 84.892L255.052 84.879C254.948 85.113 254.727 85.4163 254.389 85.789L251.204 89.091H250.866Z" fill="#18181E"/>
<defs>
<clipPath id="clip0_2592_481">
<rect width="27.5625" height="27.5625" fill="white" transform="translate(157.219 63.2188)"/>
</clipPath>
</defs>
</svg>
