<svg width="290" height="122" viewBox="0 0 290 122" fill="none" xmlns="http://www.w3.org/2000/svg">
<path d="M85.5716 82.5137V98.6384H73.2977V119.052H56.702V98.6384H0V84.5721L57.2206 3.26242H73.2977V82.5137H85.5716ZM18.3244 82.5137H56.702V28.8218H56.0105L18.3244 82.5137Z" fill="#18181E"/>
<path d="M290 82.5137V98.6384H277.726V119.052H261.13V98.6384H204.428V84.5721L261.649 3.26242H277.726V82.5137H290ZM222.753 82.5137H261.13V28.8218H260.439L222.753 82.5137Z" fill="#18181E"/>
<path d="M183.363 15.767C178.343 15.7836 173.528 17.7758 169.973 21.3072C166.418 24.8386 164.412 29.6212 164.395 34.6075L164.375 47.1478L149.258 47.1717L149.278 34.6313C149.285 29.2654 150.578 23.9742 153.048 19.1946C155.519 14.4151 159.098 10.2844 163.488 7.14363C167.878 4.00291 172.955 1.9423 178.298 1.13199C183.641 0.321686 189.097 0.784931 194.216 2.48347L189.342 16.7146C187.417 16.0679 185.398 15.7367 183.363 15.734M183.303 53.5201C188.323 53.5035 193.138 51.5113 196.693 47.9799C200.249 44.4485 202.254 39.6659 202.271 34.6797C202.268 32.6591 201.935 30.6534 201.284 28.7411L215.645 23.7683C217.362 28.8547 217.833 34.2779 217.02 39.5892C216.208 44.9005 214.134 49.9474 210.971 54.3123C207.809 58.6773 203.647 62.2349 198.832 64.691C194.016 67.1471 188.685 68.431 183.279 68.4366L130.119 68.5205C126.373 68.5264 122.71 69.6354 119.592 71.7073C116.475 73.7791 114.043 76.7208 112.604 80.1602C111.165 83.5997 110.784 87.3824 111.509 91.0302C112.233 94.6779 114.032 98.0268 116.676 100.653C119.32 103.28 122.692 105.066 126.365 105.786C130.037 106.506 133.846 106.128 137.308 104.698C140.771 103.269 143.733 100.854 145.819 97.7569C147.905 94.6602 149.021 91.0216 149.027 87.3012L149.047 74.7608L164.198 74.7369L164.178 87.2773C164.187 93.9772 162.192 100.535 158.447 106.12C154.702 111.704 149.376 116.063 143.143 118.645C136.91 121.226 130.051 121.913 123.437 120.619C116.823 119.324 110.751 116.107 105.991 111.375C101.231 106.642 97.998 100.608 96.7014 94.0372C95.4049 87.4662 96.1033 80.6547 98.7083 74.4662C101.313 68.2778 105.707 62.9913 111.333 59.2771C116.959 55.5629 123.564 53.5883 130.309 53.6038L183.303 53.5201Z" fill="#18181E"/>
</svg>
