<svg width="225" height="175" viewBox="0 0 225 175" fill="none" xmlns="http://www.w3.org/2000/svg">
<path d="M0.000488281 45.0008L30.0005 0.000762961L37.5005 5.00076L7.50049 50.0008L0.000488281 45.0008ZM11.2505 52.5008L41.2505 7.50076L48.7505 12.5008L18.7505 57.5008L11.2505 52.5008ZM22.5005 60.0008L52.5005 15.0008L60.0005 20.0008L30.0005 65.0008L22.5005 60.0008Z" fill="black"/>
<path fill-rule="evenodd" clip-rule="evenodd" d="M211.307 150.539L225 130L217.5 125L203.807 145.539L211.307 150.539ZM200.057 143.039L213.75 122.5L206.25 117.5L192.557 138.039L200.057 143.039ZM189.943 141.96L197.443 146.96L183.75 167.5L176.25 162.5L189.943 141.96ZM188.807 135.539L202.5 115L195 110L181.307 130.539L188.807 135.539ZM178.693 134.46L186.193 139.46L172.5 160L165 155L178.693 134.46ZM201.193 149.46L208.693 154.46L195 175L187.5 170L201.193 149.46Z" fill="black"/>
<path d="M67.5002 57.499C75.4567 45.5643 87.8284 37.2791 101.894 34.466C115.959 31.653 130.566 34.5425 142.5 42.499C154.435 50.4555 162.72 62.8272 165.533 76.8924C168.346 90.9576 165.457 105.564 157.5 117.499L67.5002 57.499Z" fill="#CD2E3A"/>
<path d="M67.5005 57.4979C59.544 69.4327 56.6544 84.0393 59.4675 98.1045C62.2805 112.17 70.5657 124.541 82.5005 132.498C94.4352 140.454 109.042 143.344 123.107 140.531C137.172 137.718 149.544 129.433 157.5 117.498C161.479 111.531 162.924 104.227 161.517 97.1946C160.11 90.162 155.968 83.9762 150 79.9979C144.033 76.0197 136.73 74.5749 129.697 75.9814C122.665 77.3879 116.479 81.5305 112.5 87.4979L67.5005 57.4979Z" fill="#0047A0"/>
<path d="M112.5 87.4976C120.785 75.0712 117.427 58.2819 105 49.9976C92.5741 41.7133 75.7848 45.0712 67.5005 57.4976C59.2162 69.924 62.5741 86.7133 75.0005 94.9976C87.4269 103.282 104.216 99.924 112.5 87.4976Z" fill="#CD2E3A"/>
<path fill-rule="evenodd" clip-rule="evenodd" d="M30.0002 174.999L0.000247345 129.999L7.50025 124.999L37.5002 169.999L30.0002 174.999ZM25.0002 143.124L11.2502 122.499L18.7502 117.499L32.5002 138.124L25.0002 143.124ZM27.5002 146.874L41.2502 167.499L48.7502 162.499L35.0002 141.874L27.5002 146.874ZM52.5002 159.999L22.5002 114.999L30.0002 109.999L60.0002 154.999L52.5002 159.999Z" fill="black"/>
<path d="M178.749 40.6246L165 19.9997L172.5 14.9997L186.249 35.6246L178.749 40.6246Z" fill="black"/>
<path d="M195 64.9997L181.249 44.3746L188.749 39.3746L202.499 59.9997L195 64.9997Z" fill="black"/>
<path d="M206.249 57.4997L176.25 12.4997L183.75 7.4997L213.75 52.4997L206.249 57.4997Z" fill="black"/>
<path d="M201.249 25.6246L187.5 4.9997L195 -0.000297023L208.749 20.6246L201.249 25.6246Z" fill="black"/>
<path d="M217.5 49.9997L203.749 29.3746L211.249 24.3746L225 44.9997L217.5 49.9997Z" fill="black"/>
</svg>
