<svg width="489" height="176" viewBox="0 0 489 176" fill="none" xmlns="http://www.w3.org/2000/svg">
<path d="M479.316 171.426V160.33H481.327V165.061C481.327 166.102 481.288 167.017 481.209 167.806L481.28 167.829C481.517 167.341 481.927 166.788 482.51 166.173L488.307 160.164H488.898V171.26H486.911V166.528C486.911 165.487 486.95 164.572 487.029 163.784L486.934 163.76C486.745 164.186 486.343 164.738 485.728 165.416L479.932 171.426H479.316Z" fill="#6B6B79"/>
<path d="M475.784 171.331C474.585 171.331 473.844 170.834 473.56 169.841L473.015 167.877C472.858 167.325 472.653 166.938 472.4 166.718C472.164 166.481 471.817 166.363 471.359 166.363H470.247C469.916 166.363 469.672 166.347 469.514 166.315L469.49 166.339C469.569 166.686 469.609 167.017 469.609 167.333V171.26H467.598V160.33H469.609V163.831C469.609 164.115 469.569 164.431 469.49 164.778L469.514 164.801C469.672 164.77 469.916 164.754 470.247 164.754H471.359C471.833 164.754 472.18 164.659 472.4 164.47C472.621 164.281 472.834 163.91 473.039 163.358L473.844 161.442C474.143 160.653 474.837 160.259 475.925 160.259H477.014V162.057H476.47C476.123 162.057 475.862 162.12 475.689 162.246C475.515 162.372 475.358 162.601 475.216 162.932L474.79 164.091C474.443 165.022 473.662 165.495 472.448 165.511V165.606C473.142 165.621 473.654 165.74 473.985 165.961C474.332 166.166 474.585 166.52 474.743 167.025L475.239 168.705C475.334 169.036 475.452 169.257 475.594 169.367C475.752 169.478 476.02 169.533 476.399 169.533H477.037V171.331H475.784Z" fill="#6B6B79"/>
<path d="M454.609 171.426V160.33H456.62V165.061C456.62 166.102 456.581 167.017 456.502 167.806L456.573 167.829C456.81 167.341 457.22 166.788 457.803 166.173L463.6 160.164H464.191V171.26H462.204V166.528C462.204 165.487 462.243 164.572 462.322 163.784L462.227 163.76C462.038 164.186 461.636 164.738 461.021 165.416L455.224 171.426H454.609Z" fill="#6B6B79"/>
<path d="M442.348 160.33H452.663V162.199H449.067C448.751 162.199 448.53 162.168 448.404 162.104L448.381 162.128C448.459 162.286 448.499 162.491 448.499 162.743V171.26H446.512V162.743C446.512 162.491 446.551 162.286 446.63 162.128L446.606 162.104C446.48 162.168 446.259 162.199 445.944 162.199H442.348V160.33Z" fill="#6B6B79"/>
<path d="M436.732 159.974C438.341 159.974 439.61 160.494 440.541 161.535C441.471 162.56 441.937 163.964 441.937 165.746V166.149H434.461C433.814 166.149 433.38 166.093 433.159 165.983L433.112 166.03L433.207 166.29C433.301 167.363 433.672 168.199 434.319 168.798C434.965 169.398 435.817 169.697 436.874 169.697C437.568 169.697 438.191 169.563 438.743 169.295C439.295 169.027 439.847 168.577 440.399 167.947L441.653 169.248C440.407 170.825 438.806 171.614 436.85 171.614C435.131 171.614 433.751 171.085 432.71 170.029C431.669 168.972 431.148 167.576 431.148 165.841C431.148 164.059 431.653 162.639 432.663 161.582C433.688 160.51 435.044 159.974 436.732 159.974ZM436.661 161.795C435.699 161.795 434.91 162.063 434.295 162.6C433.696 163.136 433.341 163.869 433.23 164.8L433.254 164.824C433.569 164.682 433.98 164.611 434.484 164.611H438.246C439.05 164.611 439.571 164.674 439.807 164.8L439.831 164.776C439.768 163.83 439.453 163.097 438.885 162.576C438.333 162.056 437.591 161.795 436.661 161.795Z" fill="#6B6B79"/>
<path d="M422.615 171.401L420.391 166.243C419.997 165.344 419.752 164.682 419.658 164.256H419.587C419.555 164.666 419.397 165.336 419.113 166.267L417.481 171.259H415.328L419.208 160.187H419.705L422.355 166.314C422.576 166.835 422.741 167.331 422.852 167.805H422.923C422.986 167.41 423.151 166.913 423.419 166.314L426.069 160.187H426.566L430.446 171.259H428.293L426.661 166.267C426.377 165.431 426.219 164.761 426.187 164.256H426.093C426.014 164.666 425.777 165.328 425.383 166.243L423.159 171.401H422.615Z" fill="#6B6B79"/>
<path d="M410.486 171.614C408.703 171.614 407.26 171.077 406.156 170.005C405.052 168.917 404.5 167.513 404.5 165.794C404.5 164.074 405.052 162.679 406.156 161.606C407.26 160.518 408.703 159.974 410.486 159.974C411.842 159.974 413.088 160.344 414.224 161.086L413.254 162.789C412.37 162.205 411.424 161.914 410.415 161.914C409.311 161.914 408.404 162.276 407.694 163.002C406.984 163.727 406.629 164.658 406.629 165.794C406.629 166.929 406.984 167.86 407.694 168.585C408.404 169.311 409.311 169.674 410.415 169.674C411.424 169.674 412.37 169.382 413.254 168.798L414.224 170.502C413.088 171.243 411.842 171.614 410.486 171.614Z" fill="#6B6B79"/>
<path d="M392.449 161.63C393.585 160.526 395.012 159.974 396.731 159.974C398.451 159.974 399.87 160.526 400.99 161.63C402.11 162.718 402.67 164.106 402.67 165.794C402.67 167.481 402.11 168.877 400.99 169.981C399.87 171.07 398.451 171.614 396.731 171.614C395.012 171.614 393.585 171.07 392.449 169.981C391.329 168.877 390.77 167.481 390.77 165.794C390.77 164.106 391.329 162.718 392.449 161.63ZM399.5 163.002C398.79 162.292 397.867 161.937 396.731 161.937C395.596 161.937 394.673 162.292 393.963 163.002C393.254 163.712 392.899 164.642 392.899 165.794C392.899 166.945 393.254 167.876 393.963 168.585C394.673 169.295 395.596 169.65 396.731 169.65C397.867 169.65 398.79 169.295 399.5 168.585C400.209 167.876 400.564 166.945 400.564 165.794C400.564 164.642 400.209 163.712 399.5 163.002Z" fill="#6B6B79"/>
<path d="M388.268 171.379C386.596 171.379 385.579 170.511 385.216 168.776L384.553 165.772C384.38 164.951 384.096 164.368 383.702 164.021C383.307 163.674 382.724 163.5 381.951 163.5H380.342C379.98 163.5 379.735 163.485 379.609 163.453L379.585 163.477C379.664 163.698 379.703 164.021 379.703 164.447V171.26H377.574V154.699H379.703V160.827C379.703 161.221 379.664 161.529 379.585 161.75L379.609 161.773C379.751 161.726 379.995 161.702 380.342 161.702H381.951C382.708 161.702 383.284 161.529 383.678 161.182C384.088 160.819 384.396 160.204 384.601 159.336L385.24 156.852C385.618 155.338 386.691 154.581 388.457 154.581C388.883 154.581 389.277 154.605 389.64 154.652V156.663C389.388 156.616 389.151 156.592 388.93 156.592C387.952 156.592 387.361 156.971 387.156 157.728L386.588 160.023C386.352 160.969 385.989 161.623 385.5 161.986C385.011 162.333 384.23 162.522 383.158 162.554V162.625C384.23 162.657 385.019 162.862 385.524 163.24C386.044 163.603 386.391 164.234 386.564 165.133L387.156 167.854C387.282 168.421 387.471 168.816 387.724 169.036C387.992 169.257 388.363 169.368 388.836 169.368C388.962 169.368 389.285 169.344 389.806 169.297V171.308C389.285 171.355 388.773 171.379 388.268 171.379Z" fill="#6B6B79"/>
<path d="M365.183 155.763C365.183 156.835 364.883 157.679 364.284 158.294C363.684 158.894 362.904 159.193 361.942 159.193C360.964 159.193 360.175 158.894 359.576 158.294C358.976 157.679 358.677 156.835 358.677 155.763H360.12C360.167 157.119 360.774 157.797 361.942 157.797C363.109 157.797 363.716 157.119 363.763 155.763H365.183ZM356.902 171.425V160.329H358.913V165.061C358.913 166.102 358.874 167.016 358.795 167.805L358.866 167.829C359.103 167.34 359.513 166.788 360.096 166.172L365.893 160.163H366.484V171.259H364.497V166.527C364.497 165.486 364.536 164.572 364.615 163.783L364.52 163.759C364.331 164.185 363.929 164.737 363.314 165.415L357.517 171.425H356.902Z" fill="#6B6B79"/>
<path d="M344.047 161.63C345.183 160.526 346.61 159.974 348.329 159.974C350.048 159.974 351.468 160.526 352.588 161.63C353.708 162.718 354.267 164.106 354.267 165.794C354.267 167.481 353.708 168.877 352.588 169.981C351.468 171.07 350.048 171.614 348.329 171.614C346.61 171.614 345.183 171.07 344.047 169.981C342.927 168.877 342.367 167.481 342.367 165.794C342.367 164.106 342.927 162.718 344.047 161.63ZM351.097 163.002C350.387 162.292 349.465 161.937 348.329 161.937C347.194 161.937 346.271 162.292 345.561 163.002C344.851 163.712 344.496 164.642 344.496 165.794C344.496 166.945 344.851 167.876 345.561 168.585C346.271 169.295 347.194 169.65 348.329 169.65C349.465 169.65 350.387 169.295 351.097 168.585C351.807 167.876 352.162 166.945 352.162 165.794C352.162 164.642 351.807 163.712 351.097 163.002Z" fill="#6B6B79"/>
<path d="M337.762 160.33H339.773V171.26H337.762V166.884C337.762 166.631 337.801 166.426 337.88 166.268L337.857 166.245C337.73 166.308 337.51 166.339 337.194 166.339H332.344C332.045 166.339 331.832 166.308 331.705 166.245L331.682 166.268C331.761 166.426 331.8 166.631 331.8 166.884V171.26H329.789V160.33H331.8V163.926C331.8 164.194 331.761 164.407 331.682 164.565L331.705 164.589C331.832 164.526 332.045 164.494 332.344 164.494H337.194C337.51 164.494 337.73 164.526 337.857 164.589L337.88 164.565C337.801 164.407 337.762 164.194 337.762 163.926V160.33Z" fill="#6B6B79"/>
<path d="M317.527 160.33H327.842V162.199H324.246C323.931 162.199 323.71 162.168 323.584 162.104L323.56 162.128C323.639 162.286 323.679 162.491 323.679 162.743V171.26H321.691V162.743C321.691 162.491 321.731 162.286 321.81 162.128L321.786 162.104C321.66 162.168 321.439 162.199 321.123 162.199H317.527V160.33Z" fill="#6B6B79"/>
<path d="M312.802 171.614C311.02 171.614 309.577 171.077 308.473 170.005C307.368 168.917 306.816 167.513 306.816 165.794C306.816 164.074 307.368 162.679 308.473 161.606C309.577 160.518 311.02 159.974 312.802 159.974C314.158 159.974 315.404 160.344 316.54 161.086L315.57 162.789C314.687 162.205 313.74 161.914 312.731 161.914C311.627 161.914 310.72 162.276 310.01 163.002C309.301 163.727 308.946 164.658 308.946 165.794C308.946 166.929 309.301 167.86 310.01 168.585C310.72 169.311 311.627 169.674 312.731 169.674C313.74 169.674 314.687 169.382 315.57 168.798L316.54 170.502C315.404 171.243 314.158 171.614 312.802 171.614Z" fill="#6B6B79"/>
<path d="M299.794 159.974C301.356 159.974 302.499 160.329 303.225 161.038C303.966 161.748 304.337 162.86 304.337 164.374V171.259H302.302C302.302 170.644 302.397 170.029 302.586 169.413L302.515 169.366C301.695 170.864 300.417 171.614 298.682 171.614C297.468 171.614 296.49 171.259 295.749 170.549C295.007 169.839 294.637 168.909 294.637 167.757C294.637 166.574 295.007 165.636 295.749 164.942C296.49 164.248 297.476 163.901 298.706 163.901C300.473 163.901 301.734 164.563 302.491 165.888L302.562 165.841C302.468 165.526 302.405 164.981 302.373 164.209C302.31 162.631 301.403 161.843 299.652 161.843C298.738 161.843 297.641 162.048 296.364 162.458L295.796 160.636C297.168 160.194 298.501 159.974 299.794 159.974ZM299.368 165.581C298.596 165.581 297.965 165.786 297.476 166.196C297.003 166.606 296.766 167.134 296.766 167.781C296.766 168.443 297.003 168.972 297.476 169.366C297.949 169.745 298.58 169.934 299.368 169.934C300.173 169.934 300.843 169.729 301.379 169.319C301.916 168.909 302.184 168.388 302.184 167.757C302.184 167.126 301.916 166.606 301.379 166.196C300.843 165.786 300.173 165.581 299.368 165.581Z" fill="#6B6B79"/>
<path d="M287.725 159.974C289.303 159.974 290.588 160.518 291.582 161.606C292.575 162.694 293.072 164.09 293.072 165.794C293.072 167.497 292.575 168.893 291.582 169.981C290.588 171.07 289.303 171.614 287.725 171.614C285.707 171.614 284.279 170.707 283.443 168.893L283.349 168.917C283.506 169.453 283.585 170.226 283.585 171.235V175.991H281.574V160.329H283.514C283.514 161.433 283.467 162.221 283.372 162.694L283.467 162.718C284.303 160.888 285.722 159.974 287.725 159.974ZM287.347 161.866C286.211 161.866 285.281 162.237 284.555 162.978C283.845 163.704 283.491 164.642 283.491 165.794C283.491 166.961 283.845 167.907 284.555 168.633C285.281 169.358 286.219 169.721 287.371 169.721C288.475 169.721 289.35 169.374 289.997 168.68C290.643 167.97 290.967 167.008 290.967 165.794C290.967 164.595 290.643 163.641 289.997 162.931C289.35 162.221 288.467 161.866 287.347 161.866Z" fill="#6B6B79"/>
<path d="M274.23 171.614C272.495 171.614 270.989 171.251 269.711 170.525L270.539 168.775C271.738 169.437 272.992 169.768 274.301 169.768C275.2 169.768 275.862 169.642 276.288 169.39C276.73 169.122 276.95 168.696 276.95 168.112C276.95 167.497 276.753 167.055 276.359 166.787C275.98 166.503 275.357 166.361 274.49 166.361H272.999V164.54H274.372C275.681 164.54 276.335 164.082 276.335 163.168C276.335 162.284 275.618 161.843 274.182 161.843C273.094 161.843 271.919 162.134 270.657 162.718L269.9 160.967C271.462 160.305 272.944 159.974 274.348 159.974C275.657 159.974 276.659 160.218 277.353 160.707C278.062 161.18 278.417 161.874 278.417 162.789C278.417 164.335 277.479 165.194 275.602 165.368V165.439C277.826 165.565 278.938 166.519 278.938 168.301C278.938 169.374 278.528 170.194 277.708 170.762C276.903 171.33 275.744 171.614 274.23 171.614Z" fill="#6B6B79"/>
<path d="M258.477 161.63C259.612 160.526 261.04 159.974 262.759 159.974C264.478 159.974 265.898 160.526 267.017 161.63C268.137 162.718 268.697 164.106 268.697 165.794C268.697 167.481 268.137 168.877 267.017 169.981C265.898 171.07 264.478 171.614 262.759 171.614C261.04 171.614 259.612 171.07 258.477 169.981C257.357 168.877 256.797 167.481 256.797 165.794C256.797 164.106 257.357 162.718 258.477 161.63ZM265.527 163.002C264.817 162.292 263.894 161.937 262.759 161.937C261.623 161.937 260.701 162.292 259.991 163.002C259.281 163.712 258.926 164.642 258.926 165.794C258.926 166.945 259.281 167.876 259.991 168.585C260.701 169.295 261.623 169.65 262.759 169.65C263.894 169.65 264.817 169.295 265.527 168.585C266.237 167.876 266.592 166.945 266.592 165.794C266.592 164.642 266.237 163.712 265.527 163.002Z" fill="#6B6B79"/>
<path d="M253.359 165.795C254.447 166.126 254.992 166.947 254.992 168.256C254.992 169.171 254.668 169.904 254.022 170.456C253.375 170.992 252.531 171.26 251.49 171.26H245.859V160.33H251.443C252.468 160.33 253.257 160.567 253.809 161.04C254.376 161.513 254.66 162.175 254.66 163.027C254.66 164.1 254.235 164.833 253.383 165.227C253.02 165.401 252.555 165.503 251.987 165.535V165.63C252.523 165.645 252.981 165.701 253.359 165.795ZM247.752 162.081C247.831 162.239 247.87 162.459 247.87 162.743V164.328C247.87 164.549 247.831 164.762 247.752 164.967L247.776 164.991C247.902 164.928 248.115 164.896 248.415 164.896H250.709C251.261 164.896 251.687 164.77 251.987 164.518C252.287 164.25 252.436 163.895 252.436 163.453C252.436 162.586 251.9 162.152 250.828 162.152H248.438C248.123 162.152 247.902 162.12 247.776 162.057L247.752 162.081ZM251.112 169.439C252.216 169.439 252.768 168.942 252.768 167.948C252.768 166.954 252.176 166.458 250.993 166.458H248.415C248.115 166.458 247.902 166.418 247.776 166.339L247.752 166.363C247.831 166.568 247.87 166.781 247.87 167.002V168.894C247.87 169.1 247.831 169.305 247.752 169.51L247.776 169.533C247.902 169.47 248.123 169.439 248.438 169.439H251.112Z" fill="#6B6B79"/>
<path d="M232.871 171.426V160.33H234.882V165.061C234.882 166.102 234.843 167.017 234.764 167.806L234.835 167.829C235.071 167.341 235.481 166.788 236.065 166.173L241.861 160.164H242.453V171.26H240.466V166.528C240.466 165.487 240.505 164.572 240.584 163.784L240.489 163.76C240.3 164.186 239.898 164.738 239.283 165.416L233.486 171.426H232.871Z" fill="#6B6B79"/>
<path d="M220.609 160.33H230.925V162.199H227.328C227.013 162.199 226.792 162.168 226.666 162.104L226.642 162.128C226.721 162.286 226.761 162.491 226.761 162.743V171.26H224.773V162.743C224.773 162.491 224.813 162.286 224.892 162.128L224.868 162.104C224.742 162.168 224.521 162.199 224.205 162.199H220.609V160.33Z" fill="#6B6B79"/>
<path d="M216.664 160.33H218.675V171.26H216.664V166.884C216.664 166.631 216.704 166.426 216.783 166.268L216.759 166.245C216.633 166.308 216.412 166.339 216.097 166.339H211.247C210.947 166.339 210.734 166.308 210.608 166.245L210.584 166.268C210.663 166.426 210.702 166.631 210.702 166.884V171.26H208.691V160.33H210.702V163.926C210.702 164.194 210.663 164.407 210.584 164.565L210.608 164.589C210.734 164.526 210.947 164.494 211.247 164.494H216.097C216.412 164.494 216.633 164.526 216.759 164.589L216.783 164.565C216.704 164.407 216.664 164.194 216.664 163.926V160.33Z" fill="#6B6B79"/>
<path d="M190.91 171.26L198.647 154.344H198.883L206.619 171.26H204.23L202.172 166.623H195.358L193.3 171.26H190.91ZM195.949 164.848C196.233 164.817 196.675 164.801 197.274 164.801H200.255C200.855 164.801 201.296 164.817 201.58 164.848L201.604 164.825C201.367 164.525 201.123 164.075 200.87 163.476L199.404 160.022C199.057 159.123 198.859 158.476 198.812 158.082H198.717C198.67 158.476 198.473 159.123 198.126 160.022L196.659 163.476C196.407 164.075 196.162 164.525 195.926 164.825L195.949 164.848Z" fill="#6B6B79"/>
<path d="M174.199 161.326C175.335 160.222 176.762 159.67 178.481 159.67C180.201 159.67 181.62 160.222 182.74 161.326C183.86 162.414 184.42 163.802 184.42 165.49C184.42 167.178 183.86 168.573 182.74 169.678C181.62 170.766 180.201 171.31 178.481 171.31C176.762 171.31 175.335 170.766 174.199 169.678C173.079 168.573 172.52 167.178 172.52 165.49C172.52 163.802 173.079 162.414 174.199 161.326ZM181.25 162.698C180.54 161.988 179.617 161.634 178.481 161.634C177.346 161.634 176.423 161.988 175.713 162.698C175.004 163.408 174.649 164.339 174.649 165.49C174.649 166.641 175.004 167.572 175.713 168.282C176.423 168.991 177.346 169.346 178.481 169.346C179.617 169.346 180.54 168.991 181.25 168.282C181.959 167.572 182.314 166.641 182.314 165.49C182.314 164.339 181.959 163.408 181.25 162.698Z" fill="#6B6B79"/>
<path d="M165.378 159.67C166.955 159.67 168.24 160.214 169.234 161.302C170.228 162.391 170.725 163.787 170.725 165.49C170.725 167.193 170.228 168.589 169.234 169.678C168.24 170.766 166.955 171.31 165.378 171.31C163.359 171.31 161.932 170.403 161.096 168.589L161.001 168.613C161.159 169.149 161.238 169.922 161.238 170.931V175.687H159.227V160.025H161.167C161.167 161.129 161.119 161.917 161.025 162.391L161.119 162.414C161.955 160.585 163.375 159.67 165.378 159.67ZM164.999 161.563C163.864 161.563 162.933 161.933 162.208 162.675C161.498 163.4 161.143 164.339 161.143 165.49C161.143 166.657 161.498 167.603 162.208 168.329C162.933 169.055 163.872 169.417 165.023 169.417C166.127 169.417 167.002 169.07 167.649 168.376C168.296 167.667 168.619 166.704 168.619 165.49C168.619 164.291 168.296 163.337 167.649 162.627C167.002 161.917 166.119 161.563 164.999 161.563Z" fill="#6B6B79"/>
<path d="M150.686 159.67C152.405 159.67 153.824 160.222 154.944 161.326C156.064 162.414 156.624 163.802 156.624 165.49C156.624 167.178 156.064 168.573 154.944 169.678C153.824 170.766 152.405 171.31 150.686 171.31C149.124 171.31 147.799 170.853 146.711 169.938C145.638 169.023 145 167.84 144.795 166.389H143.754C143.454 166.389 143.241 166.357 143.115 166.294L143.091 166.318C143.17 166.476 143.21 166.681 143.21 166.933V170.955H141.27V160.025H143.21V163.999C143.21 164.268 143.17 164.481 143.091 164.638L143.115 164.662C143.273 164.583 143.486 164.544 143.754 164.544H144.795C145.015 163.108 145.662 161.941 146.735 161.042C147.823 160.127 149.14 159.67 150.686 159.67ZM147.918 168.282C148.627 168.991 149.55 169.346 150.686 169.346C151.821 169.346 152.744 168.991 153.454 168.282C154.163 167.572 154.518 166.641 154.518 165.49C154.518 164.339 154.163 163.408 153.454 162.698C152.744 161.988 151.821 161.634 150.686 161.634C149.55 161.634 148.627 161.988 147.918 162.698C147.208 163.408 146.853 164.339 146.853 165.49C146.853 166.641 147.208 167.572 147.918 168.282Z" fill="#6B6B79"/>
<path d="M133.026 161.113C134.587 161.113 135.857 161.546 136.835 162.414C137.813 163.266 138.302 164.472 138.302 166.034C138.302 167.595 137.813 168.81 136.835 169.677C135.857 170.529 134.587 170.955 133.026 170.955H126.898V154.394H137.427V156.405H129.596C129.343 156.405 129.146 156.373 129.004 156.31L128.957 156.357C129.004 156.468 129.028 156.673 129.028 156.972V160.568C129.028 160.821 129.004 161.018 128.957 161.16L129.004 161.184C129.178 161.136 129.375 161.113 129.596 161.113H133.026ZM132.742 168.944C133.83 168.944 134.651 168.691 135.203 168.187C135.77 167.682 136.054 166.964 136.054 166.034C136.054 165.135 135.77 164.425 135.203 163.904C134.635 163.384 133.815 163.124 132.742 163.124H129.596C129.343 163.124 129.146 163.092 129.004 163.029L128.957 163.076C129.004 163.187 129.028 163.384 129.028 163.668V168.376C129.028 168.675 129.004 168.881 128.957 168.991L129.004 169.038C129.146 168.975 129.343 168.944 129.596 168.944H132.742Z" fill="#6B6B79"/>
<path d="M111.372 159.67C112.981 159.67 114.251 160.19 115.182 161.231C116.112 162.257 116.577 163.66 116.577 165.443V165.845H109.101C108.455 165.845 108.021 165.79 107.8 165.679L107.753 165.727L107.847 165.987C107.942 167.059 108.313 167.895 108.959 168.495C109.606 169.094 110.458 169.394 111.514 169.394C112.208 169.394 112.831 169.26 113.383 168.991C113.936 168.723 114.488 168.274 115.04 167.643L116.293 168.944C115.047 170.521 113.447 171.31 111.491 171.31C109.772 171.31 108.392 170.782 107.351 169.725C106.31 168.668 105.789 167.272 105.789 165.537C105.789 163.755 106.294 162.335 107.303 161.279C108.328 160.206 109.685 159.67 111.372 159.67ZM111.302 161.492C110.339 161.492 109.551 161.76 108.936 162.296C108.336 162.832 107.981 163.566 107.871 164.496L107.895 164.52C108.21 164.378 108.62 164.307 109.125 164.307H112.887C113.691 164.307 114.212 164.37 114.448 164.496L114.472 164.473C114.409 163.526 114.093 162.793 113.525 162.272C112.973 161.752 112.232 161.492 111.302 161.492Z" fill="#6B6B79"/>
<path d="M93.7423 161.326C94.8779 160.222 96.3053 159.67 98.0245 159.67C99.7437 159.67 101.163 160.222 102.283 161.326C103.403 162.414 103.963 163.802 103.963 165.49C103.963 167.178 103.403 168.573 102.283 169.678C101.163 170.766 99.7437 171.31 98.0245 171.31C96.3053 171.31 94.8779 170.766 93.7423 169.678C92.6224 168.573 92.0625 167.178 92.0625 165.49C92.0625 163.802 92.6224 162.414 93.7423 161.326ZM100.793 162.698C100.083 161.988 99.1601 161.634 98.0245 161.634C96.8889 161.634 95.9662 161.988 95.2564 162.698C94.5467 163.408 94.1918 164.339 94.1918 165.49C94.1918 166.641 94.5467 167.572 95.2564 168.282C95.9662 168.991 96.8889 169.346 98.0245 169.346C99.1601 169.346 100.083 168.991 100.793 168.282C101.502 167.572 101.857 166.641 101.857 165.49C101.857 164.339 101.502 163.408 100.793 162.698Z" fill="#6B6B79"/>
<path d="M87.4573 160.025H89.4683V170.956H87.4573V166.579C87.4573 166.326 87.4968 166.121 87.5756 165.964L87.552 165.94C87.4258 166.003 87.205 166.035 86.8895 166.035H82.0395C81.7398 166.035 81.5269 166.003 81.4007 165.94L81.3771 165.964C81.4559 166.121 81.4954 166.326 81.4954 166.579V170.956H79.4844V160.025H81.4954V163.621C81.4954 163.89 81.4559 164.103 81.3771 164.26L81.4007 164.284C81.5269 164.221 81.7398 164.189 82.0395 164.189H86.8895C87.205 164.189 87.4258 164.221 87.552 164.284L87.5756 164.26C87.4968 164.103 87.4573 163.89 87.4573 163.621V160.025Z" fill="#6B6B79"/>
<path d="M67.2188 160.025H77.5339V161.894H73.9378C73.6223 161.894 73.4015 161.863 73.2753 161.8L73.2517 161.823C73.3306 161.981 73.37 162.186 73.37 162.439V170.956H71.3827V162.439C71.3827 162.186 71.4221 161.981 71.501 161.823L71.4773 161.8C71.3511 161.863 71.1303 161.894 70.8149 161.894H67.2188V160.025Z" fill="#6B6B79"/>
<path d="M65.1546 171.026C63.9559 171.026 63.2146 170.529 62.9307 169.536L62.3866 167.572C62.2288 167.02 62.0238 166.634 61.7714 166.413C61.5349 166.176 61.1879 166.058 60.7305 166.058H59.6185C59.2873 166.058 59.0428 166.042 58.8851 166.011L58.8614 166.034C58.9403 166.381 58.9797 166.713 58.9797 167.028V170.955H56.9688V160.025H58.9797V163.527C58.9797 163.81 58.9403 164.126 58.8614 164.473L58.8851 164.497C59.0428 164.465 59.2873 164.449 59.6185 164.449H60.7305C61.2036 164.449 61.5506 164.355 61.7714 164.165C61.9923 163.976 62.2052 163.605 62.4102 163.053L63.2146 161.137C63.5143 160.348 64.2083 159.954 65.2966 159.954H66.3849V161.752H65.8407C65.4937 161.752 65.2335 161.815 65.06 161.941C64.8865 162.068 64.7288 162.296 64.5868 162.628L64.161 163.787C63.814 164.717 63.0332 165.191 61.8188 165.206V165.301C62.5127 165.317 63.0253 165.435 63.3566 165.656C63.7036 165.861 63.9559 166.216 64.1136 166.72L64.6105 168.4C64.7051 168.731 64.8234 168.952 64.9654 169.063C65.1231 169.173 65.3912 169.228 65.7698 169.228H66.4085V171.026H65.1546Z" fill="#6B6B79"/>
<path d="M49.1264 159.67C50.7352 159.67 52.0049 160.19 52.9354 161.231C53.866 162.257 54.3313 163.66 54.3313 165.443V165.845H46.8552C46.2085 165.845 45.7748 165.79 45.554 165.679L45.5066 165.727L45.6013 165.987C45.6959 167.059 46.0666 167.895 46.7132 168.495C47.3599 169.094 48.2116 169.394 49.2684 169.394C49.9623 169.394 50.5853 169.26 51.1374 168.991C51.6894 168.723 52.2415 168.274 52.7935 167.643L54.0474 168.944C52.8014 170.521 51.2005 171.31 49.2447 171.31C47.5255 171.31 46.1454 170.782 45.1044 169.725C44.0635 168.668 43.543 167.272 43.543 165.537C43.543 163.755 44.0477 162.335 45.0571 161.279C46.0823 160.206 47.4388 159.67 49.1264 159.67ZM49.0554 161.492C48.0933 161.492 47.3047 161.76 46.6896 162.296C46.0902 162.832 45.7353 163.566 45.6249 164.496L45.6486 164.52C45.964 164.378 46.3741 164.307 46.8788 164.307H50.6406C51.4449 164.307 51.9654 164.37 52.202 164.496L52.2257 164.473C52.1626 163.526 51.8471 162.793 51.2793 162.272C50.7273 161.752 49.986 161.492 49.0554 161.492Z" fill="#6B6B79"/>
<path d="M31.4923 161.326C32.6279 160.222 34.0553 159.67 35.7745 159.67C37.4937 159.67 38.9132 160.222 40.033 161.326C41.1529 162.414 41.7128 163.802 41.7128 165.49C41.7128 167.178 41.1529 168.573 40.033 169.678C38.9132 170.766 37.4937 171.31 35.7745 171.31C34.0553 171.31 32.6279 170.766 31.4923 169.678C30.3724 168.573 29.8125 167.178 29.8125 165.49C29.8125 163.802 30.3724 162.414 31.4923 161.326ZM38.5425 162.698C37.8328 161.988 36.9101 161.634 35.7745 161.634C34.6389 161.634 33.7162 161.988 33.0064 162.698C32.2967 163.408 31.9418 164.339 31.9418 165.49C31.9418 166.641 32.2967 167.572 33.0064 168.282C33.7162 168.991 34.6389 169.346 35.7745 169.346C36.9101 169.346 37.8328 168.991 38.5425 168.282C39.2523 167.572 39.6072 166.641 39.6072 165.49C39.6072 164.339 39.2523 163.408 38.5425 162.698Z" fill="#6B6B79"/>
<path d="M22.6708 159.67C24.248 159.67 25.5335 160.214 26.5271 161.302C27.5208 162.391 28.0176 163.787 28.0176 165.49C28.0176 167.193 27.5208 168.589 26.5271 169.678C25.5335 170.766 24.248 171.31 22.6708 171.31C20.6519 171.31 19.2245 170.403 18.3886 168.589L18.2939 168.613C18.4517 169.149 18.5305 169.922 18.5305 170.931V175.687H16.5195V160.025H18.4595C18.4595 161.129 18.4122 161.917 18.3176 162.391L18.4122 162.414C19.2482 160.585 20.6677 159.67 22.6708 159.67ZM22.2922 161.563C21.1566 161.563 20.226 161.933 19.5005 162.675C18.7908 163.4 18.4359 164.339 18.4359 165.49C18.4359 166.657 18.7908 167.603 19.5005 168.329C20.226 169.055 21.1645 169.417 22.3159 169.417C23.42 169.417 24.2953 169.07 24.942 168.376C25.5887 167.667 25.912 166.704 25.912 165.49C25.912 164.291 25.5887 163.337 24.942 162.627C24.2953 161.917 23.4121 161.563 22.2922 161.563Z" fill="#6B6B79"/>
<path d="M12.8703 154.394V170.955H10.741V156.949C10.741 156.665 10.7647 156.468 10.812 156.357L10.7647 156.31C10.6385 156.373 10.4413 156.405 10.1732 156.405H2.69708C2.44472 156.405 2.24757 156.373 2.10562 156.31L2.0583 156.357C2.10562 156.468 2.12927 156.665 2.12927 156.949V170.955H0V154.394H12.8703Z" fill="#6B6B79"/>
<g clip-path="url(#clip0_905_5634)">
<path d="M171.27 105.571H178.939V39.3721H232.222V105.571H239.892V32.4111H171.27V105.571Z" fill="#18181E"/>
<path d="M293.166 63.3508H266.174V39.3723H323.738V32.417H258.504V105.577H293.166C310.191 105.577 325.944 103.021 325.944 84.4641C325.944 65.9071 310.191 63.3565 293.166 63.3565V63.3508ZM290.451 98.6219H266.168V70.3006H290.451C302.193 70.3006 318.274 70.3006 318.274 84.4584C318.274 98.6163 302.193 98.6219 290.451 98.6219Z" fill="#18181E"/>
<path d="M362.012 32.4111L333.883 105.38H342.22L348.114 89.7056H396.527L396.606 89.9078L402.42 105.38H410.843L382.714 32.4111H362.012ZM350.993 82.0648L366.899 39.4058H377.736L393.647 82.0648H350.999H350.993Z" fill="#18181E"/>
<path d="M468.857 67.6036L468.936 67.4575L487.839 32.4111H479.649L462.51 63.727H429.268V32.4111H421.559V105.386H429.268V71.3622H462.51L480.384 105.386H488.999L468.857 67.6036Z" fill="#18181E"/>
<path d="M5.79826 63.4237C2.41012 62.8675 -0.48591 65.7441 0.0684094 69.1094C0.407788 71.1488 2.05943 72.7893 4.11268 73.1264C7.50081 73.6826 10.3968 70.8061 9.84253 67.4408C9.50315 65.4013 7.8515 63.7608 5.79826 63.4237Z" fill="#18181E"/>
<path d="M133.415 63.4237C130.027 62.8675 127.131 65.7441 127.686 69.1094C128.025 71.1488 129.677 72.7893 131.73 73.1264C135.118 73.6826 138.014 70.8061 137.46 67.4408C137.12 65.4013 135.469 63.7608 133.415 63.4237Z" fill="#18181E"/>
<path d="M67.9447 9.77579C71.3272 10.332 74.2289 7.45547 73.6746 4.09017C73.3352 2.05076 71.6835 0.410243 69.6303 0.0731503C66.2422 -0.483052 63.3461 2.39347 63.9004 5.75877C64.2398 7.79818 65.8915 9.4387 67.9447 9.77579Z" fill="#18181E"/>
<path d="M69.6303 63.4237C66.2422 62.8675 63.3461 65.7441 63.9004 69.1094C64.2398 71.1488 65.8915 72.7893 67.9447 73.1264C71.3272 73.6826 74.2289 70.8061 73.6746 67.4408C73.3352 65.4013 71.6835 63.7608 69.6303 63.4181V63.4237Z" fill="#18181E"/>
<path d="M69.6303 128.23C66.2422 127.674 63.3461 130.551 63.9004 133.916C64.2398 135.955 65.8915 137.596 67.9447 137.933C71.3272 138.489 74.2289 135.613 73.6746 132.247C73.3352 130.208 71.6835 128.567 69.6303 128.23Z" fill="#18181E"/>
<path d="M12.981 46.4793C13.3091 47.2771 13.6428 47.9737 13.903 48.4962C15.3623 51.3334 17.4382 53.9796 19.7403 55.946C20.1702 56.3336 20.5435 56.6539 20.9394 56.9741C21.0639 57.064 21.211 57.1764 21.3637 57.2887C21.6295 57.4854 21.8671 57.6652 22.1046 57.8281C22.5345 58.1258 22.9531 58.3955 23.3773 58.654C23.943 59.0079 24.5765 59.3619 25.3231 59.7327C25.8548 60.0023 26.4148 60.2495 27.0935 60.5248C28.0494 60.9237 28.7282 61.1428 29.3221 61.317C31.3527 61.9518 33.5021 62.3283 35.7081 62.4406C36.2964 62.4743 36.8676 62.4743 37.4276 62.4687H37.7557C39.4978 62.4687 40.9911 62.3395 42.4617 62.053L42.7898 61.9912C45.3069 61.4462 47.79 60.3844 50.8274 58.5528C51.806 57.9685 52.8071 57.2494 53.7235 56.4909C53.78 56.4404 54.8321 55.519 55.426 54.9291C56.71 53.6538 58.1354 52.5751 59.6683 51.7267C62.7057 50.1648 66.1674 49.3221 69.5498 49.3895C69.5498 49.3895 69.5555 49.3895 69.5555 49.3783C68.5713 47.1816 67.8756 44.9792 67.44 42.6758C67.44 42.6758 67.44 42.6702 67.4344 42.6702C60.9579 43.1365 54.5889 45.9175 50.3297 50.148C49.815 50.6593 49.3229 51.0919 49.3229 51.0919C47.9427 52.3447 47.1452 52.8335 45.8782 53.5414C45.041 54.0133 44.1643 54.3504 43.3385 54.6369C42.145 55.0527 40.9685 55.3336 39.7467 55.5021C36.6697 55.9291 33.5417 55.6314 30.6966 54.6257C30.0801 54.4066 29.5427 54.1987 28.9997 53.9628C28.451 53.6875 28.1343 53.5245 27.8288 53.3504C27.184 53.0077 26.5053 52.5807 25.8661 52.12C25.538 51.9121 25.1873 51.62 24.8706 51.3671C22.9418 49.8446 21.1035 47.5636 19.9609 45.2602C19.5819 44.541 19.2143 43.659 18.8523 42.569C18.7278 42.2207 18.5525 41.687 18.4167 41.0971C18.2301 40.2937 18.083 39.3723 17.9868 38.3554C17.9303 37.8947 17.9077 37.3666 17.919 36.7935C17.902 34.608 18.2753 32.4226 19.0389 30.2933C19.0389 30.2933 19.0389 30.2933 19.0389 30.2876L13.8521 25.1357H13.8408C12.0025 28.7482 11.0465 32.7765 11.0748 36.8328C11.0635 40.142 11.7083 43.3893 12.981 46.4793Z" fill="#18181E"/>
<path d="M37.0106 17.7592C42.1239 17.7592 46.9204 19.7312 50.5235 23.31C54.0983 26.8607 56.2647 32.5744 56.1346 38.0241C56.1346 38.0353 56.1459 38.0409 56.1572 38.0409C58.3349 37.1757 60.5974 36.5296 62.8995 36.1139C62.5149 29.4788 59.6472 22.7594 55.3597 18.5064C47.503 10.7027 35.2288 8.76446 25.3359 13.7141L30.5398 18.8829C32.6213 18.1412 34.7933 17.7648 37.0049 17.7648L37.0106 17.7592Z" fill="#18181E"/>
<path d="M75.0762 42.2324C75.0762 42.2324 75.0931 42.311 75.1101 42.3841C75.6757 44.9741 76.7448 47.4348 78.5887 50.4462C79.2222 51.4799 79.9802 52.5249 80.7834 53.4632L80.9078 53.598C81.1793 53.9014 81.7676 54.5475 82.2314 55.0138C83.521 56.2947 84.6014 57.7105 85.4555 59.2274C87.0223 62.2332 87.8425 65.6884 87.8029 69.0424C87.8029 69.0481 87.8085 69.0537 87.8142 69.0481C90.0315 68.0705 92.2487 67.3795 94.5678 66.9469C94.0984 60.514 91.2985 54.1823 87.0393 49.9518C86.27 49.1877 86.0438 48.9068 86.0438 48.9068C85.0878 47.8393 84.3186 46.7663 83.6172 45.5303C83.1421 44.6988 82.8027 43.8279 82.5142 43.0077C82.0957 41.8166 81.8128 40.6537 81.6431 39.4345C81.2133 36.3894 81.513 33.2769 82.5255 30.4454C82.7405 29.8498 82.9498 29.3105 83.193 28.7599C83.4701 28.2149 83.6342 27.9003 83.8095 27.5913C84.1602 26.9508 84.5901 26.2767 85.0482 25.6418C85.2575 25.3216 85.5347 24.9845 85.8062 24.653C87.3391 22.7316 89.6412 20.9113 91.9546 19.7764C92.6843 19.3944 93.5723 19.0348 94.664 18.6752C95.0486 18.5404 95.569 18.3718 96.1459 18.2426C96.9604 18.0516 97.8937 17.9112 98.9119 17.8156C99.3361 17.7651 99.8565 17.7426 100.479 17.7482C102.639 17.692 104.845 18.0853 107.034 18.8662L112.233 13.7031C108.641 11.8997 104.653 10.9502 100.654 10.9502C97.2093 10.9614 93.8834 11.5626 90.7328 12.8491C89.8957 13.1862 89.1774 13.5346 88.7022 13.7649C85.8458 15.2144 83.1817 17.2763 81.2019 19.5573C80.8117 19.9787 80.4949 20.3551 80.1725 20.7427C80.0707 20.8776 79.9576 21.0293 79.8444 21.1809C79.6465 21.445 79.4711 21.6697 79.3127 21.9057C79.013 22.3327 78.7358 22.7484 78.4813 23.1698C78.0514 23.8721 77.7063 24.4845 77.3952 25.1025C77.1294 25.6249 76.8749 26.1812 76.5977 26.861C76.1961 27.8104 75.9755 28.4846 75.8002 29.0745C75.161 31.0915 74.7764 33.2264 74.6689 35.4175C74.6406 35.9849 74.6406 36.5355 74.6406 37.0749V37.4513C74.6519 39.2716 74.7877 40.7885 75.0762 42.2211V42.2324Z" fill="#18181E"/>
<path d="M123.669 88.0595C122.21 85.2223 120.134 82.5761 117.837 80.6097C117.407 80.2221 117.04 79.9131 116.638 79.5816C116.508 79.4917 116.35 79.3737 116.197 79.2501C115.954 79.0704 115.716 78.8906 115.479 78.7277C115.049 78.4299 114.625 78.1546 114.206 77.9018C113.629 77.5422 112.996 77.1883 112.26 76.8287C111.734 76.5646 111.174 76.3118 110.49 76.0365C109.534 75.6376 108.855 75.4185 108.261 75.2444C106.231 74.6095 104.081 74.2331 101.875 74.1207C101.293 74.087 100.733 74.087 100.178 74.0926H99.8276C98.0459 74.0926 96.5187 74.2275 95.0311 74.5252C95.0084 74.5365 94.9406 74.5477 94.867 74.5533C92.3387 75.0927 89.8273 76.1601 86.7615 78.0085C85.8 78.5872 84.8384 79.2726 83.973 79.9917C83.9051 80.0479 83.4922 80.3963 83.3451 80.5142L83.2999 80.5536C82.9039 80.9019 82.7003 81.0873 82.1573 81.6266C80.8733 82.902 79.4479 83.9807 77.9151 84.829C74.872 86.3965 71.382 87.2224 68.0448 87.1662C68.0335 87.1662 68.0278 87.1774 68.0335 87.1887C69.0177 89.3966 69.7077 91.5877 70.1376 93.8687C70.1376 93.8743 70.1489 93.88 70.1546 93.88C76.6254 93.408 82.9944 90.6326 87.248 86.4077C87.7684 85.8909 88.2944 85.4246 88.2944 85.4246C89.3748 84.4751 90.4551 83.711 91.6995 83.0087C92.5479 82.5312 93.4586 82.1828 94.2392 81.9075C95.427 81.4918 96.6035 81.2109 97.831 81.0423C100.902 80.6154 104.036 80.9187 106.881 81.9188C107.509 82.1435 108.052 82.3514 108.578 82.5817C109.121 82.857 109.438 83.02 109.749 83.1885C110.394 83.5368 111.078 83.9638 111.712 84.4245C112.045 84.6436 112.373 84.9077 112.707 85.183C114.63 86.6999 116.474 88.9865 117.628 91.2956C118.007 92.0203 118.369 92.8968 118.731 93.9755C118.867 94.3575 119.036 94.88 119.167 95.4474C119.353 96.2452 119.5 97.1666 119.596 98.1891C119.653 98.6498 119.676 99.1779 119.664 99.7566C119.681 101.942 119.308 104.128 118.544 106.257C118.544 106.262 118.544 106.268 118.544 106.274L123.72 111.414C123.72 111.414 123.743 111.414 123.748 111.414C125.581 107.807 126.537 103.779 126.508 99.7285C126.52 96.4138 125.875 93.1721 124.597 90.082C124.274 89.2955 123.952 88.6213 123.675 88.0651L123.669 88.0595Z" fill="#18181E"/>
<path d="M99.2513 55.7101C99.2513 55.7101 99.2344 55.7214 99.2344 55.7326C100.105 57.89 100.756 60.1317 101.169 62.4183C101.169 62.4239 101.174 62.4295 101.186 62.4295C107.86 62.0475 114.625 59.1934 118.901 54.9461C126.752 47.148 128.704 34.9677 123.738 25.1471C123.738 25.1359 123.721 25.1359 123.709 25.1471L118.528 30.2934C118.528 30.2934 118.522 30.3046 118.528 30.3102C121.017 37.2038 119.28 44.9681 114.065 50.1481C110.485 53.7044 104.721 55.8225 99.2513 55.7214V55.7101Z" fill="#18181E"/>
<path d="M62.504 94.3461L62.4588 94.1102C61.9101 91.5988 60.8354 89.1268 58.9914 86.1098C58.3806 85.1154 57.6452 84.0985 56.8703 83.1771L56.4687 82.7164C56.0954 82.3007 55.9201 82.1097 55.3431 81.5366C54.0591 80.2613 52.9731 78.8455 52.119 77.323C50.5579 74.3229 49.732 70.8733 49.7716 67.5248C49.7716 67.508 49.7547 67.5023 49.7434 67.508C47.5204 68.4855 45.3088 69.171 43.0067 69.5979C43.4762 76.0308 46.276 82.3625 50.5352 86.593C50.7954 86.8515 51.5081 87.6155 51.5081 87.6155C52.464 88.6886 53.2446 89.7673 53.9573 91.0202C54.4324 91.8516 54.7831 92.7618 55.0603 93.5427C55.4789 94.7338 55.7617 95.9024 55.9314 97.1159C56.3612 100.161 56.0615 103.273 55.049 106.105C54.834 106.712 54.6191 107.246 54.3815 107.791C54.1044 108.335 53.9403 108.65 53.765 108.959C53.4143 109.6 52.9844 110.274 52.5263 110.909C52.3113 111.234 52.0229 111.588 51.7627 111.897C50.2298 113.813 47.9333 115.639 45.6199 116.774C44.8959 117.15 44.0078 117.516 42.9105 117.875C42.5259 118.01 42.0055 118.179 41.4286 118.308C40.631 118.493 39.6977 118.639 38.6683 118.735C38.2441 118.785 37.7237 118.808 37.1015 118.802H37.0675C34.7994 118.802 32.6669 118.437 30.5458 117.684L25.3477 122.847C28.9338 124.651 32.9441 125.6 36.977 125.6H37.2146C40.5236 125.6 43.7646 124.96 46.853 123.701C47.6392 123.387 48.318 123.061 48.8836 122.785C51.774 121.319 54.4381 119.263 56.3839 116.993L56.3952 116.982C56.7798 116.566 57.0966 116.195 57.419 115.802C57.5208 115.662 57.6396 115.504 57.7584 115.353C57.945 115.105 58.126 114.875 58.2844 114.639C58.5842 114.212 58.8557 113.796 59.1159 113.375C59.4779 112.802 59.8342 112.167 60.2019 111.442C60.4734 110.909 60.7279 110.352 60.9994 109.684C61.3954 108.751 61.616 108.083 61.8083 107.47C62.4418 105.436 62.8151 103.302 62.9282 101.127C62.9565 100.565 62.9565 100.021 62.9565 99.4868V99.0935C62.9565 97.3294 62.8208 95.8237 62.5266 94.3461H62.504Z" fill="#18181E"/>
<path d="M38.3225 80.8456C38.3225 80.8456 38.3451 80.8344 38.3395 80.8231C37.4684 78.6657 36.8236 76.4241 36.405 74.1487C36.405 74.1375 36.3937 74.1318 36.3824 74.1318C29.7079 74.5139 22.9486 77.3679 18.6725 81.6153C10.8215 89.4134 8.87007 101.594 13.8363 111.414C13.842 111.425 13.8589 111.431 13.8703 111.42L19.0458 106.279C19.0458 106.279 19.0514 106.268 19.0458 106.262C16.557 99.3688 18.2935 91.6101 23.5086 86.4301C27.1004 82.8569 32.8529 80.6827 38.3169 80.8568L38.3225 80.8456Z" fill="#18181E"/>
<path d="M87.0518 113.246C83.4713 109.69 81.305 103.965 81.4407 98.5098C79.2574 99.3806 76.9836 100.032 74.6758 100.442C75.0604 107.078 77.9282 113.797 82.21 118.05C90.0723 125.854 102.341 127.792 112.234 122.837L107.03 117.668C100.09 120.145 92.2726 118.421 87.0518 113.235V113.246Z" fill="#18181E"/>
</g>
<defs>
<clipPath id="clip0_905_5634">
<rect width="489" height="138" fill="white"/>
</clipPath>
</defs>
</svg>
