<svg width="64" height="64" viewBox="0 0 64 64" fill="none" xmlns="http://www.w3.org/2000/svg">
<rect x="1" y="1" width="62" height="62" rx="31" stroke="#18181E" stroke-width="2"/>
<path fill-rule="evenodd" clip-rule="evenodd" d="M32 24.7775C30.694 24.7775 29.8341 24.4533 28.8489 24.0818C27.527 23.5835 25.9792 23 22.8252 23C17.7282 23 11 24.1109 11 32.3317C11 38.9083 16.8447 40.8487 19.767 40.9968C22.6214 41.0709 28.3301 39.8859 28.3301 34.5535C28.3301 30.1098 30.5728 29.2211 32 29.2211C33.4272 29.2211 35.6699 30.1098 35.6699 34.5535C35.6699 39.8859 41.3786 41.0709 44.233 40.9968C47.1553 40.8487 53 38.9083 53 32.3317C53 24.1109 46.2718 23 41.1748 23C38.0208 23 36.4731 23.5835 35.1512 24.0818C34.1659 24.4533 33.306 24.7775 32 24.7775ZM15.8932 27.2215H17.1165V28.1102H16.7087V28.3324C16.7087 28.8797 16.9396 29.7599 17.679 30.5059C18.4122 31.2457 19.6806 31.8873 21.8058 31.8873C23.9302 31.8873 25.2377 31.246 26.0167 30.4985C26.7968 29.7498 27.0755 28.8687 27.1068 28.3194V28.1102H26.699V27.2215H27.9223V28.3447L27.9217 28.357C27.8817 29.1416 27.5064 30.253 26.5557 31.1654C25.5982 32.0842 24.0854 32.776 21.8058 32.776C19.5271 32.776 18.0431 32.0845 17.1249 31.158C16.2128 30.2377 15.8932 29.1181 15.8932 28.3324V27.2215ZM37.301 27.2215H36.0777V28.3324C36.0777 29.1181 36.3973 30.2377 37.3094 31.158C38.2276 32.0845 39.7116 32.776 41.9903 32.776C44.2698 32.776 45.7827 32.0842 46.7401 31.1654C47.6909 30.253 48.0662 29.1416 48.1062 28.357L48.1068 28.3447V27.2215H46.8835V28.1102H47.2913V28.3194C47.26 28.8687 46.9813 29.7498 46.2011 30.4985C45.4222 31.246 44.1146 31.8873 41.9903 31.8873C39.8651 31.8873 38.5967 31.2457 37.8634 30.5059C37.1241 29.7599 36.8932 28.8797 36.8932 28.3324V28.1102H37.301V27.2215Z" fill="#18181E"/>
</svg>
