<svg width="64" height="64" viewBox="0 0 64 64" fill="none" xmlns="http://www.w3.org/2000/svg">
<rect x="1" y="1" width="62" height="62" rx="31" stroke="#18181E" stroke-width="2"/>
<path d="M32 18.0021C25.2698 18.1552 12.0069 20.3581 12.0069 28C11.9406 29.4 12.3252 32.2 14.3942 32.2C15.7861 32.2 16.7809 31.2 20.5608 31.2C23.039 31.2 25.9538 32.5433 27.7281 33.5786C28.3292 33.9293 28.5806 34.6549 28.3795 35.3237L26.4728 41.664C26.2699 42.3387 26.5301 43.0673 27.1134 43.4583L30.5049 45.7313C30.7663 45.9065 31.0735 46 31.3877 46H31.8999H32.1001H32.6123C32.9265 46 33.2337 45.9065 33.4951 45.7313L36.8866 43.4583C37.4699 43.0673 37.7301 42.3387 37.5272 41.664L35.6205 35.3237C35.4194 34.6549 35.6708 33.9293 36.2719 33.5786C38.0462 32.5433 40.961 31.2 43.4392 31.2C47.2191 31.2 48.2139 32.2 49.6058 32.2C51.6748 32.2 52.0594 29.4 51.9931 28C51.9931 20.3581 38.7301 18.1552 32 18.0021Z" fill="#18181E"/>
</svg>
