<svg width="64" height="64" viewBox="0 0 64 64" fill="none" xmlns="http://www.w3.org/2000/svg">
<rect x="1" y="1" width="62" height="62" rx="31" stroke="#18181E" stroke-width="2"/>
<path fill-rule="evenodd" clip-rule="evenodd" d="M32 22.6576C29.514 22.6443 27.4271 22.1591 24.9296 21.1177C22.397 20.0616 20.2161 19.9443 19.4422 20.0176C16.6281 20.1643 11 22.2178 11 29.2585C11 38.0306 21.2742 43.9611 32 43.9998C42.7258 43.9611 53 38.0306 53 29.2585C53 22.2178 47.3719 20.1643 44.5578 20.0176C43.7839 19.9443 41.603 20.0616 39.0704 21.1177C36.5729 22.1591 34.486 22.6443 32 22.6576ZM28.5176 26.8383C30.2404 26.8383 31.491 27.3431 32 27.6504C32.509 27.3431 33.7596 26.8383 35.4824 26.8383C37.3397 26.8383 39.7739 28.7452 40.7588 29.6986C40.0599 30.9372 37.3334 33.4064 32 33.4386C26.6666 33.4064 23.9401 30.9372 23.2412 29.6986C24.2261 28.7452 26.6603 26.8383 28.5176 26.8383Z" fill="#18181E"/>
</svg>
