<svg width="64" height="64" viewBox="0 0 64 64" fill="none" xmlns="http://www.w3.org/2000/svg">
<rect x="1" y="1" width="62" height="62" rx="31" stroke="#18181E" stroke-width="2"/>
<path fill-rule="evenodd" clip-rule="evenodd" d="M47.2069 25C49.1379 25.1333 53 26.72 53 32C53 37.28 49.1379 38.8667 47.2069 39H16.7931C14.8621 38.8667 11 37.28 11 32C11 26.72 14.8621 25.1333 16.7931 25H47.2069ZM15.4305 28.2829C15.0204 28.6793 14.1034 30.0327 14.1034 32C14.1034 33.97 15.023 35.4657 15.4493 35.9366L14.8265 36.4634C14.2873 35.8677 13.2759 34.1901 13.2759 32C13.2759 29.8073 14.2899 28.2541 14.8453 27.7172L15.4305 28.2829ZM18.3271 28.2829C18.0053 28.594 17.2069 29.8447 17.2069 32C17.2069 34.1541 18.0053 35.5525 18.3487 35.9397L17.7203 36.4603C17.2361 35.9142 16.3793 34.3259 16.3793 32C16.3793 29.6754 17.2361 28.2061 17.7419 27.7172L18.3271 28.2829ZM49.7963 32C49.7963 30.0327 48.8794 28.6793 48.4693 28.2829L49.0545 27.7172C49.6098 28.2541 50.6239 29.8073 50.6239 32C50.6239 34.1901 49.6125 35.8677 49.0733 36.4634L48.4504 35.9366C48.8768 35.4657 49.7963 33.97 49.7963 32ZM46.6929 32C46.6929 29.8447 45.8945 28.594 45.5727 28.2829L46.1579 27.7172C46.6637 28.2061 47.5205 29.6754 47.5205 32C47.5205 34.3259 46.6637 35.9142 46.1795 36.4603L45.5511 35.9397C45.8945 35.5525 46.6929 34.1541 46.6929 32Z" fill="#18181E"/>
</svg>
