<svg width="64" height="64" viewBox="0 0 64 64" fill="none" xmlns="http://www.w3.org/2000/svg">
<rect x="1" y="1" width="62" height="62" rx="31" stroke="#18181E" stroke-width="2"/>
<path d="M32.1084 25H31.8916H28.4531C27.6973 25 27.3034 25.9373 27.816 26.5159L28.4387 27.2186C28.8351 27.666 28.9903 28.3184 28.5776 28.7496C27.729 29.6364 25.7213 30.6452 21.7044 30.6452C16.3291 30.6452 14.1182 27.6344 13.6847 26.129H10.867C10.3882 26.129 10 26.5334 10 27.0323V35.8387C10 37.5846 11.3586 39 13.0345 39H26.4729L30.3744 34.7097H31.8916H32.1084H33.6256L37.5271 39H50.9655C52.6414 39 54 37.5846 54 35.8387V27.0323C54 26.5334 53.6118 26.129 53.133 26.129H50.3153C49.8818 27.6344 47.6709 30.6452 42.2956 30.6452C38.2787 30.6452 36.271 29.6364 35.4224 28.7496C35.0097 28.3184 35.1649 27.666 35.5613 27.2186L36.184 26.5159C36.6966 25.9373 36.3027 25 35.5469 25H32.1084Z" fill="#18181E"/>
</svg>
