<svg width="64" height="64" viewBox="0 0 64 64" fill="none" xmlns="http://www.w3.org/2000/svg">
<rect x="1" y="1" width="62" height="62" rx="31" stroke="#18181E" stroke-width="2"/>
<path fill-rule="evenodd" clip-rule="evenodd" d="M32 14C26.7711 14 18 17.5667 18 28.5C18 34.2333 23.0602 38.3333 25.5904 39.6667L19.3697 37.3446C18.7077 37.0975 18 37.5809 18 38.2801V42.7597C18 44.0076 18.7818 45.1252 19.9632 45.5661L25.5904 47.6667L27.5754 48.69C28.8288 49.3362 30.1867 49.7611 31.588 49.9457L32 50L32.412 49.9457C33.8133 49.7611 35.1712 49.3362 36.4246 48.69L38.4096 47.6667L44.0368 45.5661C45.2182 45.1252 46 44.0076 46 42.7597V38.2801C46 37.5809 45.2923 37.0975 44.6303 37.3446L38.4096 39.6667C40.9398 38.3333 46 34.2333 46 28.5C46 17.5667 37.2289 14 32 14ZM27.2771 22.6667C29.3012 22.6667 30.4819 23.5 30.4819 24C30.4819 24.5 29.8072 25.3333 27.2771 25.3333C24.747 25.3333 23.5663 24.6667 23.5663 24C23.5663 23.3333 25.253 22.6667 27.2771 22.6667ZM28.1205 33C28.1205 31.9333 30.7631 31.8333 32 31.8333C33.2369 31.8333 35.8795 31.9333 35.8795 33C35.8795 34.0667 33.2369 34.3889 32 34.3333C30.7631 34.3889 28.1205 34.0667 28.1205 33ZM36.7229 22.6667C34.6988 22.6667 33.5181 23.5 33.5181 24C33.5181 24.5 34.1928 25.3333 36.7229 25.3333C39.253 25.3333 40.4337 24.6667 40.4337 24C40.4337 23.3333 38.747 22.6667 36.7229 22.6667Z" fill="#18181E"/>
</svg>
