<svg width="64" height="64" viewBox="0 0 64 64" fill="none" xmlns="http://www.w3.org/2000/svg">
<rect x="1" y="1" width="62" height="62" rx="31" stroke="#18181E" stroke-width="2"/>
<path fill-rule="evenodd" clip-rule="evenodd" d="M32.0744 21.5701L19.8193 20C19.2214 23.2897 20.0435 30.4075 28.1145 32.5607C27.2177 33.1589 24.4825 34.3551 20.716 34.3551C18.3129 34.3551 15.7819 33.2594 13.8569 32.1166C12.665 31.409 11.0271 32.0448 11.003 33.4312C10.9219 38.1114 12.4376 44 18.9225 44C21.3297 44 22.8899 43.7556 24.5535 43.495C26.4535 43.1973 28.4885 42.8785 32.0744 42.8785C35.6604 42.8785 37.6531 43.1973 39.5136 43.495C41.1426 43.7556 42.6703 44 45.0775 44C51.5624 44 53.0781 38.1114 52.997 33.4312C52.9729 32.0448 51.335 31.409 50.1431 32.1166C48.2181 33.2594 45.6871 34.3551 43.284 34.3551C39.5175 34.3551 36.7823 33.1589 35.8855 32.5607C43.9565 30.4075 44.7786 23.2897 44.1807 20L32.0744 21.5701ZM26.6937 25.6075C26.6937 25.6075 28.7115 24.0374 32.0744 24.0374C35.4374 24.0374 37.4551 25.6075 37.4551 25.6075C37.4551 25.6075 35.8858 28.0748 32.0744 28.0748C28.2631 28.0748 26.6937 25.6075 26.6937 25.6075Z" fill="#18181E"/>
</svg>
