<svg width="64" height="64" viewBox="0 0 64 64" fill="none" xmlns="http://www.w3.org/2000/svg">
<rect x="1" y="1" width="62" height="62" rx="31" stroke="#18181E" stroke-width="2"/>
<path fill-rule="evenodd" clip-rule="evenodd" d="M42.3866 20.0513C39.5596 17.8782 35.945 16.5714 32 16.5714C27.1854 16.5714 22.863 18.5179 19.864 21.6095L21.7457 23.4743L21.2252 23.9951L19.3635 22.1501C16.9986 24.8263 15.5825 28.2594 15.5825 32C15.5825 35.7838 17.0315 39.253 19.4458 41.9423L22.0113 40.1484L22.4353 40.7496L19.9553 42.4838C21.3414 43.8895 23.0036 45.0533 24.8622 45.898L26.3381 43.5596L26.9629 43.9506L25.5483 46.1917C27.5273 46.9874 29.7076 47.4286 32 47.4286C35.1053 47.4286 38.0055 46.619 40.4781 45.2147L39.0769 43.2318L39.6804 42.809L41.1124 44.8356C43.0989 43.5874 44.7772 41.9443 46.0219 40.029L43.4388 38.5641L43.8039 37.9257L46.4079 39.4024C47.6898 37.2039 48.4175 34.682 48.4175 32C48.4175 27.4482 46.3195 23.3481 42.9649 20.5172L41.5374 22.8253L40.9092 22.44L42.3866 20.0513ZM24.068 29.9796H24.2524V30.7143H24.068C23.0492 30.7143 22.2233 29.892 22.2233 28.8776V28.5102C22.2233 27.4958 23.0492 26.6735 24.068 26.6735H28.6796C29.6984 26.6735 30.5243 27.4958 30.5243 28.5102V29.0612C30.5243 29.9742 29.781 30.7143 28.8641 30.7143V29.9796C29.3735 29.9796 29.7864 29.5684 29.7864 29.0612V28.5102C29.7864 27.9016 29.2909 27.4082 28.6796 27.4082H24.068C23.4567 27.4082 22.9612 27.9016 22.9612 28.5102V28.8776C22.9612 29.4862 23.4567 29.9796 24.068 29.9796ZM30.1411 31.5499L28.9342 35.7562C28.8668 35.9909 29.0438 36.2245 29.2889 36.2245H35.08C35.3252 36.2245 35.5021 35.9909 35.4348 35.7562L34.2278 31.5499L34.9373 31.3481L36.1443 35.5544C36.3463 36.2584 35.8154 36.9592 35.08 36.9592H29.2889C28.5536 36.9592 28.0227 36.2584 28.2247 35.5544L29.4317 31.3481L30.1411 31.5499ZM40.301 30.7143H40.1165V29.9796H40.301C40.9122 29.9796 41.4078 29.4862 41.4078 28.8776V28.5102C41.4078 27.9016 40.9122 27.4082 40.301 27.4082H35.6893C35.0781 27.4082 34.5825 27.9016 34.5825 28.5102V29.0612C34.5825 29.5684 34.9955 29.9796 35.5049 29.9796V30.7143C34.588 30.7143 33.8447 29.9742 33.8447 29.0612V28.5102C33.8447 27.4958 34.6705 26.6735 35.6893 26.6735H40.301C41.3197 26.6735 42.1456 27.4958 42.1456 28.5102V28.8776C42.1456 29.892 41.3197 30.7143 40.301 30.7143ZM32.3689 42.2857C34.9159 42.2857 36.9806 41.4634 36.9806 40.449C36.9806 39.4346 34.9159 38.6122 32.3689 38.6122C29.822 38.6122 27.7573 39.4346 27.7573 40.449C27.7573 41.4634 29.822 42.2857 32.3689 42.2857Z" fill="#18181E"/>
<path fill-rule="evenodd" clip-rule="evenodd" d="M51 32C51 41.9411 42.4934 50 32 50C21.5066 50 13 41.9411 13 32C13 22.0589 21.5066 14 32 14C42.4934 14 51 22.0589 51 32ZM19.0874 21.3581C19.0037 21.4482 18.9211 21.5391 18.8396 21.6308C16.3459 24.4374 14.8447 28.0535 14.8447 32C14.8447 36.0755 16.4456 39.7988 19.0874 42.6419C19.1717 42.7327 19.2572 42.8226 19.3436 42.9115C20.872 44.4844 22.7264 45.7714 24.8058 46.6777C24.9198 46.7273 25.0344 46.7758 25.1497 46.8232C27.248 47.6852 29.5647 48.1633 32 48.1633C35.2606 48.1633 38.3088 47.3062 40.9045 45.8182C41.0116 45.7568 41.1178 45.6944 41.2233 45.6309C43.4336 44.3005 45.2988 42.506 46.664 40.3931C46.7306 40.29 46.7961 40.1862 46.8603 40.0816C48.3199 37.7042 49.1553 34.944 49.1553 32C49.1553 27.1764 46.9127 22.8462 43.3561 19.8847C43.261 19.8055 43.1649 19.7273 43.068 19.6501C40.0805 17.271 36.218 15.8367 32 15.8367C26.851 15.8367 22.2319 17.9739 19.0874 21.3581Z" fill="#18181E"/>
</svg>
