<svg width="64" height="64" viewBox="0 0 64 64" fill="none" xmlns="http://www.w3.org/2000/svg">
<rect x="1" y="1" width="62" height="62" rx="31" stroke="#18181E" stroke-width="2"/>
<path d="M32 15.0003C27.5022 15.0287 20.7643 17.3603 17.5628 23.4501C17.0691 24.3891 16.9197 25.5661 17.6066 26.3722C18.0373 26.8776 18.6715 27.2871 19.5583 27.2871C19.9391 27.2871 20.2747 27.1874 20.559 27.0413C21.368 26.6255 21.5286 25.6083 21.8506 24.7525C22.334 23.4674 23.4979 22.0693 25.9044 22.0693C27.6163 22.0693 28.831 22.9536 29.616 23.9971C30.7399 25.491 29.7403 27.3716 28.1316 28.3131L26.5681 29.228C25.9505 29.5894 25.5704 30.2549 25.5704 30.9747V31.495C25.5704 31.8669 25.8695 32.1683 26.2384 32.1683H27.7281C28.1752 32.1683 28.6151 32.2814 29.0076 32.4972L29.6483 32.8494C30.0408 33.0652 30.4807 33.1782 30.9278 33.1782H31.9165H32.0835H33.0722C33.5193 33.1782 33.9592 33.0652 34.3517 32.8494L34.9924 32.4972C35.3849 32.2814 35.8248 32.1683 36.2719 32.1683H37.7616C38.1305 32.1683 38.4296 31.8669 38.4296 31.495V30.9747C38.4296 30.2549 38.0495 29.5894 37.4319 29.228L35.8684 28.3131C34.2597 27.3716 33.2601 25.491 34.384 23.9971C35.169 22.9536 36.3837 22.0693 38.0956 22.0693C40.5021 22.0693 41.666 23.4674 42.1494 24.7525C42.4714 25.6083 42.632 26.6255 43.441 27.0413C43.7253 27.1874 44.0609 27.2871 44.4417 27.2871C45.3285 27.2871 45.9627 26.8776 46.3934 26.3722C47.0803 25.5661 46.9309 24.3891 46.4372 23.4501C43.2357 17.3603 36.4978 15.0287 32 15.0003Z" fill="#18181E"/>
<path fill-rule="evenodd" clip-rule="evenodd" d="M32.0835 38.0594H31.9165H29.2568C28.4975 38.0594 28.0141 37.2414 28.3757 36.5685L29.2113 35.0137C29.4524 34.5651 29.1301 34.0198 28.6239 34.0198H25.1384C22.7713 34.0198 20.4212 33.6173 18.1871 32.8292L17.2218 32.4887C16.1036 32.0942 14.9448 32.966 15.002 34.1587L15.3832 42.099C15.4943 44.3944 18.9756 48.9804 32 48.9999C45.0244 48.9804 48.5057 44.3944 48.6168 42.099L48.998 34.1587C49.0552 32.966 47.8964 32.0942 46.7782 32.4887L45.8129 32.8292C43.5788 33.6173 41.2287 34.0198 38.8616 34.0198H35.3761C34.8699 34.0198 34.5476 34.5651 34.7887 35.0137L35.6243 36.5685C35.9859 37.2414 35.5025 38.0594 34.7432 38.0594H32.0835ZM27.0734 42.099C27.0734 40.7746 30.3048 40.4272 32 40.4161C33.6952 40.4272 36.9266 40.7746 36.9266 42.099C36.9266 43.4235 33.6952 43.6623 32 43.6164C30.3048 43.6623 27.0734 43.4235 27.0734 42.099Z" fill="#18181E"/>
</svg>
