<svg width="64" height="64" viewBox="0 0 64 64" fill="none" xmlns="http://www.w3.org/2000/svg">
<rect x="1" y="1" width="62" height="62" rx="31" stroke="#18181E" stroke-width="2"/>
<path fill-rule="evenodd" clip-rule="evenodd" d="M12.7031 27.2126L12.7199 27.378C12.8033 28.2 13.2675 28.9283 13.964 29.3297L15.3463 30.1264C16.1415 30.5847 17.0362 30.8252 17.9459 30.8252H28.9118V32.1068H28.0882V31.6796H16.5588L12.1342 29.8095C11.5926 29.5806 11 29.994 11 30.6007V35.6257C11 36.9572 11.8487 38.1284 13.0817 38.4983L25.5664 42.2435C27.2393 42.7453 28.972 43 30.7134 43H33.2866C35.028 43 36.7607 42.7453 38.4336 42.2435L50.9183 38.4983C52.1513 38.1284 53 36.9572 53 35.6257V30.6007C53 29.994 52.4074 29.5806 51.8658 29.8095L47.4412 31.6796H35.9118V32.1068H35.0882V30.8252H46.0541C46.9638 30.8252 47.8585 30.5847 48.6537 30.1264L50.036 29.3297C50.7325 28.9283 51.1967 28.2 51.2801 27.378L51.2969 27.2126C51.4698 25.5081 51.319 23.785 50.8528 22.1408C50.6611 21.4644 50.0628 21 49.3833 21H14.6167C13.9372 21 13.3389 21.4644 13.1472 22.1408C12.681 23.785 12.5302 25.5081 12.7031 27.2126ZM29.8861 26.036C29.1604 25.785 29.1604 24.7587 29.8861 24.5077C31.2556 24.0341 32.7444 24.0341 34.1139 24.5077C34.8396 24.7587 34.8396 25.785 34.1139 26.036C32.7444 26.5096 31.2556 26.5096 29.8861 26.036ZM16.0654 23.2769L18.256 25.2248C18.654 25.5788 18.6362 26.2235 18.2191 26.5531L16.0285 28.2846C15.4864 28.7131 14.7059 28.3121 14.7059 27.6051V23.9255C14.7059 23.1956 15.5312 22.8018 16.0654 23.2769ZM14.1099 32.9141L16.0868 34.1837C16.5966 34.5111 16.609 35.2759 16.1101 35.621L14.1333 36.9883C13.586 37.3668 12.8529 36.9598 12.8529 36.2774V33.6405C12.8529 32.9711 13.5613 32.5617 14.1099 32.9141ZM47.9346 23.2769L45.744 25.2248C45.346 25.5788 45.3638 26.2235 45.7809 26.5531L47.9715 28.2846C48.5136 28.7131 49.2941 28.3121 49.2941 27.6051V23.9255C49.2941 23.1956 48.4688 22.8018 47.9346 23.2769ZM49.8901 32.9141L47.9132 34.1837C47.4034 34.5111 47.391 35.2759 47.8899 35.621L49.8667 36.9883C50.414 37.3668 51.1471 36.9598 51.1471 36.2774V33.6405C51.1471 32.9711 50.4387 32.5617 49.8901 32.9141Z" fill="#18181E"/>
</svg>
