<svg width="64" height="64" viewBox="0 0 64 64" fill="none" xmlns="http://www.w3.org/2000/svg">
<rect x="1" y="1" width="62" height="62" rx="31" stroke="#18181E" stroke-width="2"/>
<path fill-rule="evenodd" clip-rule="evenodd" d="M18.1999 28.5926C20.3422 28.3951 25.0453 28.4741 26.7193 30.3704L27.915 29.1852C28.2638 29.8765 29.6582 31.2593 32.0496 31.2593C34.4411 31.2593 35.7362 29.8765 36.085 29.1852L37.2807 30.3704C38.9547 28.4741 43.6578 28.3951 45.8001 28.5926C46.0492 24.3951 43.648 16 32.0496 16C20.4512 16 17.9508 24.3951 18.1999 28.5926ZM30.8539 25.1852C30.5052 24.3951 29.1201 22.8148 26.37 22.8148C23.9786 22.8148 23.2312 23.8519 23.2312 24.4444C23.2312 25.037 24.0982 26.2222 26.37 26.2222C28.6417 26.2222 30.3058 25.5309 30.8539 25.1852ZM33.2453 25.1852C33.5941 24.3951 34.9791 22.8148 37.7292 22.8148C40.1207 22.8148 40.868 23.8519 40.868 24.4444C40.868 25.037 40.001 26.2222 37.7292 26.2222C35.4575 26.2222 33.7934 25.5309 33.2453 25.1852Z" fill="#18181E"/>
<path fill-rule="evenodd" clip-rule="evenodd" d="M32.0496 33.1852L23.8795 32.1481C23.4809 34.321 24.029 39.0222 29.4097 40.4444C28.8118 40.8395 26.9884 41.6296 24.4774 41.6296C22.8753 41.6296 21.188 40.9059 19.9046 40.1511C19.11 39.6837 18.018 40.1037 18.002 41.0194C17.9479 44.1106 18.9584 48 23.2817 48C24.8865 48 25.9266 47.8386 27.0357 47.6664C28.3023 47.4698 29.659 47.2593 32.0496 47.2593C34.4403 47.2593 35.7687 47.4698 37.009 47.6664C38.0951 47.8386 39.1135 48 40.7183 48C45.0416 48 46.0521 44.1106 45.998 41.0194C45.982 40.1037 44.89 39.6837 44.0954 40.1511C42.812 40.9059 41.1247 41.6296 39.5226 41.6296C37.0116 41.6296 35.1882 40.8395 34.5903 40.4444C39.971 39.0222 40.5191 34.321 40.1205 32.1481L32.0496 33.1852ZM28.4625 35.8519C28.4625 35.8519 29.8077 34.8148 32.0496 34.8148C34.2916 34.8148 35.6368 35.8519 35.6368 35.8519C35.6368 35.8519 34.5905 37.4815 32.0496 37.4815C29.5087 37.4815 28.4625 35.8519 28.4625 35.8519Z" fill="#18181E"/>
</svg>
