<svg width="64" height="64" viewBox="0 0 64 64" fill="none" xmlns="http://www.w3.org/2000/svg">
<rect x="1" y="1" width="62" height="62" rx="31" stroke="#18181E" stroke-width="2"/>
<path fill-rule="evenodd" clip-rule="evenodd" d="M16 32.8947C16 20.8565 25.12 15 32 15C38.88 15 48 20.8565 48 32.8947C48 47.0804 37.92 49 32 49C26.08 49 16 47.0804 16 32.8947ZM30.24 27.5263C30.24 26.8756 29.248 26.0622 26.56 26.0622C23.872 26.0622 22.4 26.7129 22.4 27.5263C22.4 28.3397 24.256 28.8278 26.56 28.8278C28.864 28.8278 30.24 28.177 30.24 27.5263ZM32 37.2871C30.56 37.2871 27.68 37.6124 27.68 38.7512C27.68 39.89 30.56 40.1069 32 40.0526C33.44 40.1069 36.32 39.89 36.32 38.7512C36.32 37.6124 33.44 37.2871 32 37.2871ZM33.76 27.5263C33.76 26.8756 34.752 26.0622 37.44 26.0622C40.128 26.0622 41.6 26.7129 41.6 27.5263C41.6 28.3397 39.744 28.8278 37.44 28.8278C35.136 28.8278 33.76 28.177 33.76 27.5263ZM35.753 33.3137L35.3506 31.6772L34.7297 31.835L35.1321 33.4715C35.2836 34.0876 34.8253 34.6843 34.2007 34.6843H29.9595C29.335 34.6843 28.8767 34.0876 29.0282 33.4715L29.4306 31.835L28.8097 31.6772L28.4073 33.3137C28.1549 34.3404 28.9186 35.335 29.9595 35.335H34.2007C35.2417 35.335 36.0054 34.3404 35.753 33.3137Z" fill="#18181E"/>
</svg>
