<svg width="64" height="64" viewBox="0 0 64 64" fill="none" xmlns="http://www.w3.org/2000/svg">
<rect x="1" y="1" width="62" height="62" rx="31" stroke="#18181E" stroke-width="2"/>
<path d="M11 32.9393C11 22.0359 22.037 19.7899 28.2715 20.0148C28.7337 20.0315 29.0861 20.4065 29.0861 20.8557C29.0861 21.0948 28.9836 21.3232 28.8031 21.4859L27.3772 22.7717C26.6729 23.4067 26.2727 24.2979 26.2727 25.2311C26.2727 26.1644 26.6729 27.0555 27.3772 27.6906L28.7008 28.8841C28.9465 29.1057 29.0861 29.4166 29.0861 29.7421V30.55C29.0861 31.1361 28.6399 31.6318 28.0419 31.7103L24.0874 32.2292C22.6918 32.4124 21.6507 33.5692 21.6507 34.9366V34.9925C21.6507 36.1096 22.3511 37.1142 23.4192 37.5291L27.6736 39.1816C28.284 39.4187 28.6842 39.9927 28.6842 40.6311V41.7207C28.6842 43.014 27.6055 44.0709 26.2759 43.9963C19.7934 43.6324 11 41.5642 11 32.9393Z" fill="#18181E"/>
<path d="M53 32.9393C53 22.0359 41.963 19.7899 35.7285 20.0148C35.2663 20.0315 34.9139 20.4065 34.9139 20.8557C34.9139 21.0948 35.0164 21.3232 35.1969 21.4859L36.6228 22.7717C37.3271 23.4067 37.7273 24.2979 37.7273 25.2311C37.7273 26.1644 37.3271 27.0555 36.6228 27.6906L35.2992 28.8841C35.0535 29.1057 34.9139 29.4166 34.9139 29.7421V30.55C34.9139 31.1361 35.3601 31.6318 35.9581 31.7103L39.9126 32.2292C41.3082 32.4124 42.3493 33.5692 42.3493 34.9366V34.9925C42.3493 36.1096 41.6489 37.1142 40.5808 37.5291L36.3264 39.1816C35.716 39.4187 35.3158 39.9927 35.3158 40.6311V41.7207C35.3158 43.014 36.3945 44.0709 37.7241 43.9963C44.2066 43.6324 53 41.5642 53 32.9393Z" fill="#18181E"/>
</svg>
