<svg width="64" height="64" viewBox="0 0 64 64" fill="none" xmlns="http://www.w3.org/2000/svg">
<rect x="1" y="1" width="62" height="62" rx="31" stroke="#18181E" stroke-width="2"/>
<path d="M32 26.2C29.8462 26.2667 25.2154 25.72 23.9231 23C23.1827 23.8 19.7635 25.32 12.0096 25C11.6731 25.6 11 27.12 11 28.4C11 28.903 11.1039 29.4843 11.2506 30.0491C11.6237 31.4867 12.7009 32.6039 13.9907 33.3596C19.2637 36.4491 27.1982 41 32 41C36.8018 41 44.7363 36.4491 50.0093 33.3596C51.2991 32.6039 52.3763 31.4867 52.7494 30.0491C52.896 29.4843 53 28.903 53 28.4C53 27.12 52.3269 25.6 51.9904 25C44.2365 25.32 40.8173 23.8 40.0769 23C38.7846 25.72 34.1538 26.2667 32 26.2Z" fill="#18181E"/>
</svg>
