<svg width="64" height="64" viewBox="0 0 64 64" fill="none" xmlns="http://www.w3.org/2000/svg">
<rect x="1" y="1" width="62" height="62" rx="31" stroke="#18181E" stroke-width="2"/>
<path fill-rule="evenodd" clip-rule="evenodd" d="M32 15.0017C26.9509 15.127 17.2899 18.1926 16.1402 29.2305C16.009 30.4904 16.9738 31.5554 18.2147 31.6784L22.2349 32.0769C23.4461 32.2308 26.0199 32.7231 26.6255 33.4615L27.6853 31.7692V34.2308C27.8854 34.841 29.0284 36.0563 32 36.0767C34.9716 36.0563 36.1146 34.841 36.3147 34.2308V31.7692L37.3745 33.4615C37.9801 32.7231 40.5539 32.2308 41.7651 32.0769L45.7853 31.6784C47.0262 31.5554 47.991 30.4904 47.8598 29.2305C46.7101 18.1926 37.0491 15.127 32 15.0017ZM25.5657 23.7692C29.0781 23.7692 30.2591 25.7179 30.4105 26.6923C30.5619 27.6667 29.6535 28.5385 27.6853 28.5385C22.7194 28.5385 21.9826 26.6923 22.2349 25.7692C22.3863 25.1026 23.2644 23.7692 25.5657 23.7692ZM38.4343 23.7692C34.9219 23.7692 33.7409 25.7179 33.5896 26.6923C33.4382 27.6667 34.3465 28.5385 36.3147 28.5385C41.2806 28.5385 42.0174 26.6923 41.7651 25.7692C41.6137 25.1026 40.7356 23.7692 38.4343 23.7692Z" fill="#18181E"/>
<path fill-rule="evenodd" clip-rule="evenodd" d="M32.0758 37.4615H31.9242H31.2965C30.1317 37.4615 28.9983 37.0776 28.0665 36.3675C27.8153 36.176 27.5266 36.0413 27.2199 35.9725L17.0424 33.6892C16.5053 33.5687 15.9856 33.9576 16.0003 34.5163C16.1485 40.1645 20.792 48.9604 32 48.9999C43.208 48.9604 47.8515 40.1645 47.9997 34.5163C48.0144 33.9576 47.4947 33.5687 46.9576 33.6892L36.7801 35.9725C36.4734 36.0413 36.1847 36.176 35.9335 36.3675C35.0017 37.0776 33.8683 37.4615 32.7035 37.4615H32.0758ZM26.6255 41.4615C26.6255 39.8835 30.16 39.5725 32 39.6135C33.84 39.5725 37.3745 39.8835 37.3745 41.4615C37.3745 43.0396 33.84 43.4503 32 43.4613C30.16 43.4503 26.6255 43.0396 26.6255 41.4615Z" fill="#18181E"/>
</svg>
