<svg width="24" height="21" viewBox="0 0 24 21" fill="none" xmlns="http://www.w3.org/2000/svg">
<path fill-rule="evenodd" clip-rule="evenodd" d="M4.19592 0.498157C5.01724 0.169118 5.89709 0 6.78518 0C7.67327 0 8.55311 0.169118 9.37443 0.498157C10.1958 0.827208 10.9431 1.31001 11.5731 1.9199L11.5753 1.922L12 2.33714L12.4248 1.92201L12.4269 1.9199C13.0569 1.31001 13.8042 0.827208 14.6256 0.498157C15.4469 0.169118 16.3267 0 17.2148 0C18.1029 0 18.9828 0.169118 19.8041 0.498157C20.6253 0.827139 21.3725 1.3098 22.0023 1.91951C24.6931 4.51599 24.7904 8.85112 21.5295 12.0561L21.5253 12.0603L12.4461 20.82C12.1973 21.06 11.8027 21.06 11.5539 20.82L2.47045 12.0561C-0.790398 8.85112 -0.693064 4.51594 1.99772 1.91946C2.62757 1.30978 3.37476 0.82713 4.19592 0.498157ZM6.78518 1.28169C6.0601 1.28169 5.34264 1.41981 4.67412 1.68763C4.00563 1.95544 3.39992 2.34738 2.89116 2.83995L2.89036 2.84072C0.770074 4.8864 0.572036 8.38967 3.36918 11.1408C3.36987 11.1415 3.37057 11.1421 3.37127 11.1428L12 19.4679L20.6287 11.1428C20.6294 11.1421 20.6302 11.1414 20.6309 11.1407C23.428 8.38965 23.2299 4.88639 21.1097 2.84072L21.1089 2.83995C20.6001 2.34738 19.9944 1.95544 19.3259 1.68763C18.6574 1.41981 17.9399 1.28169 17.2148 1.28169C16.4898 1.28169 15.7723 1.41981 15.1038 1.68763C14.4358 1.95526 13.8304 2.34684 13.3219 2.83893C13.3215 2.83927 13.3212 2.83961 13.3208 2.83995L12.4491 3.69191C12.1996 3.93581 11.8005 3.93581 11.5509 3.69191L10.6792 2.83995C10.6788 2.83961 10.6785 2.83927 10.6781 2.83893C10.1696 2.34684 9.56426 1.95526 8.89623 1.68763C8.22772 1.41981 7.51026 1.28169 6.78518 1.28169Z" fill="black"/>
<path d="M4.67412 1.68763C5.34264 1.41981 6.0601 1.28169 6.78518 1.28169C7.51026 1.28169 8.22772 1.41981 8.89623 1.68763C9.56426 1.95526 10.1696 2.34684 10.6781 2.83893C10.6785 2.83927 10.6788 2.83961 10.6792 2.83995L11.5509 3.69191C11.8005 3.93581 12.1996 3.93581 12.4491 3.69191L13.3208 2.83995C13.3212 2.83961 13.3215 2.83927 13.3219 2.83893C13.8304 2.34684 14.4358 1.95526 15.1038 1.68763C15.7723 1.41981 16.4898 1.28169 17.2148 1.28169C17.9399 1.28169 18.6574 1.41981 19.3259 1.68763C19.9944 1.95544 20.6001 2.34738 21.1089 2.83995L21.1097 2.84072C23.2299 4.88639 23.428 8.38965 20.6309 11.1407L20.6287 11.1428L12 19.4679L3.37127 11.1428C3.37057 11.1421 3.36987 11.1415 3.36918 11.1408C0.572036 8.38967 0.770074 4.8864 2.89036 2.84072L2.89116 2.83995C3.39992 2.34738 4.00563 1.95544 4.67412 1.68763Z" fill="black"/>
</svg>
