<svg width="24" height="22" viewBox="0 0 24 22" fill="none" xmlns="http://www.w3.org/2000/svg">
<path fill-rule="evenodd" clip-rule="evenodd" d="M4.19592 0.998157C5.01724 0.669118 5.89709 0.5 6.78518 0.5C7.67327 0.5 8.55311 0.669118 9.37443 0.998157C10.1958 1.32721 10.9431 1.81001 11.5731 2.4199L11.5753 2.422L12 2.83714L12.4248 2.42201L12.4269 2.4199C13.0569 1.81001 13.8042 1.32721 14.6256 0.998157C15.4469 0.669118 16.3267 0.5 17.2148 0.5C18.1029 0.5 18.9828 0.669118 19.8041 0.998157C20.6253 1.32714 21.3725 1.8098 22.0023 2.41951C24.6931 5.01599 24.7904 9.35112 21.5295 12.5561L21.5253 12.5603L12.4461 21.32C12.1973 21.56 11.8027 21.56 11.5539 21.32L2.47045 12.5561C-0.790398 9.35112 -0.693064 5.01594 1.99772 2.41946C2.62757 1.80978 3.37476 1.32713 4.19592 0.998157ZM6.78518 1.78169C6.0601 1.78169 5.34264 1.91981 4.67412 2.18763C4.00563 2.45544 3.39992 2.84738 2.89116 3.33995L2.89036 3.34072C0.770075 5.3864 0.572036 8.88967 3.36918 11.6408L3.37127 11.6428L12 19.9679L20.6287 11.6428L20.6309 11.6407C23.428 8.88965 23.2299 5.38639 21.1097 3.34072L21.1089 3.33995C20.6001 2.84738 19.9944 2.45544 19.3259 2.18763C18.6574 1.91981 17.9399 1.78169 17.2148 1.78169C16.4898 1.78169 15.7723 1.91981 15.1038 2.18763C14.4358 2.45526 13.8304 2.84684 13.3219 3.33893L13.3208 3.33995L12.4491 4.19191C12.1996 4.43581 11.8005 4.43581 11.5509 4.19191L10.6792 3.33995L10.6781 3.33893C10.1696 2.84684 9.56426 2.45526 8.89623 2.18763C8.22772 1.91981 7.51026 1.78169 6.78518 1.78169Z" fill="white"/>
</svg>