<?xml version="1.0" standalone="no"?>
<!DOCTYPE svg PUBLIC "-//W3C//DTD SVG 20010904//EN"
 "http://www.w3.org/TR/2001/REC-SVG-20010904/DTD/svg10.dtd">
<svg version="1.0" xmlns="http://www.w3.org/2000/svg"
 width="260.000000pt" height="260.000000pt" viewBox="0 0 260.000000 260.000000"
 preserveAspectRatio="xMidYMid meet">
<metadata>
Created by potrace 1.14, written by Peter Selinger 2001-2017
</metadata>
<g transform="translate(0.000000,260.000000) scale(0.100000,-0.100000)"
fill="#000000" stroke="none">
<path d="M1241 2574 c-25 -21 -31 -33 -31 -65 0 -55 34 -89 90 -89 55 0 90 34
90 87 -1 84 -85 121 -149 67z"/>
<path d="M570 2375 c-98 -28 -96 -25 -42 -78 l49 -48 65 11 c203 32 391 -109
414 -311 4 -32 8 -59 10 -59 10 0 118 30 122 34 2 3 -3 37 -11 75 -43 189
-166 322 -346 375 -65 19 -197 20 -261 1z"/>
<path d="M1777 2380 c-117 -30 -249 -132 -305 -238 -45 -84 -65 -180 -59 -275
7 -101 49 -193 141 -302 67 -81 106 -166 106 -235 l0 -28 62 19 c34 11 64 21
66 23 1 2 -4 33 -12 70 -21 90 -63 168 -131 246 -82 93 -99 135 -100 245 0 82
3 96 33 157 72 146 227 226 383 198 l62 -11 48 47 49 48 -47 20 c-55 22 -233
31 -296 16z"/>
<path d="M251 2101 c-21 -38 -41 -136 -41 -196 1 -238 184 -443 426 -476 146
-21 283 24 409 132 72 62 140 96 213 105 44 5 52 9 47 23 -4 9 -11 35 -18 59
-10 38 -14 42 -43 42 -84 0 -219 -64 -299 -140 -22 -22 -67 -52 -100 -67 -51
-24 -73 -28 -145 -28 -72 0 -94 4 -147 29 -74 34 -154 113 -185 183 -26 59
-35 176 -18 227 14 42 10 48 -51 97 -36 29 -38 29 -48 10z"/>
<path d="M2288 2072 c-43 -45 -45 -49 -36 -82 17 -59 4 -172 -25 -233 -54
-109 -171 -189 -300 -204 -37 -5 -47 -9 -42 -21 3 -8 10 -34 16 -58 11 -42 13
-44 49 -44 85 0 233 70 306 146 93 98 143 238 131 372 -6 65 -31 157 -46 167
-4 2 -28 -17 -53 -43z"/>
<path d="M55 1396 c-53 -23 -71 -93 -35 -139 40 -51 126 -43 156 15 39 76 -42
159 -121 124z"/>
<path d="M1264 1400 c-59 -24 -72 -104 -25 -151 37 -37 79 -38 120 -3 77 64
-2 192 -95 154z"/>
<path d="M2480 1403 c-54 -20 -81 -83 -56 -131 30 -57 103 -66 152 -17 43 43
22 123 -37 144 -35 12 -37 12 -59 4z"/>
<path d="M875 1306 c-33 -11 -61 -20 -62 -20 -1 -1 4 -31 12 -68 18 -87 61
-169 129 -247 85 -98 101 -137 101 -251 0 -85 -3 -101 -29 -153 -74 -146 -243
-231 -396 -198 l-54 12 -50 -50 -49 -49 69 -22 c173 -55 367 -12 492 110 104
100 147 206 147 361 0 104 -1 107 -42 190 -23 46 -68 113 -99 149 -64 72 -81
107 -98 195 l-11 60 -60 -19z"/>
<path d="M571 1184 c-273 -73 -428 -368 -331 -628 l22 -58 49 48 c47 47 49 51
39 84 -15 52 -12 140 7 196 46 137 143 217 299 246 50 9 63 15 59 26 -3 8 -10
34 -16 58 -10 40 -14 44 -43 43 -17 0 -55 -7 -85 -15z"/>
<path d="M1742 1180 c-66 -24 -106 -48 -190 -117 -78 -65 -137 -93 -210 -100
-37 -4 -52 -10 -48 -18 2 -7 10 -33 17 -56 7 -24 15 -48 19 -52 11 -13 134 20
199 53 32 16 85 52 118 81 72 63 111 84 191 99 74 15 159 2 232 -35 58 -29
135 -112 162 -173 25 -55 35 -170 20 -223 -9 -36 -8 -38 37 -83 26 -25 49 -46
53 -46 14 0 40 100 45 175 7 97 -6 163 -49 250 -56 116 -163 207 -287 245 -86
27 -235 27 -309 0z"/>
<path d="M1465 722 c-27 -9 -52 -17 -54 -18 -2 -2 4 -35 12 -73 41 -181 164
-321 328 -372 85 -26 216 -26 304 2 l68 21 -49 49 -50 50 -54 -12 c-141 -30
-302 41 -376 168 -28 46 -54 131 -54 176 0 31 -5 31 -75 9z"/>
<path d="M1235 155 c-36 -35 -34 -88 4 -126 37 -37 79 -38 120 -3 41 34 44 92
6 129 -34 35 -96 35 -130 0z"/>
</g>
</svg>
