<svg width="230" height="230" viewBox="0 0 230 230" fill="none" xmlns="http://www.w3.org/2000/svg">
<path fill-rule="evenodd" clip-rule="evenodd" d="M96.1974 73.0157C96.0771 73.0308 95.6333 73.0985 95.2197 73.1662C94.806 73.2339 94.1442 73.3693 93.7531 73.467C93.362 73.5573 92.6625 73.783 92.2113 73.9485C91.76 74.1215 90.9929 74.46 90.5191 74.6931C90.0452 74.9338 89.3834 75.2949 89.0524 75.4905C88.7215 75.6936 88.2627 75.9794 88.0371 76.1223C87.8115 76.2728 87.3903 76.5586 87.097 76.7692C86.8037 76.9723 86.2847 77.3785 85.9312 77.6794C85.5777 77.9727 84.9986 78.5143 84.6376 78.8829C84.2766 79.2515 83.8554 79.7254 83.705 79.9285C83.5471 80.1316 83.2913 80.5603 83.1409 80.8687C82.9905 81.1771 82.7799 81.651 82.6897 81.9218C82.5392 82.3355 82.5091 82.5612 82.5091 83.351V84.2913C83.0055 85.2541 83.2688 85.5926 83.705 86.0289C84.0359 86.3598 84.5248 86.7735 84.7805 86.9465C85.0437 87.1195 85.2543 87.285 85.2543 87.3151C85.2543 87.3527 84.8933 87.5634 84.4496 87.7965C83.9983 88.0297 83.3515 88.3757 82.998 88.5788C82.6445 88.7744 82.1707 89.0527 81.9451 89.2032C81.8251 89.2792 81.6498 89.3934 81.4679 89.5121L81.4668 89.5128L81.466 89.5133L81.4626 89.5155L81.4601 89.5172L81.457 89.5192L81.4537 89.5213C81.298 89.6229 81.1383 89.727 81.0049 89.8124C80.7116 90.0005 80.1551 90.4142 79.764 90.7226C79.3729 91.0385 78.6659 91.6854 78.1996 92.1593C77.7258 92.6257 77.094 93.3553 76.7856 93.769C76.6363 93.9694 76.487 94.1715 76.3641 94.3378L76.3606 94.3426L76.3578 94.3464C76.23 94.5193 76.1319 94.6522 76.0937 94.7018C76.026 94.7996 75.838 95.1004 75.6801 95.3788C75.5221 95.6495 75.2363 96.1987 75.0408 96.5898C74.8452 96.9809 74.5895 97.5376 74.4692 97.8309C74.3891 98.0393 74.2862 98.2931 74.2064 98.4901L74.206 98.491L74.2038 98.4963L74.2013 98.5025C74.1708 98.5778 74.1439 98.6443 74.1232 98.696C74.048 98.884 73.9201 99.2526 73.8374 99.5234C73.7547 99.7942 73.5967 100.351 73.4914 100.765C73.3937 101.178 73.2658 101.772 73.2207 102.081C73.1887 102.299 73.1455 102.669 73.1042 103.02C73.0872 103.165 73.0706 103.308 73.0552 103.435C73.0026 104.007 73.0026 104.48 73.0627 105.165C73.1079 105.684 73.1756 106.21 73.2056 106.331L73.2658 106.557C74.063 105.737 76.3269 103.442 78.8239 100.915C79.3372 100.394 79.8401 99.8834 80.317 99.3994L80.3402 99.3758C82.1649 97.5239 83.605 96.0623 83.7952 95.8602C83.9809 95.6629 85.3431 94.2844 87.0849 92.5219L87.0874 92.5193L87.097 92.5096L87.1944 92.411L87.2898 92.3145C87.7459 91.8529 88.2252 91.3679 88.714 90.873C91.1734 88.3833 93.2116 86.3072 93.2417 86.2545C93.2717 86.2094 93.2567 86.1492 93.2041 86.1191C93.1514 86.089 93.0386 86.0589 92.9408 86.0589C92.8506 86.0589 92.5497 85.9687 92.2639 85.8483C91.9856 85.7355 91.6096 85.5249 91.4216 85.3895C91.2335 85.2466 90.9177 84.9532 90.7221 84.7501C90.5191 84.5395 90.2257 84.1483 90.0678 83.8776C89.9098 83.6068 89.6842 83.1178 89.5714 82.7869C89.4435 82.3807 89.3608 81.9519 89.3307 81.4705C89.3082 81.0342 89.3307 80.5679 89.3834 80.267C89.436 79.9962 89.5488 79.605 89.6391 79.4019C89.7218 79.1913 89.8722 78.9205 89.97 78.8002C90.0603 78.6723 90.143 78.5369 90.143 78.4993C90.1505 78.4542 90.3235 78.221 90.5341 77.9727C90.7447 77.7245 91.1207 77.3259 91.3764 77.0851C91.6322 76.8444 92.1586 76.4006 92.5497 76.0998C92.9408 75.8064 93.4974 75.4228 93.7907 75.2648C94.084 75.0993 94.5503 74.8737 94.8436 74.7533C95.137 74.6405 95.6033 74.4976 95.8966 74.4374C96.1899 74.3772 96.4306 74.3396 96.4456 74.3471C96.4531 74.3546 96.2877 74.4976 96.0696 74.6706C95.8515 74.8361 95.513 75.1745 95.325 75.4228C95.1294 75.6635 94.8963 76.0546 94.7985 76.2803C94.6556 76.6188 94.6255 76.8294 94.6255 77.4838C94.6255 78.1307 94.6556 78.3489 94.7985 78.6873C94.8963 78.913 95.0768 79.2365 95.2046 79.4019C95.34 79.5674 95.6484 79.8984 95.8966 80.1391C96.1523 80.3873 96.5434 80.6656 96.7991 80.786C97.0473 80.9063 97.4384 81.0417 97.664 81.1019C97.8897 81.1546 98.3635 81.1922 98.717 81.1847C99.0705 81.1847 99.5217 81.1395 99.7323 81.0869C99.9354 81.0417 100.259 80.9214 100.447 80.8311C100.635 80.7409 101.041 80.4625 101.349 80.2143C101.658 79.9661 102.041 79.6126 102.207 79.432C102.365 79.2515 102.613 78.928 102.748 78.725C102.884 78.5143 103.087 78.1006 103.192 77.7997C103.327 77.4011 103.38 77.1002 103.38 76.6714C103.38 76.3555 103.335 75.9192 103.275 75.7161C103.215 75.5055 103.019 75.1219 102.838 74.8586C102.583 74.4825 102.38 74.2945 101.913 73.9861C101.582 73.7754 101.161 73.5423 100.973 73.4746C100.785 73.4069 100.334 73.279 99.9579 73.1887C99.4315 73.0684 98.9652 73.0308 97.852 73.0082C97.0623 72.9932 96.3178 73.0007 96.1974 73.0157ZM180.997 78.5143C180.809 78.5294 180.358 78.5896 179.982 78.6573C179.606 78.725 179.004 78.8829 178.628 79.0033C178.252 79.1311 177.748 79.3342 177.5 79.4546C177.252 79.5825 176.763 79.8683 176.409 80.1015C176.056 80.3347 175.431 80.8687 175.01 81.2824C174.597 81.6962 174.1 82.2754 173.912 82.5612C173.724 82.847 173.423 83.3736 173.25 83.7271C173.07 84.0806 172.882 84.5019 172.822 84.6674C172.762 84.8328 172.664 85.1563 172.596 85.382C172.536 85.6076 172.438 86.1041 172.378 86.4727C172.325 86.8412 172.273 87.4204 172.273 87.7514C172.273 88.0824 172.31 88.639 172.355 88.9925C172.393 89.3461 172.483 89.8501 172.551 90.1208C172.611 90.3916 172.746 90.8279 172.852 91.0987C172.95 91.3695 173.175 91.8584 173.341 92.1894C173.506 92.5204 173.814 93.0244 174.018 93.3177C174.228 93.6111 174.687 94.1376 175.048 94.4911C175.401 94.8447 175.913 95.2885 176.184 95.4765C176.454 95.6646 176.891 95.9354 177.161 96.0858C177.432 96.2363 177.974 96.477 178.365 96.6349C178.756 96.7854 179.41 96.9734 179.809 97.0486C180.313 97.1464 180.869 97.1916 181.576 97.1916C182.148 97.1916 182.832 97.154 183.103 97.1163C183.374 97.0712 183.893 96.9509 184.269 96.8456C184.645 96.7402 185.246 96.5071 185.622 96.3341C185.999 96.161 186.555 95.8526 186.863 95.642C187.172 95.4389 187.766 94.935 188.187 94.5212C188.601 94.1075 189.105 93.5359 189.308 93.2425C189.503 92.9491 189.812 92.4301 189.992 92.0766C190.173 91.723 190.421 91.1138 190.549 90.7226C190.684 90.3315 190.835 89.6545 190.895 89.2182C190.947 88.7819 191 88.1425 191 87.789C191 87.4355 190.947 86.8262 190.887 86.435C190.819 86.0439 190.699 85.4797 190.609 85.1939C190.526 84.9081 190.338 84.3966 190.195 84.0656C190.045 83.7346 189.706 83.1253 189.428 82.7116C189.157 82.2979 188.631 81.651 188.255 81.2674C187.856 80.8612 187.285 80.3798 186.863 80.1015C186.472 79.8382 185.826 79.4847 185.434 79.3117C185.043 79.1387 184.397 78.913 184.005 78.8077C183.614 78.7024 183.02 78.5971 182.689 78.5745C182.358 78.5519 181.915 78.5219 181.712 78.5143C181.501 78.4993 181.185 78.4993 180.997 78.5143ZM39 92.9416V92.212V91.4748H45.077C48.5216 91.4748 51.4473 91.5124 51.8459 91.55C52.222 91.5952 52.8011 91.6779 53.1245 91.7381C53.4404 91.8058 53.9744 91.9487 54.3053 92.054C54.6362 92.1593 55.1251 92.3549 55.3958 92.4903C55.6666 92.6257 56.0878 92.8965 56.336 93.1071C56.5842 93.3102 56.9452 93.7089 57.1332 93.9947C57.3212 94.2881 57.5168 94.6265 57.5619 94.7469C57.607 94.8673 57.6973 95.1757 57.765 95.4239C57.8477 95.6947 57.9003 96.1761 57.9003 96.6274C57.9079 97.0411 57.8627 97.5677 57.8101 97.7933C57.7499 98.019 57.607 98.4101 57.4792 98.6584C57.3588 98.9066 57.1558 99.2451 57.0279 99.4106C56.9 99.576 56.6744 99.8393 56.5315 99.9973C56.3811 100.155 56.0427 100.449 55.7719 100.644C55.5011 100.847 55.1176 101.103 54.907 101.216C54.7039 101.329 54.2451 101.517 53.8916 101.637C53.5381 101.75 53.3276 101.848 53.4253 101.848C53.5156 101.855 53.8691 101.923 54.2075 102.013C54.5535 102.096 55.0499 102.261 55.3206 102.367C55.5914 102.472 56.0276 102.69 56.2984 102.841C56.5691 102.999 57.0053 103.322 57.2686 103.563C57.5318 103.803 57.8402 104.134 57.953 104.3C58.0658 104.465 58.2839 104.834 58.4268 105.127C58.5772 105.421 58.7653 105.91 58.8555 106.218C58.9759 106.632 59.0285 107.076 59.0586 107.91C59.0887 108.873 59.0736 109.152 58.9382 109.791C58.8405 110.272 58.675 110.761 58.4795 111.145C58.314 111.476 58.0132 111.95 57.8176 112.198C57.6145 112.446 57.2686 112.792 57.0429 112.965C56.8173 113.138 56.3961 113.409 56.1103 113.575C55.8245 113.733 55.3432 113.958 55.0574 114.064C54.7716 114.169 54.2602 114.327 53.9292 114.417C53.5983 114.5 52.959 114.62 52.5002 114.688C51.8234 114.786 50.4921 114.816 39 114.906V112.988L39.8499 112.965C40.5569 112.95 40.7223 112.928 40.8953 112.8C41.0081 112.717 41.151 112.499 41.2187 112.311C41.3165 112.01 41.3315 110.904 41.3315 102.871C41.3315 93.9044 41.3315 93.769 41.1811 93.5283C41.0984 93.3929 40.9028 93.2274 40.7524 93.1597C40.5869 93.0845 40.1507 93.0168 39 92.9416ZM105.727 135.652L105.749 139.511H106.426C106.622 138.578 106.757 138.096 106.847 137.856C106.93 137.607 107.141 137.126 107.306 136.803C107.479 136.472 107.757 136.013 107.93 135.787C108.103 135.554 108.381 135.238 108.539 135.073C108.705 134.915 109.006 134.659 109.209 134.501C109.419 134.35 109.773 134.132 109.999 134.019C110.224 133.907 110.615 133.741 110.863 133.658C111.179 133.553 111.608 133.5 112.292 133.47C113.06 133.44 113.375 133.463 113.759 133.561C114.03 133.628 114.451 133.779 114.699 133.884C114.947 133.997 115.338 134.245 115.564 134.426C115.79 134.614 116.053 134.847 116.151 134.952C116.241 135.058 116.467 135.351 116.655 135.599C116.835 135.84 117.121 136.336 117.286 136.69C117.452 137.036 117.708 137.683 117.85 138.119C117.993 138.548 118.166 139.157 118.227 139.473C118.287 139.781 118.392 140.436 118.452 140.94C118.512 141.436 118.572 142.076 118.58 142.369L118.603 142.895L110.337 142.971L110.299 144.663H118.572C118.572 145.852 118.535 146.589 118.497 147.07C118.452 147.544 118.347 148.274 118.264 148.687C118.181 149.101 118.046 149.673 117.963 149.966C117.881 150.252 117.693 150.779 117.542 151.132C117.392 151.478 117.128 151.997 116.948 152.275C116.767 152.554 116.406 152.998 116.151 153.253C115.887 153.517 115.474 153.848 115.226 153.998C114.977 154.141 114.556 154.337 114.285 154.434C114.015 154.525 113.473 154.637 113.082 154.683C112.556 154.743 112.18 154.743 111.653 154.683C111.262 154.63 110.736 154.54 110.487 154.472C110.239 154.404 109.871 154.269 109.66 154.164C109.457 154.066 109.066 153.817 108.795 153.614C108.524 153.411 108.051 152.998 107.742 152.697C107.434 152.388 106.99 151.937 106.764 151.674L106.351 151.215C105.742 151.817 105.561 152.027 105.561 152.072C105.569 152.11 105.704 152.328 105.877 152.561C106.05 152.787 106.298 153.088 106.426 153.231C106.546 153.374 106.922 153.765 107.253 154.088C107.584 154.419 108.058 154.825 108.306 155.006C108.554 155.187 109.043 155.465 109.397 155.63C109.75 155.796 110.36 156.014 110.751 156.119C111.142 156.225 111.728 156.345 112.052 156.39C112.368 156.435 113.007 156.473 113.458 156.473C113.917 156.473 114.669 156.413 115.135 156.352C115.594 156.285 116.331 156.112 116.767 155.969C117.204 155.826 117.798 155.593 118.084 155.45C118.377 155.299 118.828 155.044 119.099 154.863C119.37 154.69 119.671 154.487 119.776 154.404C119.881 154.321 120.317 153.9 120.754 153.464C121.25 152.967 121.746 152.381 122.077 151.877C122.371 151.448 122.739 150.801 122.912 150.455C123.078 150.102 123.318 149.522 123.454 149.169C123.581 148.823 123.747 148.296 123.83 148.01C123.912 147.717 124.033 147.123 124.1 146.694C124.168 146.258 124.236 145.408 124.266 144.814C124.288 144.167 124.273 143.302 124.221 142.707C124.168 142.143 124.063 141.353 123.98 140.94C123.897 140.526 123.709 139.826 123.566 139.398C123.424 138.961 123.13 138.269 122.92 137.856C122.717 137.442 122.333 136.78 122.07 136.389C121.814 135.99 121.295 135.351 120.934 134.96C120.566 134.576 120.009 134.065 119.701 133.824C119.392 133.591 118.783 133.207 118.347 132.974C117.911 132.748 117.189 132.432 116.73 132.282C116.279 132.139 115.617 131.966 115.263 131.906C114.91 131.846 114.263 131.793 113.819 131.793C113.368 131.793 112.759 131.831 112.465 131.876C112.165 131.921 111.593 132.041 111.202 132.139C110.811 132.237 110.081 132.477 109.585 132.666C109.088 132.854 108.494 133.064 108.269 133.124C108.02 133.192 107.72 133.222 107.517 133.2C107.329 133.177 107.11 133.094 107.028 133.012C106.945 132.929 106.764 132.628 106.637 132.335L106.388 131.8H105.712L105.727 135.652ZM155.493 132.237C155.892 132.116 156.516 131.973 156.885 131.913C157.261 131.853 157.96 131.808 158.449 131.8C158.938 131.793 159.577 131.831 159.878 131.876C160.179 131.921 160.743 132.034 161.134 132.131C161.533 132.237 162.187 132.455 162.601 132.628C163.014 132.793 163.654 133.049 164.015 133.192C164.376 133.335 164.789 133.448 164.932 133.448C165.083 133.448 165.316 133.373 165.459 133.282C165.601 133.185 165.782 132.966 165.872 132.793C165.955 132.613 166.053 132.32 166.135 131.793H166.925V140.067H166.098L166.053 139.789C166.03 139.631 165.925 139.217 165.827 138.864C165.722 138.51 165.504 137.938 165.338 137.585C165.173 137.231 164.879 136.712 164.684 136.419C164.496 136.126 164.082 135.637 163.766 135.328C163.45 135.02 162.924 134.606 162.601 134.403C162.27 134.208 161.766 133.967 161.472 133.862C161.187 133.764 160.63 133.643 160.231 133.591C159.69 133.531 159.359 133.531 158.84 133.598C158.472 133.643 157.945 133.771 157.674 133.877C157.411 133.989 156.952 134.215 156.666 134.381C156.388 134.554 155.877 134.96 155.538 135.291C155.207 135.622 154.771 136.126 154.576 136.419C154.38 136.712 154.102 137.231 153.951 137.585C153.801 137.938 153.598 138.495 153.5 138.826C153.402 139.157 153.237 139.849 153.132 140.368C153.034 140.887 152.906 141.782 152.861 142.361C152.801 143.001 152.786 143.873 152.816 144.58C152.838 145.22 152.898 146.047 152.944 146.423C152.981 146.799 153.071 147.401 153.132 147.777C153.192 148.153 153.327 148.793 153.425 149.206C153.53 149.62 153.703 150.177 153.809 150.448C153.914 150.718 154.087 151.125 154.192 151.35C154.297 151.576 154.531 151.967 154.704 152.215C154.884 152.464 155.155 152.802 155.32 152.975C155.478 153.141 155.764 153.404 155.944 153.547C156.133 153.697 156.486 153.915 156.734 154.043C156.982 154.164 157.479 154.337 157.825 154.427C158.329 154.555 158.69 154.592 159.464 154.585C160.013 154.585 160.623 154.547 160.818 154.51C161.014 154.464 161.397 154.359 161.66 154.276C161.931 154.194 162.42 153.983 162.743 153.81C163.067 153.637 163.39 153.441 163.458 153.381C163.526 153.321 163.736 153.148 163.917 153.013C164.105 152.87 164.511 152.494 164.827 152.185C165.135 151.869 165.511 151.478 165.654 151.313C165.805 151.147 166.045 150.831 166.203 150.621C166.354 150.402 166.496 150.222 166.512 150.222C166.534 150.222 166.549 150.756 166.549 152.591L165.632 153.494C165.12 153.991 164.458 154.57 164.142 154.78C163.834 154.991 163.428 155.247 163.24 155.344C163.059 155.45 162.683 155.623 162.413 155.728C162.149 155.841 161.706 155.999 161.435 156.074C161.172 156.157 160.698 156.27 160.382 156.322C160.028 156.39 159.276 156.42 158.351 156.42C157.343 156.42 156.682 156.375 156.208 156.292C155.839 156.225 155.192 156.067 154.779 155.939C154.365 155.811 153.658 155.525 153.199 155.307C152.748 155.081 152.086 154.69 151.733 154.434C151.387 154.179 150.898 153.772 150.657 153.539C150.417 153.306 150.025 152.877 149.792 152.591C149.559 152.306 149.213 151.802 149.01 151.486C148.815 151.162 148.536 150.651 148.401 150.357C148.266 150.056 148.047 149.522 147.92 149.169C147.792 148.815 147.626 148.326 147.559 148.078C147.491 147.83 147.393 147.394 147.34 147.1C147.28 146.807 147.198 146.153 147.145 145.634C147.1 145.107 147.085 144.377 147.107 143.979C147.137 143.588 147.205 142.911 147.265 142.474C147.325 142.038 147.423 141.496 147.483 141.271C147.543 141.045 147.701 140.534 147.829 140.142C147.95 139.751 148.273 138.984 148.536 138.45C148.799 137.916 149.213 137.186 149.446 136.833C149.687 136.479 150.048 135.99 150.259 135.742C150.469 135.494 150.845 135.095 151.093 134.854C151.342 134.606 151.838 134.192 152.184 133.929C152.537 133.658 153.267 133.222 153.801 132.951C154.342 132.681 155.102 132.357 155.493 132.237ZM180.847 80.0111C180.754 80.0243 180.524 80.0663 180.301 80.1068L180.207 80.124C179.959 80.1691 179.538 80.2744 179.267 80.3572C178.996 80.4474 178.508 80.643 178.177 80.8085C177.846 80.974 177.357 81.2673 177.086 81.4554C176.815 81.6434 176.372 82.027 176.101 82.2978C175.823 82.5686 175.439 83.0049 175.243 83.2757C175.048 83.5465 174.777 83.9828 174.642 84.2536C174.506 84.5244 174.296 85.0509 174.168 85.4195C174.048 85.7881 173.905 86.4199 173.852 86.8111C173.792 87.2398 173.769 87.8265 173.799 88.2779C173.822 88.6916 173.897 89.2708 173.957 89.5566C174.018 89.85 174.16 90.3239 174.266 90.6097C174.379 90.9031 174.582 91.3544 174.732 91.6252C174.875 91.896 175.131 92.3022 175.304 92.5278C175.469 92.7535 175.785 93.1221 175.988 93.3402C176.199 93.5659 176.575 93.8968 176.823 94.0774C177.022 94.2224 177.227 94.3772 177.33 94.4559L177.387 94.4986C177.447 94.5512 177.755 94.7167 178.064 94.8747C178.372 95.0327 178.884 95.2433 179.192 95.3411C179.5 95.4464 179.959 95.5667 180.207 95.6194C180.456 95.672 181.08 95.7172 181.599 95.7172C182.118 95.7172 182.742 95.672 182.99 95.6269C183.238 95.5742 183.712 95.4464 184.043 95.3486C184.374 95.2433 184.9 95.0327 185.209 94.8747C185.517 94.7167 185.976 94.4384 186.224 94.2579C186.472 94.0774 186.856 93.7539 187.082 93.5508C187.3 93.3402 187.683 92.8964 187.931 92.5654C188.18 92.2345 188.495 91.7455 188.631 91.4747C188.766 91.2039 188.969 90.73 189.075 90.4216C189.187 90.1132 189.33 89.534 189.391 89.1429C189.443 88.7517 189.496 88.165 189.496 87.8491C189.496 87.5257 189.458 87.0142 189.413 86.7208C189.375 86.4199 189.248 85.9009 189.142 85.5699C189.037 85.239 188.857 84.75 188.736 84.4792C188.608 84.2084 188.353 83.7496 188.157 83.4638C187.962 83.1779 187.533 82.6589 187.202 82.3279C186.871 81.9894 186.314 81.5306 185.961 81.2974C185.607 81.0717 185.119 80.801 184.87 80.6956C184.622 80.5903 184.269 80.4549 184.081 80.3872C183.893 80.3271 183.486 80.2218 183.178 80.1541C182.87 80.0864 182.261 80.0187 181.824 80.0036C181.388 79.9886 180.952 79.9886 180.847 80.0111ZM47.5815 93.3778C47.4837 93.4229 47.3333 93.5508 47.2581 93.6561C47.1829 93.7614 47.0851 94.0623 47.0475 94.3331C47.0099 94.6039 46.9723 96.2587 46.9723 98.0189V101.216C49.0481 101.118 49.1609 101.095 49.8679 100.825C50.2815 100.667 50.7855 100.418 50.996 100.276C51.1991 100.133 51.4473 99.937 51.5376 99.8468C51.6353 99.749 51.7933 99.5308 51.891 99.3578C51.9963 99.1773 52.1317 98.8313 52.1994 98.5831C52.2596 98.3348 52.3122 97.8609 52.3122 97.53C52.3122 97.199 52.2596 96.7326 52.1994 96.4995C52.1392 96.2587 51.9738 95.8375 51.8309 95.5592C51.688 95.2734 51.4323 94.8822 51.2518 94.6791C51.0713 94.476 50.6651 94.1451 50.3568 93.942C49.9882 93.7013 49.6723 93.5583 49.4542 93.5282C49.2662 93.5057 48.9804 93.438 48.8149 93.3778C48.6495 93.3252 48.3486 93.28 48.1381 93.28C47.935 93.28 47.6793 93.3252 47.5815 93.3778ZM46.9798 107.835C46.9497 103.841 46.9497 103.698 47.0851 103.608C47.1829 103.548 47.4912 103.51 47.95 103.51C48.3411 103.51 48.9353 103.54 49.2662 103.578C49.6272 103.615 50.0935 103.736 50.432 103.879C50.7403 104.006 51.2142 104.255 51.4774 104.428C51.7406 104.608 52.1016 104.924 52.2821 105.127C52.4551 105.338 52.6883 105.691 52.7936 105.917C52.8989 106.143 53.0192 106.519 53.0643 106.744C53.1094 106.97 53.1395 107.474 53.1395 107.858C53.1395 108.234 53.0869 108.798 53.0192 109.099C52.9515 109.392 52.756 109.926 52.5905 110.28C52.3498 110.761 52.1392 111.062 51.7105 111.498C51.2518 111.965 51.0186 112.13 49.7927 112.724L48.7773 112.717C48.0704 112.717 47.6943 112.679 47.5439 112.604C47.416 112.544 47.2506 112.378 47.1678 112.236C47.0174 111.98 47.0099 111.837 46.9798 107.835ZM115.038 78.83C115.226 78.7322 115.594 78.6118 115.865 78.5592C116.151 78.5065 116.64 78.484 117.053 78.499C117.565 78.5291 117.903 78.5968 118.369 78.7623C118.708 78.8826 119.121 79.1008 119.287 79.2362C119.55 79.4618 119.603 79.5596 119.723 80.0636C119.791 80.387 119.851 80.8308 119.851 81.0565C119.851 81.2821 119.798 81.7184 119.723 82.0193C119.655 82.3127 119.528 82.7113 119.43 82.8994C119.34 83.0874 119.106 83.456 118.918 83.7268C118.73 83.9976 118.309 84.479 117.993 84.8025C117.67 85.1259 117.324 85.4494 117.226 85.5171C117.128 85.5848 116.94 85.7352 116.813 85.8405C116.685 85.9533 116.248 86.2617 115.85 86.5401C115.444 86.8108 114.646 87.2622 114.082 87.533C113.511 87.8113 112.774 88.1347 112.443 88.2551C112.128 88.3769 111.464 88.6011 110.94 88.7781L110.863 88.8042C110.329 88.9772 109.209 89.2931 108.381 89.5037C107.554 89.7144 106.539 89.9551 106.125 90.0378C105.712 90.1205 104.779 90.2935 104.057 90.4139C103.335 90.5418 102.455 90.6772 102.101 90.7298C101.748 90.775 101.409 90.8427 101.349 90.8803C101.252 90.9329 101.259 90.9404 101.372 90.948C101.44 90.948 101.816 91.1059 102.199 91.294C102.575 91.482 103.026 91.7453 103.192 91.8732C103.357 92.0086 103.553 92.1665 103.628 92.2267C103.703 92.2869 103.944 92.5577 104.162 92.8285C104.388 93.0993 104.719 93.5882 104.914 93.9192C105.102 94.2501 105.373 94.8594 105.516 95.2731C105.651 95.6868 105.832 96.3337 105.907 96.7023C106.02 97.2439 106.05 97.6877 106.042 98.9589C106.042 100.087 106.005 100.734 105.915 101.216C105.847 101.584 105.704 102.201 105.599 102.57C105.493 102.938 105.305 103.517 105.185 103.848C105.065 104.179 104.794 104.789 104.576 105.202C104.365 105.616 103.997 106.24 103.764 106.594L103.689 106.705C103.481 107.014 103.282 107.31 103.215 107.384C103.147 107.466 102.876 107.805 102.62 108.136C102.357 108.467 101.695 109.249 101.154 109.866C100.605 110.49 99.8977 111.25 99.5743 111.566C99.2434 111.882 98.7245 112.356 98.4161 112.619C98.3168 112.702 98.2093 112.792 98.1029 112.881L98.1014 112.882L98.1 112.884L98.0986 112.885L98.0972 112.886C97.8674 113.079 97.6438 113.266 97.5211 113.364C97.3406 113.507 97.0849 113.702 96.957 113.792C96.8292 113.883 96.6863 113.988 96.6487 114.018C96.6111 114.048 96.3704 114.214 96.1222 114.372C95.944 114.49 95.7271 114.625 95.566 114.724L95.5652 114.725C95.5023 114.764 95.4478 114.798 95.4077 114.823C95.2648 114.906 94.979 115.064 94.7684 115.169C94.5653 115.282 94.2269 115.462 94.0163 115.568C93.8132 115.673 93.3695 115.868 93.0386 115.996C92.7076 116.132 92.2338 116.305 91.9856 116.387C91.7374 116.47 91.3012 116.598 91.0079 116.673C90.7146 116.749 90.2783 116.846 90.0302 116.899C89.782 116.944 89.1352 117.027 88.6012 117.087C88.0672 117.147 87.2699 117.2 86.8337 117.2C86.3975 117.192 85.5702 117.147 84.9911 117.087C84.4119 117.034 83.7501 116.944 83.5245 116.899C83.2988 116.854 82.9604 116.779 82.7724 116.734C82.5843 116.688 82.0955 116.553 81.6818 116.433C81.2682 116.305 80.674 116.102 80.3656 115.981C80.0573 115.861 79.5007 115.605 79.1247 115.417C78.7486 115.229 78.2146 114.921 77.9213 114.733C77.628 114.545 77.1617 114.199 76.8684 113.973C76.575 113.74 76.1087 113.319 75.8305 113.025C75.5447 112.739 75.1385 112.258 74.9279 111.972C74.7098 111.679 74.4917 111.355 74.4315 111.257C74.3714 111.152 74.2285 110.881 74.1157 110.656C74.0028 110.43 73.8374 110.039 73.7471 109.791C73.6644 109.542 73.5967 109.294 73.5967 109.249C73.5967 109.196 73.9577 108.79 74.3939 108.346C74.5968 108.137 74.9167 107.811 75.2758 107.446L75.2764 107.445L75.277 107.445L75.2799 107.442L75.2812 107.441L75.2828 107.439C75.6943 107.021 76.1564 106.551 76.5525 106.142L77.3068 105.373L77.3138 105.366L77.3361 105.343C78.3633 104.295 79.9829 102.642 81.4562 101.14C82.3868 100.192 83.3517 99.2052 84.1746 98.3639L84.1906 98.3476L84.1976 98.3404C85.0867 97.4314 85.8071 96.6949 86.1343 96.3638C86.7585 95.7245 87.3452 95.1152 87.4354 95.0099C87.5181 94.9046 87.5858 94.8669 87.5858 94.9196C87.5858 94.9647 87.5407 95.055 87.4881 95.1077C87.4279 95.1528 87.1571 95.5665 86.8713 96.0253C86.5931 96.4842 86.0967 97.3868 85.7733 98.0412C85.4423 98.6881 85.0287 99.6058 84.8557 100.072C84.6752 100.531 84.442 101.201 84.3292 101.554C84.2239 101.908 84.066 102.502 83.9757 102.87C83.8855 103.239 83.7651 103.886 83.705 104.3C83.6523 104.713 83.5997 105.338 83.5997 105.691C83.5997 106.045 83.6373 106.684 83.6749 107.12C83.72 107.557 83.8027 108.143 83.8629 108.437C83.9231 108.73 84.0585 109.234 84.1637 109.565C84.2766 109.896 84.4646 110.385 84.5924 110.656C84.7128 110.926 84.961 111.348 85.134 111.596C85.3145 111.844 85.6604 112.228 85.9011 112.453C86.1418 112.672 86.578 112.965 86.8713 113.108C87.1646 113.251 87.6309 113.416 87.9243 113.476C88.2326 113.544 88.8719 113.589 89.4661 113.589C90.0226 113.589 90.8575 113.544 91.3087 113.484C91.76 113.424 92.3542 113.326 92.6249 113.258C92.8957 113.198 93.3845 113.055 93.7155 112.95C94.0464 112.845 94.7233 112.559 95.2197 112.311C95.7161 112.07 96.4982 111.611 96.9495 111.288C97.4008 110.972 97.9799 110.535 98.2281 110.325C98.4763 110.114 99.0027 109.618 99.3938 109.219C99.7849 108.82 100.296 108.279 100.522 108.015C100.748 107.752 101.161 107.248 101.432 106.895C101.703 106.541 102.079 106.022 102.259 105.729C102.447 105.435 102.688 105.052 102.793 104.864C102.899 104.676 103.132 104.239 103.312 103.886C103.485 103.532 103.764 102.878 103.921 102.419C104.087 101.96 104.29 101.268 104.38 100.877C104.516 100.29 104.538 99.9142 104.546 98.7333C104.546 97.7629 104.516 97.1687 104.44 96.8904C104.388 96.6647 104.237 96.2059 104.11 95.8749C103.982 95.5439 103.764 95.07 103.621 94.8218C103.478 94.5736 103.102 94.1147 102.786 93.8063C102.44 93.4678 102.049 93.1594 101.801 93.0391C101.575 92.9263 101.124 92.7833 100.8 92.7232C100.454 92.6479 99.8376 92.6028 99.266 92.6028C98.559 92.6028 98.1378 92.6479 97.664 92.7608C97.3105 92.8435 96.7239 93.0541 96.3478 93.2347C95.8665 93.4678 95.528 93.6935 95.1595 94.0395C94.8812 94.3028 94.6556 94.536 94.6556 94.5585C94.6556 94.5811 95.0392 94.5962 95.5055 94.5962C96.3027 94.5962 96.3779 94.6112 96.8367 94.8369C97.1074 94.9647 97.4534 95.1979 97.6114 95.3634C97.7693 95.5214 97.9874 95.7997 98.1002 95.9877C98.2055 96.1758 98.371 96.5444 98.4688 96.8152C98.5966 97.1837 98.6417 97.4771 98.6417 97.9811C98.6417 98.3496 98.6116 98.8461 98.5665 99.0718C98.5289 99.2974 98.3409 99.8014 98.1529 100.185C97.9272 100.646 97.6715 101.03 97.3857 101.336C97.1451 101.592 96.7314 101.945 96.4606 102.118C96.1899 102.299 95.7386 102.554 95.4453 102.69C95.152 102.818 94.7684 102.976 94.5804 103.028C94.3924 103.081 94.0389 103.141 93.7907 103.171C93.4898 103.201 93.1514 103.176 92.7753 103.096C92.467 103.036 91.9781 102.855 91.6848 102.697C91.3915 102.547 90.9552 102.216 90.6995 101.968C90.4513 101.72 90.0903 101.298 89.9098 101.027C89.7143 100.749 89.5037 100.328 89.421 100.05C89.3307 99.7337 89.2856 99.3651 89.2931 98.9965C89.2931 98.6881 89.3533 98.2143 89.4285 97.9435C89.4962 97.6727 89.6315 97.2364 89.7368 96.9656C89.8496 96.6948 90.0076 96.3413 90.0978 96.1758L90.1508 96.0861C90.2464 95.9237 90.371 95.712 90.4589 95.574C90.5642 95.4085 90.8123 95.07 91.0079 94.8218C91.2034 94.5736 91.5795 94.1674 91.8277 93.9116C92.0834 93.6634 92.6099 93.2046 93.001 92.8887C93.3921 92.5802 93.9486 92.159 94.2419 91.9634C94.5353 91.7679 94.9865 91.482 95.2573 91.3241C95.528 91.1661 96.0019 90.9028 96.3102 90.7373C96.6186 90.5719 97.2127 90.3011 97.6264 90.1356C98.0401 89.9701 98.5515 89.782 98.7545 89.7144C98.9576 89.6391 99.3638 89.5188 99.6571 89.436C99.9504 89.3608 100.627 89.2104 101.161 89.1126C101.695 89.0073 102.583 88.8869 103.117 88.8418C103.651 88.7967 104.516 88.6914 105.035 88.6161C105.554 88.5334 106.23 88.4206 106.539 88.3604C106.847 88.3002 107.644 88.1122 108.306 87.9392C108.968 87.7737 109.728 87.563 109.998 87.4728C110.269 87.39 110.961 87.1493 111.54 86.9387C112.119 86.7356 112.894 86.4347 113.27 86.2693C113.646 86.1038 114.27 85.8029 114.662 85.5923C115.053 85.3817 115.496 85.1184 115.639 85.0131C115.782 84.9153 115.925 84.81 115.955 84.7874C115.985 84.7573 115.609 84.7423 115.128 84.7423C114.368 84.7423 114.195 84.7197 113.872 84.5693C113.669 84.4715 113.398 84.306 113.278 84.1932C113.157 84.0803 112.962 83.7719 112.841 83.5011C112.721 83.2304 112.601 82.8242 112.578 82.5985C112.556 82.3352 112.586 81.9892 112.661 81.6582C112.729 81.3724 112.894 80.9437 113.022 80.718C113.15 80.4923 113.375 80.1538 113.526 79.9733C113.676 79.7928 114 79.4994 114.248 79.3264C114.496 79.1534 114.85 78.9277 115.038 78.83ZM165.887 91.5272C165.94 91.4369 166.09 91.2488 166.241 91.1135C166.295 91.0634 166.339 91.0238 166.387 90.9924C166.573 90.8727 166.835 90.8727 168.098 90.8727L169.219 93.9342C169.627 95.0529 170.018 96.1222 170.262 96.7904L170.265 96.799L170.274 96.8218L170.275 96.8243L170.278 96.8344C170.395 97.1534 170.476 97.374 170.505 97.4545C170.603 97.7028 171.009 98.801 171.408 99.8992C171.638 100.533 171.888 101.218 172.089 101.767C172.236 102.169 172.356 102.498 172.423 102.682C172.489 102.863 172.585 103.128 172.694 103.427L172.7 103.444C172.852 103.862 173.028 104.343 173.175 104.751C173.438 105.458 173.747 106.3 173.867 106.631C173.942 106.824 174.049 107.119 174.159 107.42L174.161 107.424L174.161 107.426L174.162 107.427C174.239 107.64 174.318 107.855 174.386 108.038C174.544 108.489 174.815 109.234 174.988 109.693C175.161 110.159 175.431 110.911 175.589 111.37C175.747 111.822 175.95 112.288 176.033 112.401C176.116 112.521 176.326 112.694 176.507 112.799C176.77 112.95 176.936 112.988 178.139 113.025V114.868H169.264L169.302 113.055L169.941 113.033C170.505 113.003 170.595 112.98 170.716 112.822C170.806 112.717 170.844 112.581 170.814 112.461C170.798 112.356 170.437 111.25 169.264 107.722L161.931 107.715L161.841 107.925C161.796 108.038 161.615 108.527 161.442 109.001C161.386 109.155 161.326 109.322 161.267 109.485L161.266 109.487C161.144 109.826 161.027 110.15 160.961 110.317C160.871 110.565 160.645 111.212 160.457 111.761C160.164 112.649 160.141 112.769 160.239 112.867C160.322 112.95 160.547 112.98 161.894 112.988V114.868L154.786 114.83V113.025L155.426 113.003C155.877 112.988 156.163 112.935 156.403 112.822C156.591 112.732 156.877 112.559 157.035 112.431C157.2 112.303 157.419 112.062 157.531 111.897C157.637 111.731 158.502 109.46 159.442 106.857C159.835 105.777 160.233 104.679 160.584 103.713C161.078 102.351 161.476 101.253 161.63 100.839C161.807 100.351 162.056 99.6683 162.272 99.0747L162.292 99.0194L162.533 98.3572C162.717 97.8338 162.986 97.0989 163.191 96.539L163.275 96.3098L163.338 96.1382C163.654 95.3107 163.721 95.0249 163.729 94.6112C163.736 94.1298 163.721 94.0847 163.533 93.9342C163.353 93.7913 163.323 93.7161 163.323 92.9413L163.638 92.836C163.819 92.7833 164.188 92.6179 164.473 92.4825C164.752 92.3395 165.165 92.1064 165.391 91.9634C165.617 91.8205 165.842 91.6249 165.887 91.5272ZM59.9836 92.2267V92.9789C61.0065 92.9789 61.4202 93.0165 61.5631 93.0617C61.706 93.1143 61.9015 93.2196 61.9918 93.3099C62.0895 93.3926 62.1948 93.6108 62.24 93.7838C62.2851 93.9944 62.3152 97.2966 62.3152 103.073C62.3152 108.527 62.2851 112.153 62.24 112.311C62.2023 112.453 62.082 112.657 61.9767 112.762C61.7962 112.935 61.706 112.95 60.9012 112.988L60.0213 113.025L59.9836 114.868C69.6482 114.868 70.295 114.853 70.3251 114.755C70.3476 114.695 70.3627 114.319 70.3627 113.928C70.3627 113.537 70.3476 113.161 70.3251 113.1C70.295 113.01 70.137 112.988 69.5128 112.988C69.054 112.988 68.6704 112.95 68.5651 112.89C68.4674 112.845 68.3621 112.747 68.332 112.687C68.3019 112.626 68.2116 112.453 68.1364 112.311C68.0011 112.055 67.9935 111.731 67.9935 102.908C67.9935 94.9346 68.0086 93.7386 68.1064 93.5506C68.1665 93.4227 68.3395 93.2572 68.4824 93.1745C68.6855 93.0541 68.9186 93.0165 69.4978 92.9864C69.9415 92.9714 70.2724 92.9263 70.3025 92.8736C70.3326 92.8285 70.3627 92.4975 70.3627 92.1289V91.4745H59.9836V92.2267ZM108.118 92.2267V91.4745H118.497L118.46 92.9413L117.82 92.9789C117.467 93.0015 116.993 93.0767 116.767 93.1444C116.429 93.2497 116.331 93.3174 116.241 93.5205C116.143 93.7386 116.128 94.9422 116.128 102.87C116.128 111.393 116.136 111.987 116.264 112.213C116.331 112.348 116.482 112.521 116.594 112.589C116.775 112.709 116.993 112.724 118.272 112.717C119.558 112.717 119.813 112.694 120.378 112.544C120.731 112.446 121.197 112.311 121.415 112.228C121.769 112.1 121.859 112.017 122.318 111.385C122.604 111.009 122.972 110.49 123.138 110.242C123.303 109.994 123.657 109.384 123.935 108.888C124.206 108.392 124.469 107.858 124.627 107.421H125.101C125.356 107.421 125.567 107.444 125.567 107.474C125.567 107.511 125.371 109.144 125.131 111.107C124.883 113.07 124.664 114.725 124.642 114.77C124.597 114.845 122.867 114.868 108.118 114.868V112.988L109.006 112.965C109.75 112.95 109.916 112.927 110.089 112.799C110.232 112.694 110.314 112.536 110.375 112.273C110.435 112.01 110.45 109.204 110.435 102.705C110.412 94.6563 110.397 93.4979 110.299 93.3926C110.239 93.3325 109.916 93.2121 109.585 93.1294C109.254 93.0466 108.788 92.9789 108.118 92.9789V92.2267ZM126.394 92.2041V92.9413C127.417 93.0165 127.831 93.0917 127.974 93.1519C128.117 93.2121 128.327 93.3776 128.433 93.513C128.545 93.6559 128.673 93.9041 128.718 94.0696C128.779 94.2802 128.801 96.9054 128.801 103.171C128.801 108.926 128.778 112.055 128.726 112.22C128.688 112.348 128.621 112.461 128.59 112.461C128.553 112.461 128.41 112.581 128.267 112.717C128.011 112.98 128.011 112.98 127.222 113.003L126.432 113.025V114.83L136.773 114.868V112.988C135.495 112.988 135.059 112.965 134.991 112.942C134.916 112.912 134.765 112.799 134.645 112.694L134.442 112.499C134.442 93.6258 134.442 93.5431 134.592 93.4077C134.675 93.34 134.946 93.2121 135.194 93.1294C135.487 93.0316 135.848 92.9789 136.209 92.9789H136.773V91.4745H126.394V92.2041ZM138.804 96.1382C138.924 95.1603 139.12 93.7161 139.233 92.9187L139.436 91.4745L156.892 91.467L156.982 92.0537C157.035 92.3771 157.163 93.1294 157.268 93.7311C157.317 94.0059 157.386 94.4077 157.462 94.8444L157.462 94.8452L157.464 94.856C157.551 95.3605 157.647 95.9104 157.727 96.3638C157.825 96.9435 157.92 97.4911 157.974 97.8057L157.975 97.8085L157.975 97.8094L158.003 97.968C158.012 98.0204 158.018 98.0559 158.02 98.0713C158.058 98.2368 158.043 98.2443 156.554 98.2443L156.441 97.8081C156.381 97.5674 156.17 97.0183 155.99 96.5895C155.802 96.1532 155.486 95.5289 155.29 95.1979C155.095 94.8745 154.749 94.4156 154.523 94.1749C154.282 93.9267 153.921 93.6634 153.658 93.5355C153.282 93.355 153.094 93.3099 152.492 93.2873C151.936 93.2648 151.725 93.2873 151.552 93.3776C151.432 93.4453 151.251 93.6258 150.996 94.0696L150.988 103.186C150.988 109.505 151.011 112.356 151.071 112.476C151.116 112.566 151.236 112.709 151.349 112.799C151.522 112.92 151.688 112.95 153.32 112.988V114.868L142.978 114.83V113.025L143.806 112.995C144.279 112.98 144.685 112.935 144.761 112.882C144.828 112.837 144.979 112.626 145.31 112.047V103.096C145.31 94.724 145.302 94.1223 145.182 93.859C145.107 93.701 144.934 93.5055 144.806 93.4227C144.595 93.2873 144.467 93.2723 143.881 93.2948C143.339 93.3174 143.129 93.3625 142.828 93.513C142.625 93.6258 142.316 93.7988 142.151 93.9116C141.985 94.0245 141.737 94.2125 141.609 94.3329C141.474 94.4532 141.226 94.7842 141.06 95.0625C140.895 95.3408 140.624 95.9276 140.459 96.3638L140.382 96.5628L140.382 96.5634C140.233 96.9484 140.07 97.3692 140 97.5674L139.969 97.6502C139.896 97.849 139.825 98.0429 139.812 98.1089C139.789 98.2218 139.692 98.2443 139.18 98.2443C138.608 98.2443 138.578 98.2293 138.578 98.0713C138.578 97.9811 138.684 97.1085 138.804 96.1382ZM75.266 120.54C75.0178 120.592 74.6643 120.698 74.4763 120.773C74.2883 120.848 73.9423 121.021 73.7016 121.156C73.4685 121.292 73.0548 121.63 72.7841 121.916C72.4607 122.247 72.205 122.608 72.032 122.969C71.8891 123.263 71.7311 123.691 71.686 123.91C71.6334 124.143 71.6183 124.602 71.6409 125.053C71.6785 125.745 71.7086 125.858 72.0169 126.482C72.2501 126.956 72.4832 127.294 72.7916 127.61C73.0398 127.859 73.4384 128.182 73.6866 128.325C73.9348 128.475 74.3409 128.671 74.5891 128.761C74.8373 128.852 75.2735 128.964 75.5669 129.009C75.8827 129.062 76.319 129.077 76.6574 129.047C76.9658 129.017 77.4772 128.912 77.7856 128.814C78.0939 128.709 78.5828 128.483 78.8761 128.302C79.1619 128.129 79.5004 127.881 79.6282 127.761C79.7486 127.633 79.9591 127.4 80.087 127.234C80.2149 127.069 80.4104 126.768 80.5157 126.557C80.621 126.354 80.7564 125.978 80.8241 125.73C80.8842 125.482 80.9444 125.045 80.9444 124.752C80.9444 124.466 80.8918 124.022 80.8241 123.774C80.7639 123.526 80.621 123.135 80.5157 122.909C80.3878 122.631 80.102 122.277 79.6733 121.848C79.207 121.39 78.8912 121.149 78.5377 120.976C78.2669 120.848 77.9435 120.713 77.8232 120.668C77.6953 120.622 77.3945 120.547 77.1463 120.502C76.8981 120.464 76.4769 120.427 76.2062 120.434C75.9354 120.434 75.5142 120.487 75.266 120.54ZM174.755 122.465C175.146 122.337 175.74 122.179 176.071 122.119C176.492 122.044 177.041 122.022 177.913 122.037C178.989 122.059 179.267 122.097 180.019 122.285C180.493 122.413 181.223 122.668 181.636 122.864C182.05 123.06 182.659 123.398 182.99 123.616C183.321 123.842 183.915 124.338 184.314 124.722C184.712 125.113 185.186 125.647 185.382 125.918C185.57 126.189 185.893 126.745 186.096 127.159C186.307 127.573 186.578 128.235 186.698 128.626C186.826 129.017 186.969 129.596 187.029 129.905C187.082 130.213 187.119 130.913 187.119 131.447C187.112 131.988 187.074 132.695 187.021 133.026C186.969 133.357 186.811 133.982 186.66 134.418C186.517 134.854 186.239 135.509 186.044 135.877C185.856 136.238 185.487 136.817 185.231 137.156C184.983 137.487 184.554 137.968 184.291 138.224C184.035 138.472 183.532 138.893 183.178 139.149C182.825 139.412 182.268 139.751 181.937 139.909C181.606 140.067 181.027 140.3 180.659 140.428C180.283 140.548 179.673 140.706 179.305 140.766C178.929 140.834 178.207 140.887 177.688 140.887C177.169 140.887 176.462 140.842 176.108 140.781C175.755 140.714 175.146 140.563 174.755 140.435C174.363 140.308 173.732 140.052 173.363 139.871C172.987 139.683 172.431 139.345 172.122 139.112C171.814 138.878 171.28 138.405 170.934 138.058C170.595 137.712 170.144 137.178 169.934 136.885C169.723 136.584 169.407 136.043 169.234 135.689C169.189 135.592 169.142 135.493 169.096 135.397L169.095 135.394C168.975 135.142 168.868 134.916 168.835 134.824C168.783 134.704 168.678 134.388 168.595 134.117C168.512 133.846 168.407 133.372 168.354 133.064C168.301 132.755 168.256 132.011 168.256 131.409C168.256 130.807 168.301 130.1 168.354 129.829C168.407 129.559 168.535 129.055 168.64 128.701C168.745 128.348 168.963 127.776 169.129 127.422C169.287 127.069 169.603 126.512 169.821 126.181C170.046 125.85 170.437 125.346 170.701 125.06C170.964 124.775 171.438 124.338 171.746 124.09C172.054 123.842 172.438 123.556 172.588 123.466C172.746 123.368 173.138 123.15 173.453 122.992C173.777 122.826 174.363 122.586 174.755 122.465ZM71.6559 131.161C71.6183 131.183 71.5958 131.356 71.6033 131.537C71.6108 131.71 71.6334 131.913 71.6559 131.973C71.6785 132.041 71.7838 132.086 71.9342 132.086C72.0696 132.086 72.4005 132.161 72.6713 132.251C72.9796 132.357 73.2579 132.515 73.4309 132.688C73.5888 132.838 73.7693 133.139 73.8671 133.387C73.9799 133.703 74.0476 134.132 74.1078 135.005C74.1604 135.772 74.1755 139.021 74.1604 144.347C74.1379 150.635 74.1078 152.629 74.0326 153.035C73.9799 153.321 73.8746 153.682 73.7994 153.825C73.7242 153.968 73.476 154.231 73.2429 154.411C72.9195 154.652 72.6938 154.757 72.2727 154.848C71.9793 154.908 71.7086 154.976 71.671 154.998C71.6409 155.013 71.6183 155.216 71.6183 155.442V155.856C80.2224 155.886 82.7795 155.886 82.8472 155.878C82.9525 155.856 82.9751 155.765 82.9751 155.404C82.9751 154.998 82.96 154.953 82.8021 154.915C82.7118 154.893 82.5614 154.878 82.4636 154.878C82.3734 154.878 82.1402 154.825 81.9372 154.757C81.7416 154.69 81.4558 154.547 81.2904 154.434C81.1324 154.329 80.9519 154.141 80.8842 154.013C80.8241 153.885 80.7263 153.637 80.6736 153.449C80.621 153.261 80.5383 152.734 80.4931 152.283C80.448 151.756 80.4179 147.739 80.4179 141.285V131.108C73.6791 131.108 71.6935 131.131 71.6559 131.161ZM141.211 132.297C141.436 132.214 141.775 132.116 141.963 132.086C142.151 132.056 142.467 132.026 142.677 132.018C142.88 132.011 143.241 132.048 143.467 132.086C143.693 132.131 144.084 132.259 144.324 132.372C144.633 132.515 144.911 132.725 145.227 133.071C145.55 133.417 145.738 133.703 145.874 134.049C146.009 134.403 146.062 134.719 146.084 135.245C146.107 135.839 146.084 136.035 145.941 136.411C145.829 136.72 145.663 136.975 145.43 137.201C145.219 137.419 144.941 137.592 144.708 137.675C144.497 137.75 144.144 137.803 143.918 137.803C143.648 137.803 143.377 137.743 143.129 137.63C142.918 137.532 142.64 137.321 142.504 137.156C142.369 136.998 142.211 136.712 142.151 136.524C142.091 136.336 142.008 135.892 141.963 135.531C141.925 135.163 141.85 134.794 141.797 134.704C141.752 134.606 141.677 134.508 141.632 134.478C141.587 134.448 141.444 134.418 141.324 134.418C141.196 134.418 140.993 134.486 140.872 134.568C140.744 134.651 140.571 134.809 140.474 134.929C140.376 135.042 140.195 135.388 140.068 135.697C139.94 136.005 139.744 136.584 139.631 136.975C139.511 137.366 139.263 138.299 139.067 139.044C138.879 139.789 138.616 140.721 138.488 141.112C138.36 141.504 138.142 142.068 137.999 142.354C137.856 142.647 137.668 142.985 137.578 143.106C137.488 143.234 137.383 143.354 137.337 143.377C137.3 143.407 137.285 143.467 137.315 143.512C137.352 143.557 137.428 143.595 137.488 143.595C137.548 143.595 137.789 143.685 138.022 143.805C138.255 143.918 138.586 144.144 138.759 144.309C138.939 144.475 139.195 144.761 139.338 144.949C139.481 145.137 140.549 147.205 141.715 149.552C143.7 153.546 143.873 153.855 144.272 154.261C144.58 154.577 144.828 154.75 145.122 154.855C145.347 154.945 145.686 155.021 145.874 155.036C146.062 155.043 146.257 155.066 146.302 155.081C146.37 155.096 146.4 155.246 146.4 155.931H139.255L139.15 155.69C139.09 155.555 138.894 155.118 138.706 154.727C138.635 154.579 138.543 154.384 138.444 154.174C138.281 153.829 138.099 153.442 137.954 153.148C137.869 152.969 137.759 152.739 137.641 152.494L137.638 152.486L137.633 152.476L137.632 152.475C137.441 152.076 137.231 151.637 137.074 151.305L137.025 151.2L137.022 151.194L137.02 151.191C136.766 150.653 136.413 149.904 136.209 149.462C135.991 148.988 135.472 147.905 135.059 147.055C134.637 146.205 134.194 145.385 134.066 145.235C133.915 145.046 133.742 144.926 133.554 144.881C133.404 144.843 133.148 144.791 132.712 144.723L132.735 149.146C132.757 153.012 132.772 153.607 132.885 153.938C132.953 154.148 133.103 154.411 133.223 154.539C133.381 154.705 133.577 154.795 133.998 154.9C134.306 154.968 134.75 155.028 134.983 155.028C135.224 155.028 135.472 155.043 135.532 155.066C135.615 155.096 135.645 155.216 135.645 155.931H124.665V155.141L125.417 155.051C125.936 154.983 126.304 154.885 126.597 154.75C126.951 154.577 127.064 154.479 127.199 154.201C127.297 154.013 127.402 153.674 127.447 153.449C127.5 153.185 127.522 149.913 127.522 144.294C127.522 138.397 127.492 135.358 127.44 134.967C127.395 134.643 127.274 134.2 127.177 133.989C127.019 133.636 126.943 133.568 126.582 133.402C126.282 133.267 125.966 133.199 124.665 133.101V132.312H135.645V133.101L134.893 133.162C134.479 133.192 133.998 133.267 133.818 133.342C133.645 133.41 133.426 133.53 133.329 133.62C133.238 133.711 133.096 133.914 133.02 134.079C132.938 134.245 132.84 134.643 132.795 134.967C132.742 135.32 132.712 136.96 132.712 139.217C132.712 141.233 132.72 142.895 132.742 142.918C132.757 142.94 133.306 142.933 133.968 142.91C134.622 142.88 135.292 142.82 135.457 142.767C135.638 142.707 135.908 142.519 136.134 142.286C136.352 142.068 136.623 141.684 136.751 141.413C136.879 141.143 137.104 140.503 137.247 139.984C137.39 139.465 137.571 138.773 137.638 138.442C137.713 138.111 137.894 137.382 138.059 136.825C138.217 136.268 138.473 135.509 138.624 135.132C138.774 134.756 139.015 134.267 139.158 134.042C139.3 133.816 139.526 133.515 139.654 133.372C139.789 133.237 140.098 132.966 140.346 132.786C140.594 132.605 140.985 132.387 141.211 132.297ZM50.8907 132.703L50.8832 133.101C51.8459 133.192 52.2896 133.259 52.5002 133.305C52.771 133.365 52.959 133.478 53.1846 133.696C53.3802 133.891 53.5381 134.132 53.5983 134.343C53.681 134.621 53.7036 136.419 53.7036 144.084C53.7036 152.162 53.6885 153.539 53.5908 153.862C53.5231 154.08 53.3727 154.351 53.2147 154.509C53.0342 154.697 52.8161 154.825 52.5378 154.908C52.3122 154.976 51.8459 155.051 51.4999 155.081L50.8832 155.141V155.931C59.9836 155.931 62.5107 155.901 62.9921 155.856C63.4283 155.81 64.1353 155.69 64.5715 155.592C65.0077 155.495 65.5943 155.322 65.8877 155.209C66.1735 155.103 66.5495 154.945 66.715 154.863C66.8804 154.78 67.2038 154.584 67.4295 154.441C67.6551 154.291 68.0537 153.968 68.3169 153.712C68.5802 153.464 68.9412 153.057 69.1142 152.809C69.2947 152.561 69.5053 152.207 69.5955 152.019C69.6783 151.831 69.7986 151.53 69.8588 151.342C69.9189 151.154 70.0167 150.763 70.0618 150.477C70.122 150.146 70.1446 149.612 70.1145 149.048C70.0919 148.454 70.0167 147.95 69.9114 147.581C69.8212 147.265 69.588 146.754 69.3774 146.415C69.1743 146.085 68.9111 145.701 68.7832 145.573C68.6629 145.438 68.3771 145.182 68.159 145.001C67.9484 144.828 67.4821 144.535 67.1286 144.347C66.7751 144.166 66.0757 143.881 65.5718 143.715L64.6542 143.407C65.5492 143.068 66.0155 142.873 66.2637 142.745C66.5119 142.624 66.903 142.399 67.1286 142.241C67.3542 142.09 67.7378 141.744 67.986 141.481C68.2342 141.21 68.5501 140.751 68.708 140.435C68.866 140.127 69.0314 139.668 69.0841 139.42C69.1443 139.172 69.1819 138.615 69.1819 138.179C69.1743 137.63 69.1217 137.201 69.0089 136.787C68.9262 136.456 68.7306 135.952 68.5802 135.659C68.4298 135.373 68.1816 134.967 68.0236 134.756C67.8657 134.553 67.6476 134.275 67.5272 134.155C67.4144 134.027 67.1813 133.824 67.0158 133.703C66.8503 133.575 66.6999 133.455 66.6774 133.425C66.6548 133.402 66.3991 133.259 66.1133 133.117C65.82 132.974 65.3837 132.801 65.1356 132.725C64.8874 132.65 64.3759 132.545 64.0074 132.485C63.4584 132.387 62.1648 132.364 57.1106 132.334L50.8907 132.304V132.703ZM84.3593 138.856V135.584V132.312H103.162V138.856H102.786C102.5 138.856 102.41 138.826 102.41 138.743C102.41 138.683 102.289 138.216 102.139 137.705C101.989 137.201 101.801 136.614 101.71 136.411C101.62 136.201 101.447 135.862 101.312 135.659C101.184 135.448 100.943 135.14 100.785 134.967C100.62 134.794 100.319 134.538 100.116 134.395C99.9053 134.26 99.6195 134.094 99.4766 134.042C99.2961 133.974 98.7245 133.936 96.3177 133.891L96.3403 143.76C96.3553 151.275 96.3779 153.704 96.4531 153.915C96.4982 154.073 96.6487 154.314 96.784 154.457C96.9194 154.599 97.1977 154.788 97.4083 154.885C97.7016 155.021 97.9423 155.058 99.2509 155.103V155.931L88.2402 155.893V155.705C88.2439 155.653 88.2458 155.585 88.2477 155.517C88.2486 155.485 88.2494 155.454 88.2505 155.424C88.2517 155.389 88.2532 155.357 88.2552 155.329C88.2701 155.142 88.2851 155.141 88.9873 155.089L88.9998 155.088C89.4661 155.051 89.8572 154.983 90.0753 154.885C90.2558 154.803 90.4814 154.675 90.5717 154.599C90.6544 154.524 90.8123 154.314 91.0906 153.787L91.1282 133.891L89.7895 133.914C88.556 133.936 88.4131 133.959 87.9318 134.14C87.6385 134.252 87.2474 134.47 87.0518 134.621C86.8563 134.779 86.5178 135.178 86.2997 135.509C86.0666 135.847 85.7883 136.404 85.6454 136.787C85.51 137.156 85.3521 137.69 85.2919 137.968C85.2317 138.247 85.1866 138.562 85.1866 138.668C85.1866 138.841 85.1641 138.856 84.3593 138.856ZM165.052 98.2443C165.052 98.1992 165.143 97.9359 165.248 97.6425C165.398 97.2439 165.474 97.116 165.586 97.116C165.662 97.116 165.744 97.1762 165.759 97.2514C165.774 97.3191 166.06 98.2593 166.399 99.335L166.549 99.8125C166.859 100.796 167.209 101.909 167.376 102.457C167.482 102.79 167.61 103.202 167.731 103.591L167.732 103.594L167.733 103.597L167.736 103.606L167.74 103.619C167.848 103.967 167.95 104.293 168.023 104.525C168.181 105.022 168.317 105.473 168.332 105.526C168.354 105.593 167.737 105.616 162.495 105.616L162.804 104.736C162.977 104.247 163.398 103.036 163.736 102.043C164.075 101.05 164.466 99.9142 164.601 99.523C164.729 99.1319 164.887 98.6956 164.947 98.5678C165.007 98.4324 165.052 98.2894 165.052 98.2443ZM175.243 123.902C175.62 123.774 176.123 123.639 176.372 123.601C176.62 123.563 177.176 123.533 177.613 123.526C178.049 123.526 178.643 123.556 178.929 123.601C179.215 123.639 179.764 123.782 180.132 123.909C180.508 124.037 181.027 124.248 181.298 124.383C181.569 124.519 182.058 124.835 182.388 125.083C182.719 125.331 183.201 125.745 183.449 126.008C183.705 126.271 184.058 126.708 184.246 126.978C184.427 127.249 184.697 127.723 184.848 128.032C184.991 128.34 185.149 128.701 185.194 128.821C185.246 128.942 185.344 129.333 185.427 129.686C185.51 130.04 185.592 130.612 185.622 130.965C185.645 131.319 185.63 131.928 185.585 132.319C185.54 132.71 185.404 133.357 185.284 133.748C185.164 134.139 184.946 134.696 184.795 134.989C184.645 135.283 184.366 135.749 184.171 136.035C183.975 136.321 183.584 136.787 183.291 137.081C183.005 137.366 182.561 137.75 182.313 137.931C182.065 138.104 181.629 138.367 181.336 138.517C181.05 138.66 180.508 138.886 180.132 139.006C179.764 139.134 179.169 139.277 178.816 139.322C178.432 139.375 177.801 139.39 177.237 139.367C176.567 139.337 176.086 139.262 175.582 139.127C175.191 139.014 174.567 138.773 174.191 138.593C173.822 138.404 173.296 138.096 173.025 137.9C172.754 137.712 172.303 137.314 172.024 137.02C171.739 136.735 171.363 136.291 171.182 136.043C171.009 135.794 170.738 135.358 170.595 135.065C170.453 134.771 170.242 134.275 170.137 133.951C170.031 133.635 169.888 133.041 169.821 132.635C169.738 132.124 169.716 131.657 169.746 131.078C169.768 130.551 169.858 129.98 169.979 129.498C170.092 129.085 170.302 128.475 170.46 128.144C170.611 127.813 170.911 127.287 171.122 126.978C171.333 126.67 171.709 126.211 171.949 125.963C172.19 125.715 172.626 125.331 172.912 125.121C173.205 124.902 173.694 124.586 174.003 124.429C174.311 124.271 174.875 124.03 175.243 123.902ZM58.7954 138.329L58.7803 142.85C59.1564 142.85 59.555 142.812 59.9085 142.775C60.262 142.737 60.7508 142.647 60.999 142.587C61.2472 142.519 61.6383 142.376 61.864 142.263C62.0896 142.15 62.4656 141.872 62.6913 141.639C62.9169 141.406 63.2102 141.022 63.3456 140.774C63.4735 140.533 63.6464 140.089 63.7141 139.804C63.8044 139.45 63.8495 138.961 63.8495 138.299C63.8495 137.622 63.8119 137.156 63.7217 136.772C63.654 136.479 63.5035 136.05 63.3907 135.832C63.2704 135.621 62.9771 135.238 62.7289 134.982C62.4506 134.696 62.1046 134.448 61.8263 134.32C61.5782 134.2 61.157 134.057 60.8862 134.004C60.6155 133.951 60.0363 133.884 59.6001 133.854L58.8029 133.801L58.7954 138.329ZM58.8255 153.509L58.8104 148.958L58.8029 144.415L59.7505 144.452C60.277 144.475 60.9539 144.557 61.2698 144.625C61.5782 144.693 62.067 144.873 62.3528 145.024C62.6687 145.197 63.0147 145.46 63.2553 145.716C63.4659 145.942 63.7592 146.37 63.9097 146.656C64.0676 146.942 64.2632 147.453 64.3609 147.784C64.5038 148.281 64.5339 148.574 64.5339 149.515C64.5339 150.372 64.5038 150.756 64.4061 151.132C64.3309 151.395 64.1428 151.869 63.9924 152.185C63.8044 152.576 63.5712 152.899 63.2253 153.245C62.9395 153.531 62.5484 153.832 62.2851 153.968C62.0369 154.088 61.5857 154.246 61.2848 154.314C60.984 154.381 60.5478 154.434 60.3071 154.434C60.0363 154.434 59.7581 154.381 59.555 154.283C59.3594 154.193 59.1564 154.02 58.8255 153.509ZM178.222 87.744L178.214 92.3023H180.094L180.132 88.5037C181.02 88.5413 181.373 88.609 181.523 88.6767C181.666 88.7519 181.922 88.9926 182.103 89.2183C182.283 89.4439 182.825 90.2337 183.306 90.9634L184.193 92.3023H186.412C186.299 92.1144 186.152 91.8767 185.998 91.6275C185.936 91.5275 185.873 91.4257 185.81 91.3244C185.592 90.9709 185.224 90.3992 184.991 90.0457C184.765 89.6922 184.419 89.2408 184.231 89.0453C184.043 88.8422 183.78 88.609 183.652 88.5187C183.517 88.4285 183.404 88.3307 183.404 88.2931C183.404 88.263 183.562 88.2028 183.765 88.1577C183.96 88.1125 184.254 88.0072 184.419 87.9245C184.585 87.8417 184.855 87.6311 185.021 87.4581C185.201 87.2776 185.397 86.9617 185.502 86.6984C185.653 86.3148 185.668 86.1568 185.637 85.6077C185.607 85.0887 185.555 84.8781 185.367 84.4944C185.201 84.171 185.028 83.9453 184.78 83.7573C184.577 83.6144 184.254 83.4338 184.043 83.3661C183.727 83.2684 183.223 83.2383 180.944 83.2157L178.222 83.1931V87.744ZM180.087 84.7651V85.9083V86.9988C182.659 86.9913 182.968 86.9687 183.193 86.8634C183.396 86.7732 183.524 86.6378 183.637 86.4122C183.765 86.164 183.787 86.0211 183.75 85.7353C183.727 85.5397 183.629 85.2765 183.532 85.1562C183.434 85.0208 183.231 84.8854 183.028 84.8177C182.779 84.735 182.343 84.7049 181.388 84.7049C180.681 84.7049 180.094 84.7275 180.087 84.7575V84.7651ZM174.228 135.93L174.236 131.334V126.746L176.996 126.768C179.312 126.791 179.816 126.821 180.132 126.926C180.343 126.994 180.644 127.144 180.809 127.265C180.974 127.385 181.215 127.648 181.35 127.851C181.493 128.077 181.621 128.408 181.681 128.709C181.727 128.98 181.757 129.386 181.734 129.611C181.711 129.837 181.614 130.206 181.516 130.431C181.411 130.657 181.2 130.965 181.02 131.123C180.839 131.289 180.516 131.499 180.305 131.605C180.087 131.71 179.839 131.793 179.756 131.793C179.673 131.793 179.553 131.823 179.493 131.86C179.403 131.913 179.41 131.943 179.568 132.026C179.673 132.079 179.921 132.274 180.125 132.462C180.328 132.65 180.719 133.147 180.989 133.56C181.268 133.974 181.704 134.651 181.96 135.065C182.215 135.479 182.426 135.84 182.426 135.877C182.426 135.907 181.945 135.93 180.283 135.93L179.568 134.862C179.177 134.267 178.65 133.515 178.41 133.184C178.162 132.853 177.928 132.545 177.883 132.5C177.838 132.455 177.68 132.357 177.537 132.282C177.387 132.199 177.033 132.124 176.108 132.056V135.93H174.228ZM176.093 129.476C176.086 128.859 176.116 128.333 176.153 128.303C176.191 128.265 176.845 128.257 177.613 128.273C178.936 128.295 179.019 128.31 179.297 128.483C179.463 128.588 179.636 128.739 179.688 128.822C179.733 128.904 179.794 129.085 179.824 129.213C179.846 129.348 179.824 129.619 179.779 129.814C179.711 130.062 179.606 130.22 179.425 130.356C179.17 130.551 179.147 130.551 176.122 130.589L176.108 130.589L176.093 129.476Z" fill="#18181E"/>
</svg>
