<svg width="230" height="230" viewBox="0 0 230 230" fill="none" xmlns="http://www.w3.org/2000/svg">
<path fill-rule="evenodd" clip-rule="evenodd" d="M172 107.344L171.489 112.711H149.767C150.15 107.217 150.15 101.85 150.15 96.3556C150.15 90.8611 150.022 85.4944 149.767 80H170.722L171.233 85.3667C167.272 84.8556 163.183 84.8556 159.606 84.8556H155.644C155.517 87.6667 155.517 90.6056 155.389 93.4167V93.6722H158.328C161.906 93.6722 165.994 93.6722 170.083 93.2889L169.572 98.6556C165.483 98.5278 161.522 98.5278 157.817 98.5278H155.389C155.389 101.722 155.517 105.044 155.644 108.239H160.244C163.95 107.983 167.911 107.856 172 107.344ZM140.183 134.561C140.183 129.067 140.056 123.7 139.8 118.206H145.167L155.772 144.017L166.378 118.206H171.617C171.233 123.7 171.233 129.067 171.233 134.561C171.233 140.056 171.361 145.422 171.617 150.917H165.611C165.867 145.55 165.994 140.056 165.994 134.561L166.122 129.961L157.689 150.789H153.6L145.167 129.961L145.294 134.561C145.294 140.056 145.422 145.422 145.678 150.917H139.8C140.056 145.422 140.183 140.056 140.183 134.561ZM127.917 102.233C128.044 105.683 128.044 109.261 128.3 112.711H122.167C122.55 107.217 122.55 101.85 122.55 96.3556C122.55 90.8611 122.422 85.4944 122.167 80H134.817C141.333 80 146.189 84.4722 146.189 90.9889C146.189 95.0778 144.272 98.4 141.078 100.317L146.956 112.711H140.311C138.906 109.006 137.372 105.428 135.711 101.978C135.328 101.978 135.072 101.978 134.817 101.978H128.044L127.917 102.233ZM133.667 84.7278H128.044C127.917 88.5611 127.789 92.5222 127.789 96.3556V97.5056H133.667C137.628 97.5056 140.439 95.2056 140.439 91.1167C140.439 87.0278 137.628 84.7278 133.667 84.7278ZM87.2833 150.789C87.6667 145.422 87.6667 140.056 87.6667 134.561C87.6667 129.067 87.5389 123.7 87.2833 118.206H107.983L108.494 123.572C104.533 123.061 100.444 123.061 96.8667 123.061H93.1611C93.0333 126 93.0333 128.939 93.0333 131.878H95.5889C99.1667 131.878 103.256 131.75 107.217 131.494L106.833 136.606C102.744 136.478 98.7833 136.35 95.0778 136.35H93.0333C93.0333 139.672 93.0333 142.867 93.1611 146.061H97.3778C100.956 146.061 105.044 145.933 109.006 145.55L108.494 150.789H87.2833ZM112.328 150.789C112.711 145.294 112.711 139.928 112.711 134.433C112.711 128.939 112.583 123.444 112.328 118.078H124.594C131.111 118.078 135.967 122.55 135.967 129.067C135.967 133.156 134.05 136.478 130.983 138.394L136.733 150.789H130.089C128.683 147.211 127.15 143.633 125.489 140.056C125.233 140.056 124.85 140.056 124.594 140.056H118.206C118.206 143.633 118.333 147.211 118.589 150.789H112.328ZM123.572 122.806H118.333C118.206 126.639 118.206 130.6 118.206 134.433V135.456H123.7C127.661 135.456 130.472 133.156 130.472 129.067C130.344 125.233 127.533 122.806 123.572 122.806ZM118.461 103.639C118.461 109.133 114.628 112.711 108.367 112.711H93.2889C93.6722 107.217 93.6722 101.85 93.6722 96.3556C93.6722 90.8611 93.5444 85.4944 93.2889 80H107.983C113.861 80 117.567 83.45 117.567 88.6889C117.567 91.8833 116.161 94.3111 113.861 95.8444C116.8 97.1222 118.461 99.9333 118.461 103.639ZM107.089 84.3444H99.1667C99.0389 87.4111 99.0389 90.35 98.9111 93.4167V93.5444H106.961C109.772 93.5444 111.817 91.8833 111.817 88.9444C111.817 86.0056 110.028 84.3444 107.089 84.3444ZM112.711 103.128C112.711 99.9333 110.539 98.1444 107.344 98.1444H98.9111C98.9111 101.467 99.0389 104.917 99.1667 108.239H107.344C110.539 108.239 112.711 106.322 112.711 103.128ZM87.9222 96.3556C87.9222 101.85 88.05 107.217 88.3056 112.711H82.1722C82.4278 107.217 82.5556 101.85 82.5556 96.3556C82.5556 90.8611 82.4278 85.4944 82.1722 80H88.3056C88.05 85.3667 87.9222 90.8611 87.9222 96.3556ZM84.3444 134.561C84.3444 144.4 77.8278 150.917 68.3722 150.917H57C57.3833 145.422 57.3833 140.056 57.3833 134.561C57.3833 129.067 57.2556 123.7 57 118.206H68.3722C77.9556 118.078 84.3444 124.594 84.3444 134.561ZM67.2222 122.806H63.0056C62.8778 126.639 62.75 130.6 62.75 134.433C62.75 138.267 62.75 142.228 63.0056 146.061H67.2222C74.3778 146.061 78.7222 141.844 78.7222 134.433C78.5944 127.022 74.3778 122.806 67.2222 122.806ZM79.2333 107.344L78.7222 112.711H57C57.3833 107.217 57.3833 101.85 57.3833 96.3556C57.3833 90.8611 57.2556 85.4944 57 80H63.1333C62.75 85.4944 62.75 90.8611 62.75 96.3556C62.75 100.317 62.75 104.15 63.0056 107.983H67.6056C71.1833 107.983 75.1444 107.856 79.2333 107.344Z" fill="#18181E"/>
</svg>
