<svg width="230" height="230" viewBox="0 0 230 230" fill="none" xmlns="http://www.w3.org/2000/svg">
<path d="M173.915 131.139H220.978V131.602H173.915V131.139ZM11.2208 131.139H61.8579V131.602H11.2208V131.139Z" fill="#18181E"/>
<path d="M76.1251 131.116C77.5607 131.43 78.2262 131.953 78.2262 132.955C78.2262 134.07 77.3065 134.787 76.0204 134.787C74.996 134.787 74.1585 134.443 73.3809 133.756L73.8295 133.217C74.5025 133.823 75.1455 134.129 76.0428 134.129C76.9102 134.129 77.4785 133.673 77.4785 133.023C77.4785 132.417 77.157 132.073 75.8035 131.789C74.3155 131.467 73.6351 130.981 73.6351 129.92C73.6351 128.888 74.5324 128.147 75.7587 128.147C76.7008 128.147 77.3738 128.417 78.0243 128.94L77.5981 129.501C76.9999 129.015 76.4017 128.798 75.7362 128.798C74.8988 128.798 74.3604 129.262 74.3604 129.852C74.3754 130.473 74.7044 130.817 76.1251 131.116ZM91.7305 128.222H92.3287L94.1008 133.613L95.9403 128.237H96.703L94.3999 134.735H93.7793L92.0071 129.493L90.2275 134.735H89.6218L87.3188 128.237H88.1114L89.9583 133.613L91.7305 128.222ZM111.157 128.865H107.216V131.071H110.738V131.737H107.216V133.995H111.202V134.66H106.491V128.207H111.157V128.865ZM124.826 134.66H122.582V128.207H124.826C126.852 128.207 128.258 129.598 128.258 131.43C128.258 133.247 126.859 134.66 124.826 134.66ZM124.826 128.88H123.315V133.987H124.826C126.456 133.987 127.502 132.881 127.502 131.445C127.502 130.002 126.463 128.88 124.826 128.88ZM144.132 128.865H140.192V131.071H143.714V131.737H140.192V133.995H144.177V134.66H139.466V128.207H144.132V128.865ZM160.852 128.207H161.562V134.66H160.979L156.814 129.366V134.66H156.104V128.207H156.784L160.852 133.382V128.207Z" fill="#18181E"/>
<path d="M77.5231 120.147H74.1882V97.8414H77.5231V120.147ZM93.6295 120.147H90.2946V97.8414H106.588V100.989H93.6295V107.712H105.212V110.83H93.6295V120.147ZM132.475 120.147H117.101V97.8414H120.436V116.999H132.475V120.147ZM181.175 114.277L174.079 103.651V120.139H172.442H170.804V97.8414H173.952L181.504 109.147L189.056 97.8414H192.204V120.147H190.537H188.869V103.629L181.781 114.277L181.474 114.725L181.175 114.277ZM221 120.147H204.467V97.8414H220.85V100.96H207.795V107.345H219.475V110.463H207.795V117.036H221V120.147ZM63.7572 120.117H59.5175L53.4383 111.802H48.0172V120.117H44.6823V97.8115H54.3431C59.3156 97.8115 62.5982 100.496 62.5982 104.661C62.5982 107.936 60.5045 110.351 57.0724 111.219L63.7572 120.117ZM48.0172 108.721H54.1337C57.1995 108.721 59.1735 107.166 59.1735 104.751C59.1735 102.343 57.349 100.96 54.1636 100.96H48.0172V108.721ZM63.7572 120.124H59.525L53.4383 111.809H48.0172V120.124H44.6898V97.8115H54.3431C59.3156 97.8115 62.5982 100.496 62.5982 104.661C62.5982 107.943 60.512 110.351 57.0724 111.226L63.7572 120.124ZM48.0172 108.721H54.1263C57.192 108.721 59.166 107.158 59.166 104.751C59.166 102.343 57.3416 100.96 54.1562 100.96H48.0172V108.721ZM63.7572 120.117H59.5175L53.4383 111.802H48.0172V120.117H44.6823V97.8115H54.3431C59.3156 97.8115 62.5982 100.496 62.5982 104.661C62.5982 107.936 60.5045 110.351 57.0724 111.219L63.7572 120.117ZM48.0172 108.721H54.1337C57.1995 108.721 59.1735 107.166 59.1735 104.751C59.1735 102.343 57.349 100.96 54.1636 100.96H48.0172V108.721ZM63.7572 120.124H59.525L53.4383 111.809H48.0172V120.124H44.6898V97.8115H54.3431C59.3156 97.8115 62.5982 100.496 62.5982 104.661C62.5982 107.943 60.512 110.351 57.0724 111.226L63.7572 120.124ZM48.0172 108.721H54.1263C57.192 108.721 59.166 107.158 59.166 104.751C59.166 102.343 57.3416 100.96 54.1562 100.96H48.0172V108.721ZM158.578 120.147H162.242L152.081 97.6919H149.224L139.062 120.147H142.607L145.141 114.367H156.066L158.578 120.147ZM146.435 111.413L150.622 101.857L154.78 111.413H146.435ZM34.6775 107.667C34.6775 114.755 28.9273 120.506 21.8387 120.506C14.7501 120.506 9 114.755 9 107.667C9 101.303 13.636 96.0169 19.7077 95L19.7301 95.0897C14.9894 96.9292 12.148 101.393 12.148 106.612C12.148 113.275 16.8513 117.103 21.8387 117.103C27.0505 117.103 31.2827 112.879 31.2827 107.659C31.2827 103.18 27.7384 99.4565 23.1323 99.4565C17.8009 99.4565 15.2736 104.302 15.2736 104.302L15.1913 104.272C15.1913 104.272 17.5916 97.318 24.5456 97.318C28.8301 97.3255 34.6775 100.825 34.6775 107.667Z" fill="#18181E"/>
</svg>
