<svg width="230" height="230" viewBox="0 0 230 230" fill="none" xmlns="http://www.w3.org/2000/svg">
<path d="M28.1303 107.779C32.8878 108.178 36.7015 109.667 36.7015 113.636C36.7015 117.24 33.9037 119.954 26.6413 119.954C23.4088 119.954 21.0098 119.556 18.1062 118.54C17.3809 118.285 16.9799 118.504 16.5812 119.229L16 118.997L18.2887 113.41C20.6494 115.154 22.9718 115.846 26.531 115.846C29.9099 115.846 31.7255 114.899 31.7255 113.701C31.7255 112.431 29.5112 112.104 24.3527 111.741C20.7485 111.487 17.0542 110.18 17.0542 106.439C17.0542 102.625 20.94 100.411 25.8777 100.411C28.4209 100.411 31.7976 101.064 34.2304 101.936C35.0301 102.19 35.5031 101.972 35.8658 101.391L36.4109 101.645L34.1943 106.256C32.167 105.276 28.7881 104.515 26.1322 104.515C24.1342 104.515 21.9919 104.878 21.9919 106.004C21.9919 107.085 23.2624 107.376 28.1303 107.779Z" fill="#18181E"/>
<path d="M39.1106 119.098C39.8719 119.098 40.3067 118.663 40.3067 117.866V105.602C40.3067 104.805 39.8719 104.368 39.0723 104.368V103.753H46.4113V104.368C45.6116 104.368 45.1768 104.805 45.1768 105.602V117.866C45.1768 118.663 45.6116 119.098 46.3752 119.098V119.717H39.1106V119.098Z" fill="#18181E"/>
<path d="M68.2708 115.072C68.2708 118.192 65.9844 119.715 61.3418 119.715H49.9841V105.602C49.9977 105.437 49.9752 105.271 49.9181 105.115C49.861 104.959 49.7708 104.818 49.6536 104.7C49.5363 104.583 49.395 104.492 49.2393 104.435C49.0836 104.377 48.9173 104.355 48.752 104.368V103.753H60.4655C65.2546 103.753 67.6851 105.168 67.6851 107.706C67.6851 109.339 66.7053 110.572 65.2906 111.153C67.2549 111.77 68.2708 113.076 68.2708 115.072ZM54.8475 110.209H60.6165C62.2856 110.209 63.011 109.702 63.011 108.542C63.011 107.272 62.1392 106.798 59.8889 106.798H54.8475V110.209ZM63.2633 114.635C63.2633 113.439 62.4298 112.822 60.2538 112.822H54.8475V116.667H60.2155C62.1392 116.667 63.2633 116.014 63.2633 114.635Z" fill="#18181E"/>
<path d="M88.0218 115.289V119.717H71.6228V105.566C71.6228 104.805 71.188 104.368 70.3906 104.368V103.753H87.4429V108.177H86.7896C86.7896 107.38 86.3526 106.945 85.5912 106.945H76.5222V109.873H85.3795V112.921H76.5267V116.514H86.1769C86.9383 116.514 87.3731 116.079 87.3731 115.28L88.0218 115.289Z" fill="#18181E"/>
<path d="M109.338 119.062V119.717H103.569L99.469 113.768H96.3852V119.717H91.488V105.602C91.4892 105.44 91.4582 105.279 91.3967 105.129C91.3352 104.979 91.2446 104.842 91.1299 104.728C91.0153 104.613 90.879 104.522 90.729 104.46C90.5789 104.398 90.4181 104.367 90.2559 104.368V103.753H101.825C105.67 103.753 108.284 105.746 108.284 108.504C108.284 110.682 106.65 112.459 104.366 113.257L107.885 118.336C108.038 118.578 108.255 118.773 108.511 118.9C108.767 119.028 109.053 119.084 109.338 119.062ZM96.3852 110.682H100.341C102.226 110.682 103.206 109.993 103.206 108.722C103.206 107.371 102.337 106.798 100.449 106.798H96.3942L96.3852 110.682Z" fill="#18181E"/>
<path d="M111.304 119.098C112.065 119.098 112.5 118.663 112.5 117.866V105.602C112.5 104.805 112.065 104.368 111.268 104.368V103.753H118.595V104.368C117.798 104.368 117.361 104.805 117.361 105.602V117.866C117.361 118.663 117.798 119.098 118.559 119.098V119.717H111.304V119.098Z" fill="#18181E"/>
<path d="M141.718 119.098V119.717H135.949L134.463 116.453H127.241L125.754 119.717H120.42V119.1C121.037 119.1 121.51 118.848 121.726 118.411L127.054 106.878C127.3 106.393 127.436 105.86 127.453 105.316C127.453 104.699 127.227 104.373 126.835 104.373V103.753H133.656L140.259 118.337C140.484 118.816 141.02 119.098 141.718 119.098ZM133.3 113.874L130.906 108.542L128.428 113.874H133.3Z" fill="#18181E"/>
<path d="M161.707 103.753V104.368C160.945 104.368 160.474 104.805 160.474 105.602V119.717H156.99L148.004 110.031V119.717H143.641V105.602C143.641 104.805 143.204 104.368 142.406 104.368V103.753H148.466L156.125 111.988V103.753H161.707Z" fill="#18181E"/>
<path d="M50.5731 128.557V129.21C49.4828 129.357 48.7214 129.899 48.5029 130.663L43.7724 147.659H38.1409L33.3586 135.13L28.8556 147.65H23.2241L17.489 130.118C17.3065 129.537 16.7636 129.217 16 129.217V128.564H22.2465L26.2764 140.802L30.9258 128.564H36.0482L40.7787 140.694L44.1937 128.564L50.5731 128.557Z" fill="#18181E"/>
<path d="M69.5179 143.226V147.65H53.1189V133.501C53.1189 132.74 52.6841 132.305 51.8867 132.305V131.688H68.9367V136.114H68.2857C68.2857 135.317 67.8487 134.88 67.0873 134.88H58.0161V137.82H66.8688V140.867H58.0161V144.458H67.6685C68.4299 144.458 68.8646 144.023 68.8646 143.226H69.5179Z" fill="#18181E"/>
<path d="M73.7266 133.537C73.7266 132.74 73.2896 132.305 72.4922 132.305V131.688H78.6215V144.023H86.6025C87.4 144.023 87.837 143.589 87.837 142.791H88.4542V147.65H73.7266V133.537Z" fill="#18181E"/>
<path d="M91.9395 133.537C91.9395 132.74 91.5025 132.305 90.7051 132.305V131.688H96.8367V144.023H104.818C105.617 144.023 106.052 143.589 106.052 142.791H106.669V147.65H91.9395V133.537Z" fill="#18181E"/>
<path d="M128.468 131.688V132.305C127.707 132.305 127.234 132.74 127.234 133.537V147.65H123.751L114.754 137.964V147.65H110.4V133.537C110.4 132.74 109.965 132.305 109.168 132.305V131.688H115.225L122.884 139.924V131.688H128.468Z" fill="#18181E"/>
<path d="M148.649 143.226V147.65H132.25V133.501C132.25 132.74 131.815 132.305 131.016 132.305V131.688H148.068V136.114H147.415C147.415 135.317 146.98 134.88 146.218 134.88H137.147V137.82H146V140.867H137.147V144.458H146.797C147.561 144.458 147.996 144.023 147.996 143.226H148.649Z" fill="#18181E"/>
<path d="M160.885 137.853C164.917 138.363 168.258 139.234 168.258 142.683C168.258 146.353 164.555 147.878 160.268 147.878C157.242 147.851 154.243 147.298 151.406 146.242L152.715 141.962L153.332 142.145C153.222 142.834 153.587 143.271 154.384 143.634C156.056 144.323 157.689 144.614 159.723 144.614C161.466 144.614 163.537 144.359 163.537 143.052C163.537 142.034 162.338 141.672 157.617 141.199C154.675 140.908 151.661 139.82 151.661 136.732C151.661 133.391 155.438 131.467 160.088 131.467C162.521 131.467 164.735 131.938 167.713 133.028L165.825 137.063L165.244 136.772C165.424 136.335 165.316 135.79 164.663 135.499C163.464 134.993 161.212 134.738 159.869 134.738C158.344 134.738 156.382 135.137 156.382 136.335C156.382 137.207 157.763 137.461 159.471 137.687L160.885 137.853Z" fill="#18181E"/>
<path d="M180.36 137.853C184.392 138.362 187.732 139.234 187.732 142.683C187.732 146.352 184.029 147.877 179.742 147.877C176.717 147.851 173.719 147.297 170.883 146.242L172.189 141.962L172.807 142.144C172.698 142.834 173.061 143.271 173.861 143.633C175.53 144.323 177.165 144.613 179.199 144.613C180.941 144.613 183.011 144.359 183.011 143.052C183.011 142.034 181.812 141.671 177.091 141.198C174.163 140.908 171.137 139.82 171.137 136.731C171.137 133.391 174.913 131.467 179.562 131.467C181.995 131.467 184.209 131.938 187.187 133.028L185.3 137.063L184.721 136.765C184.903 136.328 184.793 135.783 184.139 135.492C182.941 134.986 180.691 134.731 179.346 134.731C177.821 134.731 175.859 135.13 175.859 136.328C175.859 137.2 177.24 137.454 178.947 137.68L180.36 137.853Z" fill="#18181E"/>
<path d="M197.41 98.1647H214.001L211.696 94.1753H199.715L197.41 98.1647Z" fill="#18181E"/>
<path d="M203.861 99.7622L206.166 103.754H211.696L214 99.7622H203.861Z" fill="#18181E"/>
<path d="M194.645 99.7622H178.055L180.359 103.754H192.341L194.645 99.7622Z" fill="#18181E"/>
<path d="M185.889 94.1753H180.359L178.055 98.1647H188.194L185.889 94.1753Z" fill="#18181E"/>
<path d="M205.244 92.578L208.008 87.789L205.705 83.7974L200.635 92.578H205.244Z" fill="#18181E"/>
<path d="M196.029 100.559L187.732 114.926H192.341L198.331 104.551L196.029 100.559Z" fill="#18181E"/>
<path d="M186.811 105.348L184.047 110.137L186.351 114.129L191.42 105.348H186.811Z" fill="#18181E"/>
<path d="M194.645 98.1645L186.351 83.7974L184.047 87.789L190.037 98.1645H194.645Z" fill="#18181E"/>
<path d="M196.949 110.137L199.713 114.926H204.322L199.254 106.148L196.949 110.137Z" fill="#18181E"/>
<path d="M197.41 99.7622L205.707 114.129L208.009 110.138L202.019 99.7622H197.41Z" fill="#18181E"/>
<path d="M204.323 83H199.714L196.029 89.3862L192.341 83H187.732L196.029 97.3671L204.323 83Z" fill="#18181E"/>
</svg>
