<svg width="230" height="230" viewBox="0 0 230 230" fill="none" xmlns="http://www.w3.org/2000/svg">
<path d="M54.6018 185.621C51.8624 183.923 50 179.63 50 175.011C50 167.384 52.206 161.495 55.0632 161.495C55.8384 161.495 55.9986 163.338 55.9194 171.346C55.8323 180.15 55.9606 181.351 57.1268 182.647C58.8516 184.565 62.5099 184.581 64.2815 182.68C65.0081 181.9 65.9842 179.899 66.4506 178.233C67.2433 175.402 67.1783 173.599 65.9942 165.566C65.5989 162.885 66.8435 161.208 68.9309 161.611C70.6388 161.939 71.4199 165.746 71.0916 172.14C70.7543 178.709 68.7256 183.558 65.4889 185.532C62.7625 187.195 57.2148 187.24 54.6018 185.621ZM72.2061 185.915C72.0114 185.408 72.5705 182.405 73.4486 179.242C74.5809 175.163 75.3868 173.426 76.2213 173.265C76.8683 173.14 77.3976 173.349 77.3976 173.729C77.3976 174.109 77.7078 175.235 78.0869 176.232L78.7762 178.045L81.5599 174.524C85.1484 169.984 86.215 170.192 88.1417 175.809C88.9652 178.21 89.9754 180.511 90.3866 180.922C91.7261 182.262 93.3718 180.413 94.2295 176.604C94.9621 173.351 95.9774 171.81 97.4081 171.779C98.5431 171.755 99.3654 174.741 98.9683 177.446C98.4533 180.953 99.6433 182.899 102.303 182.899C103.322 182.899 104.743 182.368 105.46 181.719C106.534 180.747 106.639 180.217 106.052 178.722C104.915 175.825 105.151 167.008 106.448 163.917C108.707 158.535 111.158 157.392 113.65 160.56C115.566 162.995 115.563 169.956 113.645 175.194C111.348 181.463 111.343 181.499 112.696 182.488C113.392 182.997 114.673 183.413 115.543 183.413C116.972 183.413 117.124 183.101 117.127 180.159C117.13 176.411 118.99 172.823 121.531 171.665C123.828 170.619 125.229 171.326 126.397 174.124C127.595 176.99 126.953 179.162 124.287 181.259C122.817 182.415 122.655 182.791 123.489 183.111C125.553 183.903 128.601 181.5 130.426 177.644C131.398 175.59 132.193 173.619 132.193 173.265C132.193 172.911 132.614 172.272 133.129 171.844C134.45 170.748 135.136 171.822 136.912 177.762C138.463 182.948 139.697 183.975 141.139 181.28C141.609 180.401 141.734 178.632 141.457 176.782C140.929 173.259 142.309 170.399 144.538 170.399C146.687 170.399 146.398 176.013 144.008 180.687C140.397 187.749 136.046 188.77 133.867 183.067L132.688 179.978L129.436 183.02C125.763 186.455 122.177 187.574 119.473 186.127C118.189 185.439 117.431 185.42 116.07 186.04C113.556 187.186 112.076 187.032 110.016 185.411L108.202 183.984L105.255 185.411C100.606 187.662 98.4257 187.09 95.9683 182.976C95.2871 181.836 95.1363 181.816 94.5485 182.79C94.1867 183.389 93.2814 184.621 92.5365 185.529C90.7533 187.703 89.3402 186.877 86.7721 182.159C85.7122 180.211 84.4334 178.618 83.9302 178.618C83.427 178.618 80.9746 180.468 78.4805 182.728C73.7853 186.983 72.8066 187.48 72.2061 185.915ZM122.572 179.683C123.554 178.5 123.276 175.752 122.136 175.377C121.009 175.006 119.698 177.702 120.215 179.329C120.721 180.925 121.451 181.035 122.572 179.683ZM111.56 172.847C112.412 169.465 112.549 166.288 111.914 164.633C110.346 160.547 107.994 170.013 109.335 175.015C109.909 177.156 110.66 176.425 111.56 172.847ZM149.066 185.418C145.441 182.566 147.357 173.144 151.789 172.031C158.309 170.395 160.606 178.219 154.466 181.148C151.491 182.566 151.384 183.413 154.179 183.413C156.939 183.413 159.658 180.535 161.377 175.792C162.665 172.241 164.118 170.82 164.676 172.568C164.837 173.07 165.164 174.945 165.403 176.735C165.643 178.524 166.073 179.988 166.36 179.988C166.646 179.988 167.575 178.451 168.424 176.573C170.926 171.036 175.183 168.553 178.473 170.709C180.44 171.998 180.519 174.258 178.638 175.437C177.75 175.994 177.14 175.857 176.029 174.851C173.906 172.93 172.711 173.986 169.41 180.697C165.985 187.661 164.593 188.222 163.015 183.272L161.988 180.048L160.407 182.467C157.705 186.6 152.343 187.995 149.066 185.418ZM152.786 179.279C153.561 178.864 154.111 177.849 154.111 176.834C154.111 175.426 153.82 175.14 152.57 175.317C151.389 175.485 150.979 176.056 150.814 177.762C150.581 180.184 150.792 180.346 152.786 179.279ZM95.4851 163.883C94.9206 161.634 96.3142 159.999 98.5722 160.262C101.971 160.657 101.008 165.604 97.5326 165.604C96.3785 165.604 95.7938 165.113 95.4851 163.883ZM101.977 148.906C100.615 148.419 98.6115 147.391 97.5247 146.622C96.4378 145.853 94.2208 145.001 92.598 144.73C90.9752 144.459 88.8176 143.507 87.8034 142.614L85.9594 140.99L88.0331 140.968C90.8275 140.939 93.1513 139.201 93.1513 137.141C93.1513 136.22 93.4058 135.467 93.7168 135.467C94.4642 135.467 96.8855 138.153 97.8844 140.09C98.8386 141.941 102.541 142.264 103.197 140.555C103.424 139.962 105.222 138.765 107.193 137.893C109.775 136.751 111.039 135.713 111.72 134.176C112.839 131.648 112.979 131.621 115.335 133.474C116.823 134.644 117.906 134.864 121.259 134.673C125.181 134.45 125.407 134.526 126.38 136.401C127.628 138.807 127.631 138.892 126.445 138.892C125.921 138.892 125.28 139.739 125.022 140.775C123.678 146.162 118.492 146.354 115.81 141.118C114.782 139.11 114.324 139.165 110.689 141.727C108.52 143.256 106.591 143.978 104.014 144.226C101.058 144.51 100.677 144.68 101.95 145.151C103.997 145.909 108.619 144.84 111.041 143.05C113.533 141.207 113.844 141.248 115.627 143.66C117.118 145.678 121.919 147.615 123.304 146.759C124.448 146.052 125.507 147.116 124.667 148.128C123.378 149.681 119.267 150.066 117.355 148.813C115.787 147.786 115.417 147.782 112.945 148.771C109.715 150.064 105.366 150.117 101.977 148.906ZM121.456 139.811C122.076 139.192 120.541 137.446 119.786 137.912C118.842 138.496 119.072 140.262 120.092 140.262C120.595 140.262 121.208 140.059 121.456 139.811ZM127.727 145.287C126.426 143.986 126.748 141.013 128.475 138.378C129.407 136.955 129.881 136.817 132.498 137.21C134.743 137.546 136.254 137.304 138.719 136.214C141.189 135.122 142.199 134.961 142.906 135.547C145.399 137.616 142.363 142.865 137.358 145.139C133.842 146.736 129.247 146.807 127.727 145.287ZM137.52 141.935C139.837 140.312 139.451 139.119 136.712 139.439C134.9 139.65 134.312 140.077 134.067 141.356C133.692 143.322 135.183 143.572 137.52 141.935ZM80.1378 138.807C74.6325 136.612 71.5265 129.382 74.3542 125.345C75.9108 123.123 76.7113 123.477 76.7228 126.392C76.742 131.286 80.0643 134.919 84.5207 134.919C87.7544 134.919 89.0416 133.794 89.0416 130.969C89.0416 127.401 86.3211 124.856 82.7792 125.112C79.7271 125.332 81.4421 130.672 84.5649 130.672C87.0496 130.672 87.2642 129.529 84.8693 129.05C83.3538 128.747 82.8379 128.3 83.0047 127.434C83.5826 124.433 88.3567 126.922 88.3567 130.224C88.3567 132.058 86.4169 134.097 84.6728 134.097C82.888 134.097 79.5822 132.195 78.7878 130.71C77.6496 128.584 77.9655 125.31 79.4525 123.823C81.1482 122.127 85.3466 121.998 87.5935 123.571C89.4814 124.894 91.7451 129.564 91.7664 132.181C91.813 137.921 86.0914 141.181 80.1378 138.807ZM97.4133 136.456C95.0734 134.817 95.4732 133.412 98.2798 133.412C100.332 133.412 100.919 133.016 102.442 130.602C103.985 128.158 104.479 127.831 106.241 128.09C107.805 128.319 108.227 128.14 108.089 127.304C107.992 126.708 108.135 125.864 108.409 125.429C109.211 124.151 112.181 125.934 112.561 127.922C112.983 130.134 112.492 130.875 110.882 130.454C109.938 130.207 109.59 130.48 109.59 131.467C109.59 136.245 101.718 139.471 97.4133 136.456ZM146.029 136.015C145.043 135.029 144.943 133.412 145.868 133.412C146.993 133.412 151.192 129.376 151.57 127.932C152.132 125.782 150.943 126.327 149.311 128.969C146.772 133.077 144.35 133.707 141.307 131.05L139.385 129.373L143.013 126.174C147.529 122.193 147.197 121.271 142.634 125.119C138.766 128.38 136.303 128.83 136.303 126.273C136.303 125.002 136.833 124.439 138.571 123.865C139.819 123.454 142.039 121.889 143.505 120.388C145.568 118.275 146.69 117.659 148.473 117.659C157.053 117.659 158.286 126.498 150.755 134.028C147.711 137.072 147.271 137.257 146.029 136.015ZM153.102 122.423C153.721 121.422 152.145 119.713 150.602 119.713C149.149 119.713 148.905 121.082 150.138 122.316C151.15 123.328 152.512 123.377 153.102 122.423ZM132.022 135.412C130.4 134.468 130.507 132.26 132.219 131.343C132.987 130.932 134.913 130.69 136.5 130.806C138.967 130.985 139.419 131.257 139.621 132.689C139.766 133.718 139.386 134.708 138.634 135.257C137.187 136.316 133.712 136.397 132.022 135.412ZM118.223 131.175C114.691 129.15 113.015 125.883 113.015 121.025C113.015 117.869 113.371 116.688 115 114.439C117.738 110.659 123.429 108.485 127 109.855C128.538 110.445 128.341 111.435 126.542 112.158C125.287 112.662 125.233 112.785 126.25 112.821C127.058 112.849 127.419 113.287 127.272 114.063C127.114 114.892 126.278 115.325 124.555 115.469C122.487 115.642 122.124 115.899 122.409 116.987C122.677 118.012 122.139 118.541 119.931 119.424C116.774 120.687 115.765 122.826 117.023 125.587C119.093 130.13 128.792 131.819 127.646 127.438C127.32 126.187 127.005 126.061 125.573 126.606C122.861 127.637 120.656 127.354 119.075 125.774C117.726 124.424 117.697 124.229 118.732 123.472C119.355 123.017 119.864 122.293 119.864 121.864C119.864 120.806 120.16 120.866 122.758 122.451C125.231 123.958 130.225 124.277 133.265 123.121C135.065 122.437 135.1 122.472 134.685 124.549C134.12 127.374 131.86 130.455 129.433 131.71C126.5 133.227 121.376 132.982 118.223 131.175ZM94.0943 130.376C93.2945 129.81 92.2896 127.955 91.8612 126.253C91.0475 123.022 89.5073 121.543 86.0753 120.699C82.1508 119.734 83.1611 117.005 87.4508 116.984C89.851 116.973 92.1623 119.255 92.9292 122.393C93.4312 124.448 94.2975 125.168 96.2854 125.182C98.127 125.196 100.879 128.132 100.571 129.755C100.259 131.401 96.1046 131.799 94.0943 130.376ZM97.9459 128.348C97.9459 127.316 95.957 126.269 95.2804 126.945C95.0524 127.173 95.4636 127.797 96.1943 128.331C97.837 129.532 97.9459 129.533 97.9459 128.348ZM68.5309 124.772C64.0648 120.6 63.5054 114.834 67.0296 109.295C67.8181 108.056 68.9863 106.047 69.6255 104.831C70.7284 102.733 70.7237 102.549 69.5344 101.235C67.6255 99.1257 66.8981 99.5353 67.3652 102.456C68.0858 106.962 64.4607 110.162 62.9969 106.312C62.253 104.356 62.2101 96.312 62.9298 93.7364C63.6878 91.0238 65.0687 91.1753 65.0687 93.971C65.0687 97.3593 66.214 97.0569 66.7983 93.5144C67.2957 90.4988 68.1759 88.891 69.3295 88.891C69.7354 88.891 69.8404 90.5717 69.597 93.1719C69.1774 97.6531 69.2379 97.6065 71.3766 91.802C72.1285 89.7612 73.1245 88.2061 73.6797 88.2061C74.9262 88.2061 74.9143 89.3618 73.6305 93.0007C71.9909 97.6478 72.523 98.4766 74.5301 94.4018C75.5422 92.347 76.6785 90.8059 77.0552 90.9771C78.444 91.6082 77.3471 95.9485 73.9528 103.253C71.1268 109.334 70.6055 111.006 71.1934 112.105C71.592 112.849 71.9181 113.633 71.9181 113.846C71.9181 114.526 69.2765 114.262 68.829 113.538C68.1557 112.448 67.1235 113.464 67.1235 115.215C67.1235 116.109 68.3193 118.109 69.8633 119.798C72.5655 122.754 73.1582 124.626 71.9809 126.485C71.5086 127.23 70.7692 126.864 68.5309 124.772ZM96.6743 123.458C94.3692 121.519 92.8243 117.713 93.4903 115.614C94.0408 113.88 94.6685 113.874 96.2214 115.59C97.6824 117.205 101.133 117.97 104.057 117.328C106.608 116.767 106.769 115.346 104.453 113.828C102.51 112.556 102.279 110.996 103.746 109.056C104.65 107.862 104.754 107.848 104.773 108.917C104.785 109.572 106.04 110.893 107.561 111.853C111.239 114.175 112.108 116.15 111.031 119.744C109.938 123.393 107.056 125.187 102.279 125.19C99.4844 125.192 98.3004 124.826 96.6743 123.458ZM107.839 120.931C109.479 118.59 109.258 117.424 107.364 118.422C105.628 119.336 104.821 120.337 104.806 121.597C104.789 122.991 106.688 122.574 107.839 120.931ZM124.561 121.987C124.048 119.035 124.21 116.974 124.954 116.974C126.295 116.974 128.23 119.472 127.965 120.861C127.73 122.093 124.751 123.078 124.561 121.987ZM75.651 121.141C75.2932 120.796 74.2298 120.411 73.288 120.285C71.3065 120.02 70.5945 117.541 72.01 115.835C72.4951 115.251 73.22 114.115 73.6209 113.311C74.4879 111.572 76.3424 111.087 78.3438 112.076C79.1419 112.471 80.4114 112.889 81.1648 113.007C82.8737 113.273 83.3624 115.974 81.9858 117.544C81.435 118.172 80.773 119.379 80.5147 120.227C80.1772 121.335 79.5186 121.768 78.1734 121.768C77.144 121.768 76.0089 121.486 75.651 121.141ZM78.0826 116.591C78.0826 116.048 77.6202 115.604 77.0552 115.604C76.0235 115.604 75.6472 117.05 76.4658 117.868C77.105 118.507 78.0826 117.735 78.0826 116.591ZM130.118 120.52C128.733 119.398 128.632 118.928 129.128 115.896C129.432 114.04 129.606 111.959 129.515 111.271C129.37 110.175 129.546 110.122 130.942 110.843C131.819 111.295 133.229 112.297 134.077 113.069C136.029 114.847 136.187 118.986 134.365 120.635C132.767 122.081 132.021 122.061 130.118 120.52ZM132.878 115.261C132.878 114.696 132.57 114.234 132.193 114.234C131.816 114.234 131.508 114.696 131.508 115.261C131.508 115.826 131.816 116.289 132.193 116.289C132.57 116.289 132.878 115.826 132.878 115.261ZM137.012 120.443C136.553 119.587 136.529 118.521 136.944 117.431C137.296 116.504 137.399 115.559 137.172 115.332C136.945 115.105 137.427 114.919 138.243 114.919C139.788 114.919 142.467 117.12 142.467 118.389C142.467 121.472 138.385 123.009 137.012 120.443ZM157.351 119.767C157.162 119.043 155.739 117.804 154.189 117.014C152.133 115.965 151.371 115.154 151.371 114.014C151.371 112.035 152.585 110.809 154.545 110.809C155.705 110.809 156.127 110.354 156.292 108.926C156.46 107.458 156.915 106.995 158.349 106.829C162.455 106.355 163.738 114.166 160.338 118.941C158.578 121.412 157.835 121.618 157.351 119.767ZM99.5438 115.537C96.874 114.764 93.8362 111.29 93.8362 109.01C93.8362 108.079 94.3072 106.406 94.8829 105.292C95.8741 103.376 96.013 103.323 97.5061 104.301C100.309 106.138 100.044 104.527 97.2058 102.471C93.1173 99.5095 93.0826 98.692 96.9049 95.3761C99.4706 93.1503 100.125 92.1799 99.8274 91.0421C99.33 89.1399 100.077 89.1821 101.936 91.1612C103.804 93.1492 103.812 94.61 101.974 97.584L100.523 99.9317L101.974 101.476C103.799 103.419 103.798 104.812 101.969 108.59C100.788 111.03 100.656 111.912 101.27 113.258C101.686 114.172 102.513 114.919 103.109 114.919C103.704 114.919 104.001 115.227 103.768 115.604C103.273 116.405 102.499 116.393 99.5438 115.537ZM146.159 115.095C145.486 114.027 145.275 114.009 144.163 114.924C143.002 115.88 142.95 115.813 143.362 113.891C143.605 112.761 143.969 111.22 144.172 110.467C144.374 109.713 144.251 108.654 143.898 108.113C142.96 106.676 141.1 108.402 141.087 110.722C141.081 111.712 140.789 112.975 140.439 113.53C139.891 114.395 139.737 114.372 139.353 113.371C138.992 112.43 138.636 112.349 137.511 112.95C136.239 113.631 136.156 113.54 136.565 111.91C136.901 110.573 136.752 110.124 135.973 110.124C134.18 110.124 134.84 108.944 136.859 108.54C137.918 108.329 139.498 107.577 140.37 106.871C142.472 105.17 141.816 103.149 138.493 101.083C136.196 99.6546 136.104 99.4872 137.501 99.2888C138.492 99.1481 139.042 98.5974 139.042 97.7476C139.042 96.2733 140.124 95.952 140.612 97.2816C140.863 97.9665 141.107 97.9665 141.833 97.2816C143.482 95.7268 143.89 96.3835 143.43 99.8501C143.046 102.744 143.148 103.275 144.091 103.275C144.961 103.275 145.207 102.578 145.207 100.109C145.207 97.4186 145.356 97.0667 146.201 97.768C146.763 98.2342 147.836 98.3903 148.666 98.1267C149.926 97.727 150.071 97.8664 149.68 99.0975C149.349 100.14 149.519 100.535 150.298 100.535C150.888 100.535 151.371 100.843 151.371 101.22C151.371 101.597 150.923 101.905 150.376 101.905C148.96 101.905 145.892 103.386 145.892 104.07C145.892 104.843 150.089 104.785 151.339 103.994C152.755 103.098 153.656 103.885 152.629 105.122C151.921 105.975 151.977 106.318 152.938 107.02C154.415 108.1 154.467 109.038 153.02 108.482C152.293 108.203 151.81 108.521 151.57 109.436C151.199 110.856 150.001 111.358 150.001 110.093C150.001 108.952 146.634 105.898 145.886 106.361C144.68 107.106 145.154 108.179 147.738 110.546C149.529 112.186 149.93 112.864 149.108 112.864C148.326 112.864 147.947 113.423 147.947 114.576C147.947 116.575 147.225 116.784 146.159 115.095ZM85.7882 114.465C84.7757 114.057 84.6206 110.124 85.6169 110.124C85.9936 110.124 86.3019 110.432 86.3019 110.809C86.3019 111.186 86.7642 111.494 87.3293 111.494C88.9867 111.494 88.5287 109.559 85.8131 105.089C84.4141 102.786 82.8938 99.5091 82.4346 97.8073C81.7581 95.2998 81.591 95.0825 81.5535 96.6615C81.5281 97.7332 82.1615 100.764 82.9612 103.397C84.1117 107.185 84.2577 108.529 83.6608 109.839C82.8516 111.615 80.9261 112.009 79.5895 110.672C78.2407 109.323 78.5814 107.918 80.1374 108.412C81.2873 108.777 81.5056 108.537 81.4969 106.917C81.4912 105.856 81.0629 103.6 80.5451 101.905C79.697 99.1284 79.5632 98.9925 79.195 100.535C78.9702 101.477 78.705 103.601 78.6057 105.255C78.4619 107.649 78.1143 108.377 76.9035 108.822C75.8411 109.212 75.0569 109.055 74.3044 108.303C72.9655 106.964 73.3598 105.597 74.9985 105.896C76.7158 106.209 77.375 104.841 77.3872 100.938C77.399 97.1524 79.6672 92.5452 82.4009 90.754L84.0357 89.6829L83.7234 92.9334C83.3818 96.488 84.533 99.3665 88.7453 105.49C91.7651 109.88 92.1192 111.219 90.795 113.24C89.7532 114.83 87.8478 115.296 85.7882 114.465ZM128.12 108.456C127.525 107.74 127.502 107.1 128.036 106.103C129.282 103.775 128.862 103.736 126.347 105.944C125.015 107.113 123.259 108.069 122.443 108.069C121.289 108.069 121.143 107.887 121.782 107.247C122.234 106.795 122.604 105.1 122.604 103.48C122.604 101.056 122.831 100.535 123.89 100.535C124.597 100.535 125.557 100.994 126.022 101.555C126.885 102.595 128.083 102.363 128.083 101.156C128.083 100.789 126.997 99.8476 125.668 99.064C122.395 97.1328 121.642 95.5709 122.594 92.6864L123.354 90.3843L126.061 92.1566C128.433 93.7093 128.768 94.2535 128.768 96.5471C128.768 97.987 129.076 99.1652 129.453 99.1652C129.83 99.1652 130.138 98.2405 130.138 97.1103C130.138 94.7426 131.325 94.4687 134.961 95.9973L137.201 96.9392L135.553 97.8962C134.647 98.4226 133.289 99.1882 132.535 99.5976C130.701 100.594 130.797 102.195 132.707 102.466C133.743 102.613 134.248 102.333 134.248 101.61C134.248 100.001 135.342 100.301 137.833 102.594C140.005 104.593 140.031 104.682 138.74 105.676C137.005 107.011 132.776 107.077 133.281 105.76C133.712 104.638 131.744 103.708 131.11 104.734C130.867 105.127 131.011 105.792 131.431 106.211C131.85 106.63 132.193 107.528 132.193 108.206C132.193 109.729 129.322 109.904 128.12 108.456ZM155.169 104.782C154.922 103.658 153.841 101.352 152.766 99.6576C151.179 97.1547 150.158 96.3601 147.318 95.4169C145.396 94.7785 143.566 93.7425 143.252 93.1147C142.595 91.8035 143.042 86.1513 143.803 86.1513C144.61 86.1513 146.28 88.3687 147.167 90.6178C147.616 91.7559 149.078 93.5607 150.416 94.6286C151.754 95.6964 153.465 97.5392 154.218 98.7238C155.409 100.598 155.525 100.655 155.108 99.1652C154.566 97.2307 154.263 96.7841 150.152 91.8621C146.92 87.9931 147.119 86.9413 150.743 88.7501C152.673 89.7135 153.434 90.8026 155.08 94.9594L157.076 100L158.064 98.1159C159.006 96.3171 158.954 96.1558 156.923 94.5664C154.261 92.4826 154.15 90.1094 156.608 87.8309C159.321 85.317 159.807 85.6839 159.286 89.8527C158.767 94.0064 159.582 95.2501 161.256 92.8597C163.857 89.1457 161.371 84.2602 157.297 85.0802C151.312 86.2848 147.607 86.2364 145.224 84.9223C142.599 83.4749 139.727 78.7794 139.727 75.9356V74.1547L145.378 74.4071C151.98 74.7021 153.884 75.515 156.367 79.0973C157.369 80.5441 159.123 82.2792 160.263 82.953C162.595 84.3305 164.385 87.3064 164.385 89.8064C164.385 90.724 163.152 93.321 161.645 95.5775C158.515 100.266 158.16 101.474 160.583 99.1979C163.837 96.1409 165.77 99.6921 163.21 104.025C161.851 106.327 160.96 106.588 160.96 104.685C160.96 102.301 159.429 102.261 157.483 104.593L155.618 106.826L155.169 104.782ZM152.399 82.7266C152.632 82.3499 153.497 82.0369 154.323 82.0311C155.276 82.0245 155.524 81.8302 155.001 81.4981C154.549 81.2107 153.875 80.2137 153.504 79.2825C153.027 78.0871 152.815 77.9418 152.785 78.7882C152.724 80.4702 151.058 80.2805 149.778 78.4457C148.876 77.1519 148.698 77.097 148.667 78.1032C148.648 78.7625 148.425 79.3019 148.172 79.3019C147.919 79.3019 147.095 78.7625 146.342 78.1032C145.588 77.444 145.218 77.3243 145.519 77.8373C145.851 78.4018 145.694 79.0062 145.123 79.368C144.452 79.7931 144.724 79.9689 146.063 79.9763C148.112 79.9877 148.424 80.5922 147.09 81.9614C146.602 82.4625 147.334 82.3215 148.794 81.6332C151.552 80.3329 152.784 80.6821 151.385 82.3676C150.845 83.0185 150.793 83.4115 151.247 83.4115C151.648 83.4115 152.166 83.1033 152.399 82.7266ZM90.0046 103.728C87.4028 100.749 85.8412 93.4992 86.9661 89.6213C87.3413 88.3278 87.5201 87.1412 87.3635 86.9846C86.7256 86.3467 82.1266 88.4106 81.1827 89.7583C79.9378 91.5356 79.1384 90.9206 79.7137 88.6284C80.3884 85.9404 82.0194 84.7814 85.1277 84.7814C87.747 84.7814 87.8797 84.6958 86.8523 83.6684C86.2401 83.0562 84.9244 82.5553 83.9285 82.5553C82.3777 82.5553 82.1477 82.2972 82.3262 80.7574C82.6474 77.987 85.24 77.9828 88.093 80.7481L90.4115 82.9953V80.7846C90.4115 78.0955 91.9777 77.2774 93.8617 78.9825C95.4228 80.3952 95.6328 82.0416 94.252 82.0416C93.7272 82.0416 93.1316 82.4749 92.9284 83.0044C92.6113 83.8307 92.8195 83.8313 94.3962 83.0086C96.653 81.8312 100.128 81.7575 101.234 82.8636C102.179 83.8087 102.355 87.5212 101.454 87.5212C101.124 87.5212 100.47 87.0588 100.001 86.4938C99.4882 85.8762 98.0202 85.4746 96.3209 85.4872C93.8908 85.5051 93.6861 85.6132 94.8636 86.2573C96.5959 87.2048 97.9459 88.8799 97.9459 90.0821C97.9459 91.0755 94.7114 94.3706 93.7362 94.3706C93.4145 94.3706 93.1513 93.3295 93.1513 92.0571C93.1513 89.3382 91.3758 87.3453 90.3698 88.9351C89.1862 90.8056 89.7035 96.0046 91.4456 99.7469C92.3837 101.762 93.1513 103.655 93.1513 103.954C93.1513 105.232 91.1953 105.092 90.0046 103.728ZM132.2 93.3521C131.137 92.0707 131.813 89.1834 133.311 88.6086C134.672 88.0863 137.672 89.9071 137.672 91.2552C137.672 93.8136 133.811 95.2932 132.2 93.3521ZM138.015 93.6856C137.383 92.6624 138.262 91.6308 139.768 91.6308C140.641 91.6308 141.097 92.1013 141.097 93.0007C141.097 94.4535 138.804 94.963 138.015 93.6856ZM128.564 90.5129C128.299 90.2487 128.083 89.4461 128.083 88.7292C128.083 87.7694 128.489 87.4836 129.624 87.6448C130.632 87.7878 131.166 88.3347 131.166 89.2241C131.166 90.5828 129.472 91.4215 128.564 90.5129ZM137.769 89.3497C136.605 87.9474 137.56 86.0379 139.301 86.2863C140.337 86.4342 140.755 86.9827 140.755 88.1967C140.755 90.1507 138.997 90.8294 137.769 89.3497ZM62.4659 88.7541C62.0139 88.302 61.644 87.2012 61.644 86.3078C61.644 84.8312 61.7418 84.7814 62.7203 85.7599C63.3534 86.3929 64.9754 86.8381 66.6587 86.8407L69.5208 86.8452L67.466 88.2061C65.1095 89.7668 63.6397 89.9278 62.4659 88.7541ZM123.316 87.8965C121.89 86.178 122.737 84.4389 125.001 84.4389C126.416 84.4389 127.109 84.8144 127.274 85.6705C127.546 87.0826 126.27 88.891 125.001 88.891C124.528 88.891 123.77 88.4435 123.316 87.8965ZM133.108 86.4477C132.881 85.8573 133.024 85.0458 133.426 84.6444C134.491 83.579 136.303 84.5143 136.303 86.1298C136.303 87.819 133.732 88.0748 133.108 86.4477ZM70.6852 86.0143C69.5169 84.846 69.6679 83.0198 71.0469 81.6408C72.1685 80.5192 72.2539 80.5616 72.6746 82.448C72.9187 83.543 73.3437 84.9783 73.619 85.6376C73.9938 86.5351 73.7913 86.8362 72.8133 86.8362C72.0949 86.8362 71.1373 86.4664 70.6852 86.0143ZM75.1065 84.8987C74.483 84.2098 73.9729 82.9914 73.9729 82.1912C73.9729 80.3484 75.3639 77.247 76.1904 77.247C77.2618 77.247 80.8223 81.19 80.8223 82.3764C80.8223 85.8453 77.3499 87.3776 75.1065 84.8987ZM127.73 84.7485C127.486 83.977 127.657 82.8982 128.111 82.3512C129.935 80.1534 133.408 82.031 132.546 84.7485C132.234 85.7323 131.514 86.1513 130.138 86.1513C128.762 86.1513 128.043 85.7323 127.73 84.7485ZM63.4705 84.3248C63.2194 84.0736 63.0139 83.2414 63.0139 82.4754C63.0139 81.3922 63.1965 81.2654 63.8358 81.9046C64.2879 82.3567 65.5585 82.7266 66.6594 82.7266C68.3611 82.7266 68.5333 82.8806 67.8085 83.754C66.9387 84.802 64.2955 85.1498 63.4705 84.3248ZM137.248 83.7868C136.725 82.4248 137.499 81.3567 139.009 81.3567C140.324 81.3567 141.378 83.0872 140.716 84.1583C140.107 85.1441 137.668 84.883 137.248 83.7868ZM124.454 82.2936C124.19 82.0295 123.974 81.2482 123.974 80.5576C123.974 79.6657 124.484 79.3019 125.734 79.3019C127.165 79.3019 127.453 79.5884 127.275 80.836C127.058 82.3544 125.381 83.2209 124.454 82.2936ZM132.909 81.7369C131.493 80.0307 132.304 77.6163 134.373 77.3772C136.949 77.0796 138.298 79.5307 136.593 81.4137C135.176 82.9802 134.025 83.0812 132.909 81.7369ZM64.7651 80.762C63.6563 80.524 62.8087 80.0981 62.8815 79.8156C62.9543 79.533 63.0139 78.5005 63.0139 77.521C63.0139 76.409 63.8885 74.8656 65.3427 73.4114C67.2119 71.5421 68.2101 71.0826 70.401 71.0826C72.6082 71.0826 73.3615 71.4352 74.3381 72.9256C75.4085 74.5593 75.4349 74.9661 74.5705 76.5062C73.4198 78.5561 69.4421 81.3911 67.8784 81.2757C67.2749 81.2311 65.8739 80.9999 64.7651 80.762ZM68.2571 77.3643C67.6336 76.6754 67.1188 75.6737 67.113 75.1383C67.1041 74.309 67.0097 74.3115 66.4759 75.1553C65.6664 76.4347 66.8045 78.6169 68.2812 78.6169C69.2951 78.6169 69.293 78.509 68.2571 77.3643ZM72.1413 74.268C71.4615 73.4578 70.8558 72.6974 70.7954 72.5781C70.7349 72.4589 70.5133 72.6398 70.3029 72.9802C69.7595 73.8594 71.8723 76.6712 72.6945 76.1631C73.105 75.9094 72.8844 75.1538 72.1413 74.268ZM158.167 78.0092C156.313 76.0857 154.796 74.073 154.796 73.5366C154.796 73.0002 155.728 72.3566 156.867 72.1064C158.006 71.8562 159.849 70.8849 160.963 69.9481C162.076 69.0112 163.302 68.439 163.686 68.6766C164.436 69.1401 164.502 75.6157 163.79 78.9029C163.119 82.0052 161.82 81.7988 158.167 78.0092ZM128.127 79.6972C127.064 78.416 127.739 77.247 129.541 77.247C130.565 77.247 130.862 77.6285 130.699 78.7345C130.426 80.5933 129.239 81.0373 128.127 79.6972ZM95.7428 78.7882C95.1677 78.1289 94.343 76.9044 93.9101 76.0671L93.1231 74.5446L90.9111 75.8933C86.3084 78.6997 80.4586 76.7858 80.9521 72.635C81.1791 70.7257 82.8772 69.5724 82.8772 71.3275C82.8772 72.823 84.139 73.3948 85.3045 72.4276C86.9049 71.0993 86.5659 68.4756 84.7608 68.2192L83.2196 68.0003L85.0721 66.1168C87.5928 63.5537 91.1203 63.5191 93.1016 66.0379C93.8824 67.0305 94.5212 68.2809 94.5212 68.8165C94.5212 69.6307 94.7708 69.6155 96.0435 68.7241C98.2198 67.1997 101.837 67.3399 102.716 68.9827C103.523 70.4893 103.665 74.0397 102.947 74.7571C102.684 75.02 102.114 74.5711 101.679 73.7594L100.89 72.2836L100.506 73.75C100.287 74.5889 100.55 75.6439 101.122 76.2155C101.887 76.9807 101.947 77.5394 101.379 78.6008C100.447 80.342 97.1926 80.4503 95.7428 78.7882ZM99.2292 71.7675C99.2051 70.0998 99.18 70.1087 98.2636 72.11C97.7461 73.2401 97.3339 74.9354 97.3475 75.8772C97.3715 77.5449 97.3967 77.536 98.3131 75.5347C98.8306 74.4045 99.2428 72.7093 99.2292 71.7675ZM90.0108 68.3428C90.4505 65.9763 90.4435 65.9677 89.467 67.6718C88.9229 68.6213 88.2962 70.6247 88.0743 72.1239L87.6708 74.8498L88.6181 72.7949C89.1391 71.6648 89.7658 69.6613 90.0108 68.3428ZM95.8806 72.9662C95.8724 71.7629 95.7321 71.6431 95.2408 72.4198C94.8947 72.9668 94.7635 73.6604 94.9493 73.9609C95.5434 74.9221 95.8913 74.5505 95.8806 72.9662ZM92.4366 72.1459C93.014 71.4502 93.0527 70.786 92.5665 69.9198C91.829 68.606 91.7912 68.6541 90.7098 72.2812C90.3623 73.4465 91.4263 73.3631 92.4366 72.1459ZM122.541 75.3706C122.149 74.3385 122.021 72.4634 122.258 71.2037C122.598 69.3895 122.928 69.0147 123.844 69.4011C124.48 69.6693 125.695 70.0393 126.542 70.2231C127.39 70.4069 128.083 70.9837 128.083 71.5049C128.083 72.5128 129.976 72.7669 131.237 71.9283C131.653 71.6515 132.474 70.5004 133.062 69.3702L134.13 67.3154L134.569 69.0545C135.626 73.2354 131.539 77.1059 126.973 76.2492C125.543 75.981 124.659 76.0887 124.659 76.5311C124.659 77.9741 123.234 77.1935 122.541 75.3706ZM135.182 75.5393C134.945 74.921 135.079 74.0868 135.481 73.6854C136.524 72.6418 138.502 73.5956 138.229 75.0111C137.925 76.5877 135.73 76.9682 135.182 75.5393ZM76.2772 74.1694C76.04 73.5512 76.1743 72.7169 76.5757 72.3155C77.6193 71.2719 79.5966 72.2257 79.324 73.6412C79.0203 75.2178 76.8256 75.5983 76.2772 74.1694ZM139.654 71.4272C137.555 70.2865 135.618 67.5545 135.618 65.7365C135.618 64.7407 136.492 64.2421 139.51 63.5183C142.562 62.7861 143.462 62.7667 143.683 63.428C143.87 63.9889 144.718 64.1299 146.216 63.8489C148.067 63.5018 148.666 63.7089 149.577 65.0096C151.168 67.2803 150.984 70.1112 149.164 71.3862C147.275 72.7092 142.054 72.7317 139.654 71.4272ZM146.2 68.4294C145.842 68.1002 144.162 67.6592 142.467 67.4493C139.674 67.1035 139.51 67.1597 140.714 68.0477C142.135 69.095 147.316 69.4554 146.2 68.4294ZM74.2224 70.7447C73.9851 70.1265 74.1195 69.2922 74.5209 68.8908C75.5645 67.8472 77.5418 68.801 77.2692 70.2165C76.9655 71.7931 74.7707 72.1736 74.2224 70.7447ZM62.7203 70.0062C61.4385 68.7244 61.3283 66.8776 62.4659 65.74C63.662 64.544 64.3838 64.7315 64.3838 66.2383C64.3838 66.9644 65.1541 68.1644 66.0956 68.905C67.5165 70.0227 67.6234 70.3221 66.7245 70.667C64.9783 71.3371 63.868 71.1539 62.7203 70.0062ZM152.864 70.2034C151.797 68.9176 152.752 67.9164 155.532 67.4057C158.46 66.8678 160.96 64.7246 160.96 62.7527C160.96 61.5619 161.131 61.4668 161.988 62.1783C162.553 62.6473 163.015 63.8642 163.015 64.8826C163.015 68.8579 155.163 72.9737 152.864 70.2034ZM79.2279 69.2599C78.9854 69.0173 78.5888 67.3248 78.3466 65.4986C78.1043 63.6725 77.7345 62.1783 77.5248 62.1783C77.3151 62.1783 76.4529 62.8271 75.6089 63.62C73.6159 65.4923 72.4798 64.722 72.6221 61.595C72.6846 60.2206 72.7059 58.8605 72.6694 58.5725C72.6329 58.2846 70.7625 58.9781 68.5129 60.1137C66.2634 61.2492 64.1058 62.1783 63.7184 62.1783C62.1935 62.1783 63.1583 59.8305 66.0961 56.3917C67.7913 54.4075 69.1783 52.586 69.1783 52.3441C69.1783 52.1022 67.8684 51.8995 66.2673 51.8937C64.6663 51.888 62.9291 51.6127 62.4069 51.282C61.4045 50.6472 61.4573 50.5826 65.7057 47.2457L67.3701 45.9385L64.8495 45.4656C63.3172 45.1782 62.3289 44.6021 62.3289 43.9964C62.3289 43.2498 63.2306 43.0023 65.9249 43.0094C72.5342 43.0265 74.4482 44.4992 70.8907 46.8302C68.5157 48.3863 68.7397 48.97 71.9181 49.5069C73.425 49.7615 74.6579 50.2402 74.6579 50.5707C74.6579 50.9012 73.662 52.3059 72.4448 53.6922L70.2317 56.2127L72.4108 55.0859C75.7964 53.3351 76.2583 53.5764 75.8264 56.8701L75.4447 59.7811L76.9606 57.8975C79.0883 55.2537 80.0226 55.5428 80.2816 58.9249L80.5046 61.8359L81.4179 58.7648L82.3313 55.6936L83.5702 57.2236C85.2166 59.2569 85.6169 59.1543 85.6169 56.6988C85.6169 54.1986 85.8829 54.1697 88.5151 56.3845C89.6527 57.3418 90.703 58.0055 90.849 57.8595C90.995 57.7135 90.6481 56.4779 90.078 55.1136C89.508 53.7494 89.0416 52.315 89.0416 51.9262C89.0416 51.0025 92.1782 51.0169 93.9192 51.9487C96.6156 53.3917 96.7613 52.1133 94.221 49.3015C92.7965 47.7248 91.7927 46.0133 91.9903 45.4983C92.3696 44.5101 97.3703 43 100.264 43C103.038 43 102.934 44.1436 100.055 45.2958C98.5821 45.885 97.1813 46.6844 96.9415 47.0724C96.7017 47.4604 97.9083 49.2777 99.623 51.1107C104.518 56.344 103.359 58.0645 96.5553 55.6641C94.9423 55.095 93.4908 54.7612 93.3297 54.9222C93.1686 55.0833 93.679 56.6669 94.4639 58.4413C97.192 64.6086 96.1358 66.0009 91.4805 62.374C88.8473 60.3225 88.1421 60.0431 87.6322 60.8491C87.2888 61.3918 87.0031 62.2212 86.9973 62.6921C86.9829 63.8675 85.6234 63.7664 84.2068 62.4844C83.1168 61.498 82.9714 61.67 82.2091 64.8478C81.4029 68.2086 80.102 70.1339 79.2279 69.2599ZM129.306 68.514C128.732 67.8548 128.402 66.9301 128.572 66.4592C129.02 65.2219 126.34 65.3895 125.05 66.6794C124.071 67.6579 123.974 67.6053 123.974 66.1006C123.974 64.3975 125.851 62.1783 127.292 62.1783C127.739 62.1783 129.333 62.5616 130.834 63.0301C133.764 63.9445 134.151 64.9328 132.768 67.9681C131.837 70.0113 130.759 70.1813 129.306 68.514ZM67.1235 67.6579C65.4781 66.0125 65.3641 64.0357 66.83 62.5697C68.29 61.1097 68.9553 61.2081 70.9218 63.1746C71.9708 64.2236 72.6031 65.6403 72.6031 66.9418C72.6031 68.8029 72.3816 69.0278 70.5482 69.0278C69.4067 69.0278 67.8846 68.4189 67.1235 67.6579ZM152.121 64.7469C151.606 63.3656 151.803 63.1566 154.027 62.7315C158.014 61.9696 159.591 62.093 159.591 63.1669C159.591 64.5826 156.875 66.288 154.622 66.288C153.253 66.288 152.531 65.8428 152.121 64.7469ZM98.3431 62.3925C94.4284 57.056 95.1865 55.8828 100.119 59.6447C102.184 61.22 103.083 62.4114 103.083 63.5737C103.083 66.5039 100.973 65.9782 98.3431 62.3925ZM132.314 61.0484C130.028 60.2684 129.133 60.2219 128.383 60.8441C127.606 61.4889 127.302 61.3529 126.862 60.1629L126.312 58.676L124.341 60.2264L122.37 61.7768L122.874 60.094C123.151 59.1684 123.548 57.8718 123.756 57.2125C124.009 56.4095 123.768 56.0139 123.026 56.0139C121.605 56.0139 121.626 55.4174 123.108 53.7799C124.241 52.5283 124.233 52.4173 122.937 51.4575C121.628 50.488 121.624 50.4144 122.824 49.5247C123.998 48.6537 124.005 48.4728 122.944 46.4212C121.532 43.6898 121.91 43.291 124.595 44.6794C126.626 45.7299 126.713 45.7179 126.713 44.3875C126.713 42.8675 127.415 42.6054 128.521 43.7118C129.013 44.2042 130.198 44.1653 132.366 43.5856C134.846 42.9223 136.091 42.9249 138.337 43.598C141.909 44.668 143.534 46.2828 144.591 49.8102C146.857 57.3741 139.985 63.6651 132.314 61.0484ZM139.556 57.0038C141.718 54.5472 141.678 49.9164 139.474 47.3533C138.256 45.9381 137.228 45.4658 135.364 45.4658C133.997 45.4658 132.493 45.8715 132.022 46.3674C131.32 47.106 131.577 47.2128 133.442 46.958C135.389 46.6922 135.671 46.8297 135.39 47.9058C135.14 48.8634 135.445 49.1645 136.669 49.1645C138.866 49.1645 139.394 50.2982 137.635 51.2394C136.306 51.9505 136.277 52.1104 137.273 53.2113C138.812 54.9116 138.633 55.3289 136.367 55.3289C134.678 55.3289 134.433 55.5485 134.754 56.7752C135.099 58.094 134.927 58.1822 132.806 57.7768L130.481 57.3322L132.193 58.389C134.468 59.7933 137.624 59.1997 139.556 57.0038ZM130.785 54.2781C131.198 54.5332 131.332 54.2976 131.107 53.7121C130.874 53.1031 131.213 52.5821 131.971 52.3861C133.161 52.0785 133.16 52.0594 131.948 51.9837C131.094 51.9303 130.81 51.5551 131.084 50.8412C131.32 50.2276 131.204 49.9564 130.81 50.1997C130.435 50.4315 129.953 50.1631 129.738 49.6033C129.401 48.7251 129.186 48.7426 128.172 49.7311C126.955 50.918 126.839 52.0642 127.726 54.1478C128.12 55.0742 128.462 55.1825 129.161 54.6025C129.665 54.1837 130.396 54.0378 130.785 54.2781ZM144.298 60.3562C144.049 60.1074 144.46 59.4735 145.211 58.9475C146.049 58.3604 146.577 57.2124 146.577 55.975C146.577 53.7447 147.318 53.4043 148.659 55.0195C149.794 56.3867 152.317 56.0283 152.616 54.4575C152.787 53.5611 151.893 52.8165 149.198 51.6114C146.921 50.5931 145.936 49.8466 146.577 49.6262C147.142 49.4319 148.518 48.9954 149.635 48.656L151.665 48.0391L148.005 46.2995C143.756 44.2799 144.211 43.5899 149.873 43.4659C155.1 43.3515 155.74 43.8382 155.232 47.5424C154.989 49.3202 155.095 50.5344 155.494 50.5344C155.864 50.5344 156.397 50.6114 156.68 50.7056C156.962 50.7998 157.347 49.367 157.536 47.5217C157.915 43.8043 159.123 42.5589 161.711 43.2176C163.257 43.6113 163.37 43.9762 163.566 49.2037C163.813 55.7963 162.992 57.5235 158.681 59.4809C156.645 60.4055 154.232 60.7827 150.287 60.7934C147.242 60.8017 144.547 60.6049 144.298 60.3562ZM159.438 55.6326C160.961 54.5661 161.596 51.2193 160.276 51.2193C159.899 51.2193 159.591 51.6963 159.591 52.2794C159.591 52.8625 158.775 54.0954 157.778 55.0192C155.732 56.9154 156.959 57.3688 159.438 55.6326ZM160.96 45.7398C160.96 45.363 160.652 45.0548 160.276 45.0548C159.899 45.0548 159.591 45.363 159.591 45.7398C159.591 46.1165 159.899 46.4247 160.276 46.4247C160.652 46.4247 160.96 46.1165 160.96 45.7398ZM62.3289 55.7196C62.3289 53.8172 64.5226 52.2331 66.2429 52.8932C67.1771 53.2517 67.1501 53.4794 66.0258 54.7217C65.3195 55.5022 64.1987 56.4313 63.5352 56.7864C62.533 57.3228 62.3289 57.1423 62.3289 55.7196ZM80.8223 53.3312C80.8223 51.079 80.1923 50.7751 77.9789 51.9597C76.0526 52.9906 75.7103 52.3405 77.0792 50.2513L78.2401 48.4795H75.7641C72.9272 48.4795 72.4585 47.4663 75.0003 46.8284C76.7764 46.3826 77.2225 45.4507 76.0166 44.7054C75.6337 44.4688 75.4978 43.9883 75.7145 43.6376C76.3284 42.6444 79.2424 42.8878 80.382 44.0274C81.6902 45.3356 82.5194 45.3208 84.6086 43.9519C85.7319 43.2159 86.92 43.0066 88.1796 43.3228C89.9953 43.7785 90.0167 43.8337 88.7387 44.7682C87.4237 45.7297 87.4237 45.7502 88.7395 46.7454C89.4707 47.2985 90.3002 47.7608 90.5828 47.7728C90.8653 47.7848 91.0965 48.1028 91.0965 48.4795C91.0965 48.8562 90.1718 49.1645 89.0416 49.1645C86.8714 49.1645 86.5502 49.8086 87.6736 51.9077C88.6955 53.8172 87.1101 54.4399 85.8408 52.6276C84.5859 50.8361 83.3912 51.0967 82.8772 53.2741C82.2889 55.7661 80.8223 55.8068 80.8223 53.3312ZM100.159 49.4724C97.9564 47.9295 98.2744 47.1096 101.076 47.1096C103.196 47.1096 103.492 47.3074 103.302 48.5971C103.017 50.5299 102.053 50.7986 100.159 49.4724Z" fill="#18181E"/>
</svg>
