<svg width="230" height="230" viewBox="0 0 230 230" fill="none" xmlns="http://www.w3.org/2000/svg">
<path fill-rule="evenodd" clip-rule="evenodd" d="M57.3222 101.541C56.5961 102.143 56.3786 102 55.9087 102.943C55.2797 104.198 56.4213 104.318 56.6465 104.931C57.0776 106.093 53.8274 112.088 60.7626 112.049C62.6654 112.038 64.5798 111.832 66.4592 111.692C73.4061 111.183 77.9066 111.746 81.2073 117.474L82.015 118.876C82.1159 118.969 82.1082 118.992 82.279 118.996C82.7838 119.004 82.4343 118.996 82.5702 118.887C82.9624 118.313 82.0732 115.525 81.8208 114.861C80.2287 110.713 77.3513 109.183 72.9323 108.636C69.5812 108.228 66.6456 108.636 63.3682 108.784C58.8133 108.989 61.2519 105.502 61.5004 104.83C61.8616 103.848 61.217 103.429 60.852 102.998C60.9413 101.565 61.9237 102.019 61.9509 100.971C61.481 100.505 60.5219 100.248 60.4986 99.5805C60.4869 99.1806 61.3529 98.734 61.481 97.6972C61.7528 95.4799 59.2016 95.7673 59.3725 93.985C60.087 93.3714 61.3179 92.6492 62.1179 92.0473L64.7739 89.8999C67.7445 87.1002 66.1951 85.9197 67.3018 82.9258C68.6182 79.3728 71.9616 78.2972 73.111 76.8255C74.3147 75.2877 75.0137 74.3597 77.0135 73.5248C82.4887 71.2299 87.9872 73.2608 91.948 75.8197C93.9517 77.1128 95.6991 78.3748 97.5707 79.6951C102.401 83.1045 109.931 88.568 115.324 90.6571C126.826 95.1305 134.911 88.7156 144.914 85.1004C148.37 83.85 153.002 82.5026 156.443 84.6538C157.002 85.0072 157.355 85.3217 157.794 85.7061C158.151 86.0129 158.617 86.7507 159.11 86.774C160.042 85.5508 157.763 81.6522 154.924 80.2698C151.892 78.7864 148.929 79.0078 145.585 79.8659C138.328 81.7376 134.476 84.7043 129.622 86.1139C120.225 88.8476 112.129 83.6131 105.189 78.7864C102.976 77.2448 100.937 75.645 98.6929 74.1733C94.5225 71.4357 89.6297 67.8516 83.0789 67.5798C78.6599 67.3972 73.6468 69.0204 71.348 72.4647C70.9597 73.0394 70.684 73.6335 70.4549 74.3713C70.152 75.3654 69.8414 75.3227 69.0764 75.7925C61.8422 80.1999 64.2885 85.7139 62.0169 88.1447C61.4577 88.7389 59.6676 89.9737 58.891 90.5173L55.5127 92.7424C54.938 93.2122 54.8991 94.0199 55.2176 94.7383C55.9631 96.4235 57.8464 96.7031 57.1397 98.0739C56.6698 98.9942 55.9942 98.6292 56.1301 99.8989C56.2388 100.866 56.7824 101.079 57.3222 101.541ZM124.566 162.72H125.731V152.375H124.555L124.566 162.72ZM171.61 162.72L179.901 162.704L179.939 161.586L172.752 161.563V152.375H171.598L171.61 162.72ZM81.2034 153.517L88.5269 153.513L88.5153 152.375H80.0384C80.0384 155.327 79.9453 159.967 80.054 162.72H81.1995V158.01L87.3814 158.006L87.3426 156.969L81.1995 156.93L81.2034 153.517ZM112.901 161.998C121.06 165.368 123.514 158.755 119.39 157.322C118.027 156.845 113.014 156.717 114.295 154.433C114.761 153.61 115.992 153.253 117.289 153.253C119.258 153.253 119.871 153.769 120.757 153.882L120.893 152.834C118.745 152.208 115.701 151.634 113.989 153.125C112.567 154.364 112.152 156.787 115.74 157.668C116.823 157.936 118.194 158.06 119.141 158.472C121.39 159.447 120.139 162.169 116.183 161.85C115.577 161.796 114.971 161.675 114.427 161.489C114.031 161.353 113.317 160.98 113.026 160.942L112.901 161.998ZM181.706 162.013C183.83 162.821 186.308 163.551 188.583 162.285C190.467 161.237 191.053 158.359 188.214 157.326C187.178 156.95 185.892 156.822 184.786 156.561C183.71 156.317 182.378 155.711 183.104 154.406C184.358 152.181 189.519 153.859 189.57 153.859L189.705 152.845C187.562 152.197 184.607 151.634 182.813 153.113C181.512 154.193 180.786 156.763 184.568 157.68C185.706 157.955 186.948 158.041 187.97 158.476C190.016 159.334 189.201 162.145 185.116 161.858C183.621 161.753 183.061 161.373 181.92 160.922C181.761 161.171 181.706 161.629 181.706 162.013ZM102.479 162.013C104.588 162.833 107.092 163.539 109.348 162.285C110.148 161.839 110.94 161.008 110.909 159.621C110.843 157.07 107.519 157.031 105.547 156.569C102.304 155.808 103.489 153.241 106.882 153.253C108.335 153.257 109.069 153.571 110.311 153.894L110.467 152.845C103.982 150.834 101.764 154.057 102.778 156.13C103.652 157.928 106.91 157.707 108.739 158.472C110.797 159.342 109.931 162.141 105.884 161.858C104.37 161.749 103.834 161.369 102.685 160.922C102.526 161.175 102.471 161.629 102.479 162.013ZM43.1566 153.408C45.1059 153.358 48.3988 153.043 49.4667 154.309C50.0414 155.004 49.9831 156.41 49.4123 157.07C48.4454 158.185 44.9428 157.905 43.1799 157.886L43.1527 153.824L43.1566 153.408ZM43.2071 158.872C44.8574 158.852 47.3659 159.043 48.8337 158.596C50.3015 158.142 51.3344 156.957 51.0044 154.993C50.7326 153.335 49.4317 152.601 47.6649 152.418C46.4184 152.29 43.2886 152.274 41.9994 152.391L42.0033 162.708L43.1527 162.712L43.2071 158.872ZM162.939 153.253L165.89 159.093L159.879 159.074L162.939 153.253ZM159.305 160.122L166.492 160.142L167.797 162.72L169.109 162.716C168.83 161.943 168.154 160.903 167.731 160.107L164.931 154.903C164.706 154.461 164.469 154.076 164.232 153.602C163.848 152.853 163.704 152.375 163.215 152.375C162.26 152.375 162.38 152.298 162.128 152.639L159.495 157.509C159.025 158.363 158.571 159.237 158.093 160.114C157.697 160.844 157.041 161.959 156.734 162.704H157.984L159.305 160.122ZM92.546 153.478L99.8967 153.474L99.8307 152.372L91.3888 152.375L91.3966 162.72H100.207L100.219 161.641H92.546V157.808L98.9182 157.754L98.9026 156.864H92.546V153.478ZM145.019 153.936L148.346 157.381C148.723 157.788 149.026 158.115 149.406 158.522L152.769 161.963C153.406 162.545 153.068 162.72 154.229 162.72V152.391H153.185L153.2 160.903C152.497 160.301 149.74 157.175 148.801 156.328L146.599 154.026C145.116 152.391 145.337 152.251 143.947 152.391L143.951 162.704L145.026 162.72L145.019 153.936ZM55.1943 153.435C56.0563 153.315 57.6329 153.401 58.5648 153.401C59.6365 153.408 60.5568 153.467 61.1665 154.123C61.7878 154.798 62.3586 157.42 58.5648 157.423L55.1904 157.392L55.1943 153.435ZM59.9744 158.231C60.0947 158.134 59.9355 158.216 60.1763 158.119C60.2501 158.091 60.3316 158.068 60.4054 158.049C60.5335 158.018 60.6578 157.998 60.8015 157.955C61.1082 157.87 61.3179 157.781 61.5703 157.625C63.1974 156.635 63.1158 154.162 61.8926 153.191C60.3782 151.987 56.2854 152.375 54.0293 152.375L54.041 162.72H55.1904L55.2214 158.383C56.0835 158.313 57.5979 158.317 58.4716 158.359C58.9958 158.383 59.089 158.654 59.3647 159.023L61.4616 161.73C62.1955 162.693 61.9819 162.844 63.64 162.697L59.9744 158.231ZM133.761 153.358C135.027 153.171 136.588 153.241 137.648 153.773C138.6 154.247 139.151 155.09 139.349 156.379C139.819 159.369 138.848 161.38 136.126 161.765C133.618 162.122 131.051 161.586 130.581 158.732C130.096 155.758 131.07 153.754 133.761 153.358ZM129.35 158.724C129.797 162.095 132.367 163.256 136.056 162.891C139.567 162.545 141.038 160.231 140.58 156.425C140.165 153.012 137.567 151.863 133.816 152.259C130.356 152.62 128.849 154.927 129.35 158.724ZM66.6184 158.324C66.3349 155.284 67.3872 153.536 70.2646 153.307C73.2974 153.07 75.2389 153.894 75.4836 156.818C75.7437 159.885 74.6797 161.613 71.7635 161.815C68.8085 162.013 66.8824 161.171 66.6184 158.324ZM65.4263 158.623C65.8379 162.064 68.3658 163.233 72.0703 162.899C75.6078 162.576 77.0873 160.347 76.6757 156.519C76.2679 152.733 73.2624 151.937 69.9773 152.247C66.4941 152.585 64.9719 154.841 65.4263 158.623ZM133.777 122.871C133.777 126.584 133.777 130.3 133.777 134.008C133.777 136.334 133.505 142.998 134.049 144.764C134.491 146.201 135.381 147.149 136.697 147.619C138.211 148.162 145.321 147.937 147.403 147.937C149.119 147.937 151.228 148.046 152.909 147.921L154.932 143.596L141 143.592C139.073 143.6 138.708 143.235 138.712 141.316C138.728 135.169 138.712 129.022 138.712 122.871H133.777ZM109.876 142.916C109.876 146.019 111.701 147.937 114.792 147.937H131.428C131.424 146.353 131.226 144.128 129.836 143.681C129.253 143.495 120.089 143.592 118.691 143.592C116.909 143.592 114.816 144.077 114.816 141.914L114.82 122.879H109.876V142.916ZM165.347 139.285C166.279 136.987 168.636 132.051 169.878 129.574C170.399 128.529 170.841 127.162 172.119 127.143C173.459 127.123 173.893 128.584 174.414 129.613C174.93 130.642 175.454 131.713 175.948 132.781C176.456 133.903 176.957 134.948 177.47 136.062C177.909 137.022 178.631 138.361 178.93 139.32L165.347 139.285ZM161.541 147.929C161.766 147.242 162.326 146.174 162.66 145.463C162.889 144.982 163.541 143.32 163.91 143.122L180.522 143.126L182.238 146.803C182.483 147.289 182.619 147.867 182.918 147.933L188.579 147.887L178.53 126.793C176.701 122.856 176.037 122.848 172.115 122.848C167.75 122.848 167.587 123.143 165.727 126.824C164.574 129.112 163.448 131.527 162.368 133.868L155.693 147.929H161.541ZM106.747 147.894C106.747 146.784 106.642 145.615 106.18 144.726C105.582 143.576 105.096 143.553 103.485 143.553C100.883 143.553 98.2813 143.561 95.6835 143.561C93.1129 143.561 90.4258 143.646 87.8746 143.568C86.3019 143.522 86.3019 142.652 86.3019 141.215C86.3058 139.922 86.2942 138.625 86.3058 137.332L100.669 137.301L100.689 132.913L86.3058 132.909C86.2903 131.659 86.3058 130.428 86.3019 129.205C86.2941 127.733 86.6941 127.31 88.1736 127.302L103.388 127.314C104.921 127.314 105.395 127.318 105.935 126.06C106.257 125.306 106.599 123.854 106.576 122.93C100.242 122.934 93.9089 122.934 87.5756 122.93C84.3448 122.926 82.2945 123.757 81.4558 126.296C80.9587 127.803 81.1956 133.503 81.1879 135.511C81.1879 142.275 79.8404 147.953 87.7775 147.945C89.055 147.945 105.962 148.061 106.747 147.894ZM89.2181 93.2938C89.5637 93.8801 90.2938 93.6394 91.6296 94.5441C92.9032 95.4139 94.4759 96.7847 95.5632 97.8176C96.2078 98.4311 96.631 99.0252 97.3339 99.6465L100.829 103.351C102.149 104.733 103.217 105.627 104.591 106.896C106.785 108.919 110.626 111.49 113.356 112.636C117.076 114.197 121.669 114.569 126.065 114.181C134.227 113.463 141.326 109.886 147.853 106.947C153.414 104.442 163.409 100.575 167.727 107.292C168.022 107.762 168.131 108.189 168.686 108.166C169.634 106.958 168.154 101.289 163.331 99.4757C159.472 98.0234 154.633 99.0718 150.921 100.21C143.465 102.493 137.505 106.197 129.711 108.119C120.349 110.434 112.967 108.022 106.933 103.553C104.323 101.615 103.508 100.606 101.135 98.5398L99.1822 96.7963C98.06 95.7906 96.5106 94.5635 94.9302 93.7481C94.0138 93.2782 89.8433 91.7133 89.2181 93.2938ZM79.6424 81.8269C81.4752 82.4948 86.0612 78.5962 95.5709 88.0049L97.5164 89.8572C98.1881 90.4979 98.8056 91.061 99.4851 91.6939C100.794 92.9132 101.994 94.2607 103.407 95.3751L107.678 98.7068C110.342 100.446 114.668 102.493 118.431 103.149C126.702 104.578 136.348 100.637 142.654 97.6506C147.069 95.5615 155.495 91.857 160.493 94.1131C163.483 95.4605 163.774 97.4759 164.613 97.5807C165.261 96.9322 164.663 95.3285 164.372 94.5364C163.289 91.5697 161.184 89.8378 158.101 89.1078C152.257 87.7215 144.731 91.2241 139.586 93.484C128.372 98.4117 120.97 100.349 109.465 93.519C105.446 91.1347 101.427 88.2224 98.0212 85.3528C94.4099 82.3201 89.8356 78.6894 84.6788 79.101C83.1838 79.2175 79.4094 80.3902 79.6424 81.8269ZM47.1601 147.929H51.9014C52.2237 146.729 56.9145 134.742 57.862 132.21L58.4949 130.545C58.5221 130.463 58.5726 130.327 58.6114 130.253L58.7823 129.989C60.1064 133.969 62.1567 139.332 63.706 143.475C63.908 144.007 65.1583 147.84 65.469 147.929H70.2685C70.6141 147.848 71.3092 145.277 71.4179 144.966C71.7713 143.895 72.1169 142.862 72.4702 141.813L78.757 122.883L73.6274 122.864L67.8377 140.481C67.5309 139.953 66.4165 136.61 66.1097 135.767L62.6654 126.11C61.6596 123.229 61.5393 123.233 58.9648 123.205C56.7475 123.19 56.0563 123.089 55.07 125.815C54.437 127.566 50.1151 139.782 49.7618 140.361C49.6996 140.276 49.7579 140.404 49.6414 140.144L44.2905 123.38C44.1584 122.98 44.2322 123.027 43.9565 122.864H38.9356C39.1298 123.807 44.5079 140.206 45.0205 141.751L46.531 146.446C46.6747 146.873 46.7912 147.712 47.1601 147.929Z" fill="#18181E"/>
</svg>
