<svg width="64" height="64" viewBox="0 0 64 64" fill="none" xmlns="http://www.w3.org/2000/svg">
<rect x="1" y="1" width="62" height="62" rx="31" stroke="#18181E" stroke-width="2"/>
<circle cx="31.0492" cy="32.475" r="1.85" stroke="#18181E" stroke-width="2"/>
<path d="M15.1367 26.0629C37.4184 16.4211 46.1712 24.1748 50.2867 33.8057M50.2867 33.8057C47.6259 31.4637 43.4001 27.9874 36.6491 27.3372M50.2867 33.8057C40.5587 39.536 32.6049 40.0509 26.4933 38.559M24.2575 29.061C21.6126 29.9595 18.7374 31.2279 15.6117 32.9498C18.1047 35.0272 21.7424 37.3994 26.4933 38.559M24.2575 29.061C23.7404 30.0876 23.4492 31.2475 23.4492 32.4754C23.4492 34.9637 24.645 37.1727 26.4933 38.559M24.2575 29.061C29.126 27.4071 33.2144 27.0064 36.6491 27.3372M36.6491 27.3372C37.8911 28.69 38.6492 30.4942 38.6492 32.4754C38.6492 35.3855 37.0137 37.9135 34.6117 39.1905" stroke="#18181E" stroke-width="2"/>
<circle cx="32" cy="32" r="22" stroke="#18181E" stroke-width="2" stroke-dasharray="4 4"/>
</svg>
