<svg width="65" height="64" viewBox="0 0 65 64" fill="none" xmlns="http://www.w3.org/2000/svg">
<rect x="1.33331" y="1" width="62" height="62" rx="31" stroke="#18181E" stroke-width="2"/>
<path d="M29.3333 29.2502L24.8333 25.1254C24.6709 25.0071 24.5041 24.8944 24.3333 24.7876C23.0283 23.9716 21.4859 23.5 19.8333 23.5C15.1389 23.5 11.3333 27.3056 11.3333 32C11.3333 36.6944 15.1389 40.5 19.8333 40.5C21.7022 40.5 23.3333 40 24.8333 38.8746L39.8333 25.1254C41.2364 24.1031 42.9644 23.5 44.8333 23.5C49.5277 23.5 53.3333 27.3056 53.3333 32C53.3333 36.6944 49.5277 40.5 44.8333 40.5C42.9644 40.5 41.2364 39.8969 39.8333 38.8746L35.6062 35" stroke="#18181E" stroke-width="2"/>
</svg>
