<svg width="65" height="64" viewBox="0 0 65 64" fill="none" xmlns="http://www.w3.org/2000/svg">
<rect x="1.66666" y="1" width="62" height="62" rx="31" stroke="#18181E" stroke-width="2"/>
<path d="M18.8756 24.5357V13M18.8756 24.5357L21.9648 21.369M18.8756 24.5357L15.7864 21.369M46.4577 24.5357V13M46.4577 24.5357L49.5469 21.369M46.4577 24.5357L43.3685 21.369M32.777 39.4643L32.777 51M32.777 39.4643L29.6878 42.631M32.777 39.4643L35.8662 42.631M9.16666 30.6429C9.16666 30.6429 14.0752 28.381 18.7652 28.381C23.4553 28.381 28.0869 30.651 32.777 30.6429C37.4247 30.6347 42.0307 28.381 46.6784 28.381C51.3261 28.381 56.1667 30.6429 56.1667 30.6429M9.16666 35.3929C9.16666 35.3929 14.0752 33.131 18.7652 33.131C23.4553 33.131 28.0869 35.401 32.777 35.3929C37.4247 35.3847 42.0307 33.131 46.6784 33.131C51.3261 33.131 56.1667 35.3929 56.1667 35.3929" stroke="#18181E" stroke-width="2"/>
</svg>
