<svg width="64" height="64" viewBox="0 0 64 64" fill="none" xmlns="http://www.w3.org/2000/svg">
<rect x="1" y="1" width="62" height="62" rx="31" stroke="#18181E" stroke-width="2"/>
<path d="M36.1984 39.2875C35.2342 36.7115 33.6321 34.3195 31.6555 32.3429C29.679 30.3663 27.287 28.7642 24.7109 27.8C27.287 26.8358 29.679 25.2337 31.6555 23.2571C33.6321 21.2805 35.2342 18.8885 36.1984 16.3125C37.1627 18.8885 38.7647 21.2805 40.7413 23.2571C42.7179 25.2337 45.1099 26.8358 47.6859 27.8C45.1099 28.7642 42.7179 30.3663 40.7413 32.3429C38.7647 34.3195 37.1627 36.7115 36.1984 39.2875Z" stroke="#18181E" stroke-width="2" stroke-miterlimit="6.39245" stroke-linecap="round"/>
<path d="M16.1845 40.9252C16.3205 40.8477 16.4556 40.7672 16.5892 40.6844C17.7588 39.9604 18.9615 38.9733 20.043 37.8917C21.1246 36.8101 22.1118 35.6075 22.8358 34.4379C22.9186 34.3042 22.999 34.1691 23.0766 34.0331C23.1541 34.1691 23.2346 34.3042 23.3173 34.4379C24.0413 35.6075 25.0285 36.8101 26.1101 37.8917C27.1917 38.9733 28.3943 39.9604 29.5639 40.6844C29.6976 40.7672 29.8326 40.8477 29.9687 40.9252C29.8326 41.0027 29.6976 41.0832 29.5639 41.1659C28.3943 41.89 27.1917 42.8771 26.1101 43.9587C25.0285 45.0403 24.0413 46.2429 23.3173 47.4125C23.2346 47.5462 23.1541 47.6812 23.0766 47.8173C22.999 47.6812 22.9186 47.5462 22.8358 47.4125C22.1118 46.2429 21.1246 45.0403 20.043 43.9587C18.9615 42.8771 17.7588 41.89 16.5892 41.1659C16.4556 41.0832 16.3205 41.0027 16.1845 40.9252Z" stroke="#18181E" stroke-width="2" stroke-linecap="round"/>
</svg>
