<svg width="37" height="35" viewBox="0 0 37 35" fill="none" xmlns="http://www.w3.org/2000/svg">
<path d="M18.0256 1.01025C18.1773 0.554015 18.8227 0.554017 18.9744 1.01025L22.625 11.9841C22.8289 12.5971 23.4023 13.0106 24.0483 13.0106H35.8106C36.2978 13.0106 36.4973 13.6364 36.1 13.9184L26.6248 20.6424C26.0867 21.0243 25.8613 21.713 26.0696 22.3392L29.6983 33.2474C29.8509 33.706 29.3287 34.0927 28.9345 33.813L19.3681 27.0242C18.8482 26.6553 18.1518 26.6553 17.6319 27.0242L8.06548 33.813C7.67134 34.0927 7.14913 33.706 7.30168 33.2474L10.9304 22.3392C11.1387 21.713 10.9133 21.0243 10.3752 20.6424L0.899993 13.9184C0.502667 13.6364 0.702152 13.0106 1.18936 13.0106H12.9517C13.5977 13.0106 14.1711 12.5971 14.375 11.9841L18.0256 1.01025Z" stroke="white"/>
</svg>
