<svg width="64" height="64" viewBox="0 0 64 64" fill="none" xmlns="http://www.w3.org/2000/svg">
  <rect x="1" y="1" width="62" height="62" rx="31" stroke="currentColor" stroke-width="2"/>
  <path d="M21.5661 21.678C21.0257 21.3736 20.4022 21.2 19.7383 21.2C17.6737 21.2 16 22.8789 16 24.95C16 26.3278 16.7407 27.532 17.8444 28.1838M21.5661 21.678C22.7063 22.3203 23.4766 23.5449 23.4766 24.95C23.4766 27.0211 21.8029 28.7 19.7383 28.7C19.0472 28.7 18.3998 28.5119 17.8444 28.1838M21.5661 21.678C23.3827 19.8304 25.6834 18.463 28.2618 17.7826M28.2618 17.7826C28.2793 19.8387 29.9462 21.5 32 21.5C34.0538 21.5 35.7207 19.8387 35.7382 17.7826M28.2618 17.7826C28.2617 17.7717 28.2617 17.7609 28.2617 17.75C28.2617 15.6789 29.9354 14 32 14C34.0646 14 35.7383 15.6789 35.7383 17.75C35.7383 17.7609 35.7383 17.7717 35.7382 17.7826M35.7382 17.7826C38.3166 18.463 40.6173 19.8304 42.4339 21.678M42.4339 21.678C41.2937 22.3203 40.5234 23.5449 40.5234 24.95C40.5234 27.0211 42.1971 28.7 44.2617 28.7C44.9528 28.7 45.6002 28.5119 46.1556 28.1838M42.4339 21.678C42.9743 21.3736 43.5978 21.2 44.2617 21.2C46.3263 21.2 48 22.8789 48 24.95C48 26.3278 47.2593 27.532 46.1556 28.1838M46.1556 28.1838C46.4808 29.4008 46.6542 30.6801 46.6542 32C46.6542 33.3199 46.4808 34.5992 46.1556 35.8162M46.1556 35.8162C45.6002 35.4881 44.9528 35.3 44.2617 35.3C42.1971 35.3 40.5234 36.9789 40.5234 39.05C40.5234 40.4551 41.2937 41.6797 42.4339 42.322M46.1556 35.8162C47.2593 36.468 48 37.6722 48 39.05C48 41.1211 46.3263 42.8 44.2617 42.8C43.5978 42.8 42.9743 42.6264 42.4339 42.322M42.4339 42.322C40.6173 44.1696 38.3166 45.537 35.7382 46.2174M35.7382 46.2174C35.7207 44.1613 34.0538 42.5 32 42.5C29.9462 42.5 28.2793 44.1613 28.2618 46.2174M35.7382 46.2174C35.7383 46.2283 35.7383 46.2391 35.7383 46.25C35.7383 48.3211 34.0646 50 32 50C29.9354 50 28.2617 48.3211 28.2617 46.25C28.2617 46.2391 28.2617 46.2283 28.2618 46.2174M28.2618 46.2174C25.6834 45.537 23.3827 44.1696 21.5661 42.322M21.5661 42.322C22.7063 41.6797 23.4766 40.4551 23.4766 39.05C23.4766 36.9789 21.8029 35.3 19.7383 35.3C19.0472 35.3 18.3998 35.4881 17.8444 35.8162M21.5661 42.322C21.0257 42.6264 20.4022 42.8 19.7383 42.8C17.6737 42.8 16 41.1211 16 39.05C16 37.6722 16.7407 36.468 17.8444 35.8162M17.8444 35.8162C17.5192 34.5992 17.3458 33.3199 17.3458 32C17.3458 30.6801 17.5192 29.4008 17.8444 28.1838M37.8318 32C37.8318 35.2309 35.2208 37.85 32 37.85C28.7792 37.85 26.1682 35.2309 26.1682 32C26.1682 28.7691 28.7792 26.15 32 26.15C35.2208 26.15 37.8318 28.7691 37.8318 32Z" stroke="currentColor" stroke-width="2"/>
</svg>
