<svg width="64" height="64" viewBox="0 0 64 64" fill="none" xmlns="http://www.w3.org/2000/svg">
  <rect x="1" y="1" width="62" height="62" rx="31" stroke="currentColor" stroke-width="2"/>
  <path d="M23.3037 48.3944V44.7465C23.3037 39.7089 22.435 39.5352 19.1245 35.3662C15.2129 30.4401 17.6153 23.3803 19.1245 20.7746C20.5176 18.4006 25.045 14 32.0103 14C36.9448 14 46.4305 17.0225 44.8981 29.1127L47.8463 34.8546C48.2245 35.5912 47.8776 36.4922 47.1024 36.7868L44.8981 37.6244C45.2464 41.446 44.9678 45.4761 43.1568 46.3099C41.3458 47.1437 36.7139 46.6573 36.7139 46.6573M26.2659 39.0141L28.8779 43.0094C30.445 45.0939 31.5596 46.3793 36.7139 46.6573M36.7139 46.6573V51M31.1416 30.3286C31.1416 31.4799 32.0771 32.4131 33.2312 32.4131C34.3852 32.4131 35.3208 31.4799 35.3208 30.3286C35.3208 29.1774 34.3852 28.2441 33.2312 28.2441M31.1416 30.3286C31.1416 29.1774 32.0771 28.2441 33.2312 28.2441M31.1416 30.3286H22.2607M33.2312 28.2441V19.7324M22.2607 30.3286L23.6538 28.939V31.7183L22.2607 30.3286ZM33.2312 19.7324L35 21.4695H31.4898L33.2312 19.7324Z" stroke="currentColor" stroke-width="2"/>
</svg>
