<svg width="64" height="64" viewBox="0 0 64 64" fill="none" xmlns="http://www.w3.org/2000/svg">
<rect x="1" y="1" width="62" height="62" rx="31" stroke="#18181E" stroke-width="2"/>
<path d="M36.9995 14L39.101 18.4992C39.101 18.4992 37.7842 17.9993 36.3932 17.5722C34.9667 17.1346 33.4868 16.9125 31.9992 16.9127C23.7149 16.9127 17 23.6676 17 32C16.9975 34.6563 17.6905 37.2635 19.0052 39.5436M27.0005 50L24.8912 45.4992C24.8912 45.4992 26.2158 45.9991 27.6068 46.4278C28.9962 46.8549 30.4725 47.0856 32.0008 47.0856C40.2851 47.0856 47 40.3307 47 31.9984C47.0022 29.3427 46.3092 26.7361 44.9948 24.4564" stroke="#18181E" stroke-width="2" stroke-linecap="square"/>
</svg>
