<svg width="64" height="64" viewBox="0 0 64 64" fill="none" xmlns="http://www.w3.org/2000/svg">
<rect x="1" y="1.00049" width="62" height="62" rx="31" stroke="#18181E" stroke-width="2"/>
<path d="M33.889 40.2265L30.7515 38.9232C30.0748 38.6309 29.4876 38.1646 29.0497 37.5717C28.6117 36.9788 28.3386 36.2805 28.2582 35.5477C28.1557 34.6076 27.7363 33.7303 27.0689 33.0602C26.5876 32.4983 24.9166 31.4371 22.0833 31.6875M33.889 40.2265L47.5626 26.4924L37.4079 16.2944L22.0833 31.6875M33.889 40.2265L27.2552 46.8886C26.5901 47.5579 25.7991 48.089 24.9279 48.4515C24.0567 48.8139 23.1224 49.0005 22.1789 49.0005C21.2353 49.0005 20.301 48.8139 19.4298 48.4515C18.5586 48.089 17.7676 47.5579 17.1025 46.8886C15.7558 45.5332 15 43.7002 15 41.7896C15 39.8789 15.7558 38.0459 17.1025 36.6905L22.0833 31.6875M49 27.9374L36.1216 15.0005" stroke="#18181E" stroke-width="2" stroke-linecap="square"/>
</svg>
