<svg width="65" height="64" viewBox="0 0 65 64" fill="none" xmlns="http://www.w3.org/2000/svg">
<rect x="1.3335" y="1" width="62" height="62" rx="31" stroke="#18181E" stroke-width="2"/>
<path d="M29.3335 29.2502L24.8335 25.1254C24.6711 25.0071 24.5043 24.8944 24.3335 24.7876C23.0285 23.9716 21.4861 23.5 19.8335 23.5C15.1391 23.5 11.3335 27.3056 11.3335 32C11.3335 36.6944 15.1391 40.5 19.8335 40.5C21.7024 40.5 23.3335 40 24.8335 38.8746L39.8335 25.1254C41.2366 24.1031 42.9646 23.5 44.8335 23.5C49.5279 23.5 53.3335 27.3056 53.3335 32C53.3335 36.6944 49.5279 40.5 44.8335 40.5C42.9646 40.5 41.2366 39.8969 39.8335 38.8746L35.6064 35" stroke="#18181E" stroke-width="2"/>
</svg>
