<svg width="65" height="64" viewBox="0 0 65 64" fill="none" xmlns="http://www.w3.org/2000/svg">
<rect x="1.6665" y="1" width="62" height="62" rx="31" stroke="#18181E" stroke-width="2"/>
<path d="M18.8754 24.5357V13M18.8754 24.5357L21.9646 21.369M18.8754 24.5357L15.7862 21.369M46.4576 24.5357V13M46.4576 24.5357L49.5468 21.369M46.4576 24.5357L43.3684 21.369M32.7768 39.4643L32.7768 51M32.7768 39.4643L29.6876 42.631M32.7768 39.4643L35.866 42.631M9.1665 30.6429C9.1665 30.6429 14.075 28.381 18.7651 28.381C23.4551 28.381 28.0868 30.651 32.7768 30.6429C37.4245 30.6347 42.0305 28.381 46.6782 28.381C51.3259 28.381 56.1665 30.6429 56.1665 30.6429M9.1665 35.3929C9.1665 35.3929 14.075 33.131 18.7651 33.131C23.4551 33.131 28.0868 35.401 32.7768 35.3929C37.4245 35.3847 42.0305 33.131 46.6782 33.131C51.3259 33.131 56.1665 35.3929 56.1665 35.3929" stroke="#18181E" stroke-width="2"/>
</svg>
