<svg width="64" height="64" viewBox="0 0 64 64" fill="none" xmlns="http://www.w3.org/2000/svg">
  <rect x="1" y="1" width="62" height="62" rx="31" stroke="currentColor" stroke-width="2"/>
  <path d="M45.7313 20.9286C46.9841 20.9286 48 19.9372 48 18.7143C48 17.4914 46.9841 16.5 45.7313 16.5C44.4785 16.5 43.4627 17.4914 43.4627 18.7143C43.4627 19.9372 44.4785 20.9286 45.7313 20.9286Z" stroke="currentColor" stroke-width="2"/>
  <path d="M18.0541 23.7698C16.8335 23.1472 16 21.8998 16 20.4624C16 18.4028 17.7108 16.7331 19.8209 16.7331C21.0173 16.7331 22.0854 17.2699 22.7859 18.1102C23.3251 17.8264 23.9417 17.6654 24.597 17.6654C26.451 17.6654 27.9967 18.9546 28.3447 20.6646C30.1866 21.2285 31.5224 22.9074 31.5224 24.891C31.5224 24.9799 31.5196 25.0683 31.5145 25.1559C31.673 25.1349 31.8354 25.1241 32 25.1241C33.9785 25.1241 35.5821 26.6894 35.5821 28.6203C35.5821 30.5512 33.9785 32.1165 32 32.1165C31.0672 32.1165 30.2178 31.7686 29.5802 31.1984C29.2234 31.5012 28.7892 31.7191 28.3102 31.8203C28.3806 32.0626 28.4179 32.3184 28.4179 32.5827C28.4179 34.1274 27.1348 35.3797 25.5522 35.3797C23.9697 35.3797 22.6866 34.1274 22.6866 32.5827C22.6866 32.2581 22.7435 31.9465 22.8475 31.6566C21.9426 31.321 21.2132 30.6379 20.8302 29.7742C20.7337 29.7818 20.6357 29.7857 20.5373 29.7857C18.5588 29.7857 16.9552 28.2204 16.9552 26.2895C16.9552 25.2996 17.3769 24.4059 18.0541 23.7698Z" stroke="currentColor" stroke-width="2"/>
  <path d="M40.597 21.3947C40.597 22.9395 39.3139 24.1917 37.7313 24.1917C36.1488 24.1917 34.8657 22.9395 34.8657 21.3947C34.8657 19.85 36.1488 18.5977 37.7313 18.5977C39.3139 18.5977 40.597 19.85 40.597 21.3947Z" stroke="currentColor" stroke-width="2"/>
  <path d="M46.0896 25.9398C46.0896 26.9053 45.2878 27.688 44.2985 27.688C43.3092 27.688 42.5075 26.9053 42.5075 25.9398C42.5075 24.9744 43.3092 24.1917 44.2985 24.1917C45.2878 24.1917 46.0896 24.9744 46.0896 25.9398Z" stroke="currentColor" stroke-width="2"/>
  <path d="M48 34.0977C48 35.2783 47.334 36.307 46.3484 36.8454C46.9277 37.4321 47.2836 38.23 47.2836 39.109C47.2836 40.9112 45.7868 42.3722 43.9403 42.3722C42.6973 42.3722 41.6124 41.71 41.0364 40.7273L40.9701 40.7322L40.8904 40.7367C40.8326 40.7393 40.7747 40.7406 40.7164 40.7406C38.6721 40.7406 37.0149 39.1231 37.0149 37.1278C37.0149 35.1325 38.6721 33.515 40.7164 33.515C41.0173 33.515 41.3097 33.5501 41.5896 33.6162C41.827 32.1069 43.1637 30.9511 44.7761 30.9511C46.5564 30.9511 48 32.3599 48 34.0977Z" stroke="currentColor" stroke-width="2"/>
  <path d="M23.1642 40.5075C23.1642 41.7644 24.091 42.8101 25.3139 43.0292L25.3134 43.0714C25.3134 44.4874 26.4897 45.6353 27.9403 45.6353C28.2966 45.6353 28.6367 45.5661 28.9464 45.4406C29.1866 46.615 30.2486 47.5 31.5224 47.5C32.9729 47.5 34.1493 46.3521 34.1493 44.9361C34.1493 43.981 33.6143 43.1479 32.8209 42.7068C33.0592 42.2577 33.194 41.7476 33.194 41.2068C33.194 39.4046 31.6973 37.9436 29.8507 37.9436C29.0219 37.9436 28.2635 38.2379 27.6796 38.7253C27.202 38.2433 26.5322 37.9436 25.791 37.9436C24.3405 37.9436 23.1642 39.0915 23.1642 40.5075Z" stroke="currentColor" stroke-width="2"/>
</svg>
